<svg width="151" height="68" viewBox="0 0 151 68" fill="none" xmlns="http://www.w3.org/2000/svg">
<g clip-path="url(#clip0_6662_5490)">
<path d="M114.669 -0.126202C133.435 -0.299597 148.8 14.7437 149.01 33.4978C149.221 52.2519 134.198 67.6358 115.432 67.883C96.6142 68.131 81.1678 53.067 80.9568 34.2606C80.7457 15.4541 95.8499 0.0476668 114.669 -0.126202Z" fill="#BC2E28"/>
<path d="M97.4165 19.3669C99.8032 19.0475 103.028 19.62 104.778 21.3795C105.305 21.9097 105.79 22.4646 106.321 22.9972C106.333 21.9541 106.378 20.8667 106.406 19.8204C108.336 19.9341 111.374 19.8353 113.414 19.8475C113.279 24.9976 113.238 30.1498 113.291 35.3015C113.294 37.9534 113.411 41.6879 113.109 44.2178C112.924 45.6808 112.546 47.1128 111.984 48.4761C110.804 51.311 108.901 53.0917 106.034 54.2848C102.189 55.885 96.6276 55.7294 92.5835 54.9188C91.4858 54.6988 89.6466 53.9366 88.565 53.4847C88.7696 52.6134 88.9988 51.7479 89.2526 50.8896C89.6039 49.7228 90.0036 48.4738 90.14 47.269C94.0231 49.555 101.364 51.0629 104.314 46.5528C105.466 44.7929 105.192 43.0112 105.361 41.0352C103.373 42.9 101.903 44.1445 99.0825 44.4157C82.8194 45.9795 81.6511 20.9291 97.4165 19.3669Z" fill="#FEFEFE"/>
<path d="M100.009 25.1417C102.932 24.8683 105.239 27.4271 105.166 30.2508C105.103 32.6738 105.649 35.2882 103.731 37.1853C102.523 38.3795 101.522 38.6684 99.8865 38.6973C94.2229 38.2653 93.1441 30.8542 96.1455 27.027C97.1608 25.733 98.4384 25.2888 100.009 25.1417Z" fill="#BC2E28"/>
<path d="M128.887 19.3687C132.796 19.0872 136.438 19.6985 139.593 22.1557C143.194 24.9659 144.794 29.7152 144.09 34.1712C143.002 41.0577 138 44.5218 131.394 45.322C127.76 45.8324 122.812 44.374 120.019 42.0014C117.662 40.0177 116.2 37.1729 115.96 34.1034C115.528 28.6561 117.277 24.0831 122.133 21.2191C124.393 19.8862 126.313 19.5713 128.887 19.3687Z" fill="#FEFEFE"/>
<path d="M129.041 25.0371C132.43 24.8513 134.451 25.9157 135.382 29.3995C136.002 31.7198 135.843 34.9606 134.613 37.0747C133.779 38.509 132.658 39.163 131.051 39.5577C129.628 39.8216 128.16 39.5068 126.971 38.6833C122.878 35.8323 123.279 26.0365 129.041 25.0371Z" fill="#BC2E28"/>
<path d="M39.5305 19.3733C39.9203 19.3736 40.31 19.3834 40.6994 19.4025C48.4417 19.8056 52.044 25.31 51.8294 32.712C51.8093 33.4061 51.7659 34.1011 51.7264 34.7946C48.7763 34.6364 44.8597 34.7923 41.855 34.7728C39.783 34.7594 35.9874 34.6492 34.0589 34.8129C34.0955 35.0335 34.1419 35.2522 34.1982 35.4686C35.5775 40.7426 45.4254 39.5152 49.2989 38.4823L49.7335 40.0785C49.9791 40.8311 50.2031 41.7586 50.294 42.5443C50.3373 42.9192 50.3312 43.3397 50.0678 43.6395C49.3585 44.4472 43.4879 45.1718 42.1253 45.246C38.0992 45.4654 33.4864 44.6466 30.4102 41.8729C27.956 39.6601 26.6942 36.6472 26.5393 33.3644C26.3694 29.7623 27.6151 26.0365 30.0575 23.37C32.6862 20.5003 35.7359 19.5384 39.5305 19.3733ZM33.9875 29.4026C35.9282 29.3498 37.8314 29.4467 39.7953 29.3793C40.5499 29.4157 43.9285 29.4976 44.3924 29.1661C44.5576 28.6136 44.0032 27.223 43.7225 26.6942C42.7037 24.7752 40.7363 24.3275 38.7457 24.4613C35.7063 25.1523 34.6652 26.4785 33.9875 29.4026Z" fill="#3C3465"/>
<path d="M68.656 19.4547C71.4844 19.0564 74.5774 19.7934 76.6225 21.8839C80.1832 25.5236 79.5051 30.5228 79.5173 35.2544C79.5378 38.3882 79.5398 41.5222 79.5231 44.6561C76.9206 44.6249 74.2191 44.7185 71.6322 44.6098C71.2708 40.5918 71.7681 36.0418 71.5454 31.9704C71.4454 30.1924 71.4619 28.0019 70.029 26.7042C67.9528 24.8236 65.358 25.3506 63.5478 27.2812C63.4739 27.3548 63.4033 27.4318 63.3364 27.512C62.872 28.068 62.5366 28.8268 62.4726 29.5542C62.1263 33.49 62.4375 37.4986 62.3803 41.4518C62.3653 42.4902 62.3327 43.649 62.4206 44.6762C61.7454 44.6044 59.8609 44.6376 59.1363 44.6491C57.6389 44.6728 55.8459 44.5963 54.394 44.7153C54.3221 40.1171 54.3996 35.3846 54.4001 30.7729L54.302 19.989C55.4646 19.8573 59.9174 19.8634 61.1095 19.9671C61.2443 21.1887 61.2935 22.5394 61.4893 23.7269C63.8548 20.8639 64.9874 19.9865 68.656 19.4547Z" fill="#393262"/>
<path d="M0.170258 19.9224C1.43018 19.9365 7.93645 19.655 8.58303 20.058C9.02665 20.3346 13.0145 33.34 13.4226 34.6978C13.5562 35.1423 13.9381 37.2513 14.1921 37.4496C14.6597 36.9861 14.9753 34.5102 15.2258 33.6977C15.4411 32.9997 15.7316 32.2525 15.9361 31.5642C16.746 28.7935 17.5907 26.033 18.4699 23.2835C18.7071 22.5396 19.1953 20.6168 19.5657 20.0785C20.4084 19.7434 26.5452 19.9118 27.9273 19.9286C27.2612 21.6118 26.5053 23.4632 25.8701 25.1281C25.4811 26.2542 24.9173 27.5009 24.4583 28.6151L21.6312 35.4853L19.5559 40.6959C19.0245 42.0594 18.6947 43.3715 17.8755 44.5755C16.3003 44.7744 11.5118 44.6463 9.70486 44.6295C6.7539 37.3981 4.0077 29.9448 1.06265 22.694C0.85374 22.1796 0.00661922 20.3497 0.170258 19.9224Z" fill="#312954"/>
</g>
<defs>
<clipPath id="clip0_6662_5490">
<rect width="150.167" height="68" fill="white"/>
</clipPath>
</defs>
</svg>
