<svg width="106" height="48" viewBox="0 0 106 48" fill="none" xmlns="http://www.w3.org/2000/svg">
<g clip-path="url(#clip0_6662_6212)">
<path d="M80.9425 -0.0890403C94.1895 -0.211437 105.035 10.4073 105.184 23.6455C105.332 36.8837 94.7277 47.743 81.4813 47.9175C68.1981 48.0925 57.2948 37.4591 57.1458 24.184C56.9968 10.9088 67.6586 0.0336903 80.9425 -0.0890403Z" fill="#BC2E28"/>
<path d="M68.7647 13.6707C70.4494 13.4453 72.7257 13.8494 73.9612 15.0914C74.3329 15.4656 74.6752 15.8574 75.0503 16.2333C75.0583 15.497 75.0904 14.7295 75.1104 13.9909C76.4722 14.0711 78.6169 14.0014 80.0569 14.01C79.9613 17.6454 79.9326 21.2822 79.97 24.9187C79.972 26.7907 80.0549 29.4267 79.8417 31.2126C79.7113 32.2453 79.4445 33.2561 79.0474 34.2184C78.2144 36.2195 76.8713 37.4765 74.8477 38.3187C72.1334 39.4482 68.2078 39.3384 65.3531 38.7662C64.5783 38.6109 63.28 38.0729 62.5165 37.7539C62.6609 37.1389 62.8227 36.5279 63.0018 35.922C63.2499 35.0985 63.532 34.2168 63.6283 33.3663C66.3693 34.98 71.5511 36.0444 73.6336 32.8608C74.4466 31.6185 74.2534 30.3609 74.3724 28.966C72.9691 30.2824 71.9315 31.1608 69.9406 31.3523C58.4608 32.4561 57.6361 14.7735 68.7647 13.6707Z" fill="#FEFEFE"/>
<path d="M70.5942 17.7471C72.658 17.5541 74.2859 19.3604 74.2344 21.3535C74.1903 23.0639 74.5754 24.9094 73.2216 26.2485C72.3692 27.0915 71.6626 27.2954 70.508 27.3157C66.5101 27.0108 65.7487 21.7795 67.8673 19.0779C68.5839 18.1645 69.4858 17.851 70.5942 17.7471Z" fill="#BC2E28"/>
<path d="M90.9793 13.6721C93.7383 13.4734 96.3089 13.9049 98.5364 15.6394C101.078 17.6231 102.207 20.9755 101.711 24.1209C100.943 28.982 97.412 31.4273 92.7489 31.9921C90.1837 32.3524 86.6906 31.3229 84.7191 29.6482C83.0558 28.2479 82.0235 26.2398 81.8537 24.073C81.5489 20.2279 82.7837 16.9999 86.2113 14.9783C87.8071 14.0374 89.1622 13.8151 90.9793 13.6721Z" fill="#FEFEFE"/>
<path d="M91.0877 17.6732C93.4797 17.5421 94.9064 18.2934 95.5636 20.7526C96.0015 22.3904 95.8891 24.678 95.0207 26.1704C94.4324 27.1828 93.6408 27.6445 92.5063 27.9231C91.5022 28.1093 90.466 27.8871 89.6263 27.3059C86.7375 25.2934 87.0203 18.3787 91.0877 17.6732Z" fill="#BC2E28"/>
<path d="M27.904 13.6753C28.1792 13.6755 28.4543 13.6824 28.7291 13.6959C34.1943 13.9805 36.7371 17.8659 36.5856 23.0909C36.5714 23.5808 36.5408 24.0714 36.5129 24.5609C34.4305 24.4493 31.6658 24.5593 29.5449 24.5455C28.0822 24.536 25.403 24.4583 24.0417 24.5739C24.0675 24.7295 24.1003 24.8839 24.14 25.0367C25.1137 28.7595 32.0651 27.8931 34.7994 27.164L35.1061 28.2907C35.2795 28.822 35.4376 29.4767 35.5017 30.0313C35.5324 30.296 35.528 30.5927 35.3421 30.8044C34.8414 31.3745 30.6975 31.886 29.7357 31.9384C26.8937 32.0932 23.6376 31.5153 21.4662 29.5574C19.7338 27.9954 18.8431 25.8686 18.7337 23.5514C18.6138 21.0087 19.4931 18.3787 21.2172 16.4965C23.0727 14.4708 25.2254 13.7918 27.904 13.6753ZM23.9913 20.7548C25.3612 20.7176 26.7046 20.7859 28.0909 20.7383C28.6236 20.7641 31.0085 20.8219 31.3359 20.5879C31.4525 20.1979 31.0612 19.2163 30.8631 18.843C30.1439 17.4884 28.7552 17.1724 27.3501 17.2668C25.2046 17.7546 24.4697 18.6907 23.9913 20.7548Z" fill="#3C3465"/>
<path d="M48.463 13.7328C50.4596 13.4517 52.6429 13.9719 54.0865 15.4475C56.5999 18.0167 56.1212 21.5456 56.1298 24.8855C56.1443 27.0976 56.1458 29.3099 56.1339 31.522C54.2969 31.5 52.39 31.5661 50.5639 31.4894C50.3088 28.6531 50.6598 25.4413 50.5026 22.5674C50.432 21.3124 50.4437 19.7661 49.4322 18.8501C47.9667 17.5226 46.1351 17.8946 44.8573 19.2574C44.8051 19.3094 44.7553 19.3637 44.7081 19.4203C44.3802 19.8128 44.1435 20.3484 44.0983 20.8619C43.8539 23.6401 44.0735 26.4697 44.0332 29.2602C44.0225 29.9931 43.9995 30.8112 44.0616 31.5363C43.585 31.4855 42.2547 31.509 41.7432 31.5171C40.6863 31.5338 39.4206 31.4798 38.3957 31.5638C38.345 28.3181 38.3997 24.9775 38.4001 21.7221L38.3308 14.11C39.1514 14.017 42.2946 14.0213 43.1361 14.0945C43.2313 14.9568 43.266 15.9102 43.4042 16.7485C45.074 14.7276 45.8735 14.1082 48.463 13.7328Z" fill="#393262"/>
<path d="M0.120182 14.0627C1.00954 14.0726 5.6022 13.8739 6.05861 14.1584C6.37175 14.3536 9.1867 23.5339 9.47477 24.4924C9.5691 24.8061 9.83866 26.2948 10.018 26.4348C10.348 26.1076 10.5708 24.3599 10.7476 23.7864C10.8996 23.2937 11.1047 22.7662 11.249 22.2804C11.8207 20.3246 12.4169 18.3761 13.0375 16.4352C13.205 15.9101 13.5496 14.5528 13.811 14.1728C14.4059 13.9363 18.7378 14.0552 19.7134 14.0671C19.2432 15.2552 18.7096 16.562 18.2612 17.7373C17.9867 18.5322 17.5887 19.4122 17.2647 20.1987L15.2691 25.0482L13.8042 28.7263C13.429 29.6888 13.1963 30.615 12.618 31.4649C11.5061 31.6053 8.126 31.5149 6.85049 31.503C4.76746 26.3985 2.82897 21.1373 0.750106 16.0191C0.60264 15.656 0.00467239 14.3643 0.120182 14.0627Z" fill="#312954"/>
</g>
<defs>
<clipPath id="clip0_6662_6212">
<rect width="106" height="48" fill="white"/>
</clipPath>
</defs>
</svg>
