<svg width="25" height="20" viewBox="0 0 25 20" fill="none" xmlns="http://www.w3.org/2000/svg">
<path d="M9.8125 15.125H15.4375M8.25 3.25V13.5625M8.25 3.25H4.87238C4.05202 3.25 3.28386 3.65248 2.8169 4.32697L1.19452 6.67042C0.90507 7.08851 0.75 7.58493 0.75 8.09344V12.6696C0.75 14.0257 1.8493 15.125 3.20536 15.125M8.25 3.25V3.36364M8.25 3.25C8.25 1.86929 9.36929 0.75 10.75 0.75H21.375C22.7557 0.75 23.875 1.86929 23.875 3.25V12.7576C23.875 14.0651 22.8151 15.125 21.5076 15.125M9.5 15.75C9.5 17.4759 8.10089 18.875 6.375 18.875C4.64911 18.875 3.25 17.4759 3.25 15.75C3.25 14.0241 4.64911 12.625 6.375 12.625C8.10089 12.625 9.5 14.0241 9.5 15.75ZM21.375 15.75C21.375 17.4759 19.9759 18.875 18.25 18.875C16.5241 18.875 15.125 17.4759 15.125 15.75C15.125 14.0241 16.5241 12.625 18.25 12.625C19.9759 12.625 21.375 14.0241 21.375 15.75Z" stroke="#393262" stroke-width="1.5" stroke-linejoin="round"/>
</svg>
