<svg width="23" height="24" viewBox="0 0 23 24" fill="none" xmlns="http://www.w3.org/2000/svg">
<path d="M11.0625 7V4.91667M11.0625 7H8.97917C6.67798 7 4.8125 5.13452 4.8125 2.83333C4.8125 1.68274 5.74524 0.75 6.89583 0.75C9.19702 0.75 11.0625 2.61548 11.0625 4.91667M11.0625 7H13.1458C15.447 7 17.3125 5.13452 17.3125 2.83333C17.3125 1.68274 16.3798 0.75 15.2292 0.75C12.928 0.75 11.0625 2.61548 11.0625 4.91667M11.0625 7H3.25C1.86929 7 0.75 8.11929 0.75 9.5V9.8125C0.75 10.7379 1.25275 11.5458 2 11.978M11.0625 7H18.875C20.2557 7 21.375 8.11929 21.375 9.5V9.8125C21.375 10.7379 20.8723 11.5458 20.125 11.978M11.0625 7V12.3125M11.0625 22.625H4.5C3.11929 22.625 2 21.5057 2 20.125V11.978M11.0625 22.625H17.625C19.0057 22.625 20.125 21.5057 20.125 20.125V11.978M11.0625 22.625V12.3125M11.0625 12.3125H18.875C19.3304 12.3125 19.7573 12.1908 20.125 11.978M11.0625 12.3125H3.25C2.79464 12.3125 2.36772 12.1908 2 11.978M2 11.6875V11.978M20.125 11.978V11.6875" stroke="#393262" stroke-width="1.5" stroke-linejoin="round"/>
</svg>
