<svg width="20" height="16" viewBox="0 0 20 16" fill="none" xmlns="http://www.w3.org/2000/svg">
<path d="M1.84202 15.032L2.18251 14.3638H2.18251L1.84202 15.032ZM0.967987 14.158L1.63624 13.8175L1.63624 13.8175L0.967987 14.158ZM19.032 14.158L18.3638 13.8175V13.8175L19.032 14.158ZM18.158 15.032L18.4985 15.7003V15.7003L18.158 15.032ZM19.032 1.84202L18.3638 2.18251V2.18251L19.032 1.84202ZM18.158 0.967987L18.4985 0.299732L18.4985 0.299732L18.158 0.967987ZM0.967987 1.84202L0.299732 1.50153L0.299732 1.50153L0.967987 1.84202ZM1.84202 0.967987L1.50153 0.299732L1.50153 0.299732L1.84202 0.967987ZM8.73352 7.9638L8.2586 8.54427V8.54427L8.73352 7.9638ZM11.2665 7.9638L11.7414 8.54426L11.2665 7.9638ZM19.25 3.95H18.5V12.05H19.25H20V3.95H19.25ZM16.05 15.25V14.5H3.95V15.25V16H16.05V15.25ZM0.75 12.05H1.5V3.95H0.75H0V12.05H0.75ZM3.95 0.75V1.5H16.05V0.75V0H3.95V0.75ZM3.95 15.25V14.5C3.37757 14.5 2.99336 14.4994 2.69748 14.4752C2.41035 14.4518 2.27307 14.4099 2.18251 14.3638L1.84202 15.032L1.50153 15.7003C1.83879 15.8721 2.19545 15.9392 2.57533 15.9703C2.94646 16.0006 3.40232 16 3.95 16V15.25ZM0.75 12.05H0C0 12.5977 -0.000583291 13.0535 0.0297392 13.4247C0.060777 13.8046 0.127888 14.1612 0.299732 14.4985L0.967987 14.158L1.63624 13.8175C1.5901 13.7269 1.54822 13.5896 1.52476 13.3025C1.50058 13.0066 1.5 12.6224 1.5 12.05H0.75ZM1.84202 15.032L2.18251 14.3638C1.94731 14.2439 1.75608 14.0527 1.63624 13.8175L0.967987 14.158L0.299732 14.4985C0.563384 15.0159 0.984081 15.4366 1.50153 15.7003L1.84202 15.032ZM19.25 12.05H18.5C18.5 12.6224 18.4994 13.0066 18.4752 13.3025C18.4518 13.5896 18.4099 13.7269 18.3638 13.8175L19.032 14.158L19.7003 14.4985C19.8721 14.1612 19.9392 13.8046 19.9703 13.4247C20.0006 13.0535 20 12.5977 20 12.05H19.25ZM16.05 15.25V16C16.5977 16 17.0535 16.0006 17.4247 15.9703C17.8046 15.9392 18.1612 15.8721 18.4985 15.7003L18.158 15.032L17.8175 14.3638C17.7269 14.4099 17.5896 14.4518 17.3025 14.4752C17.0066 14.4994 16.6224 14.5 16.05 14.5V15.25ZM19.032 14.158L18.3638 13.8175C18.2439 14.0527 18.0527 14.2439 17.8175 14.3638L18.158 15.032L18.4985 15.7003C19.0159 15.4366 19.4366 15.0159 19.7003 14.4985L19.032 14.158ZM19.25 3.95H20C20 3.40232 20.0006 2.94646 19.9703 2.57533C19.9392 2.19545 19.8721 1.83879 19.7003 1.50153L19.032 1.84202L18.3638 2.18251C18.4099 2.27307 18.4518 2.41035 18.4752 2.69748C18.4994 2.99336 18.5 3.37757 18.5 3.95H19.25ZM16.05 0.75V1.5C16.6224 1.5 17.0066 1.50058 17.3025 1.52476C17.5896 1.54822 17.7269 1.5901 17.8175 1.63624L18.158 0.967987L18.4985 0.299732C18.1612 0.127888 17.8046 0.060777 17.4247 0.0297392C17.0535 -0.000583291 16.5977 0 16.05 0V0.75ZM19.032 1.84202L19.7003 1.50153C19.4366 0.98408 19.0159 0.563384 18.4985 0.299732L18.158 0.967987L17.8175 1.63624C18.0527 1.75608 18.2439 1.94731 18.3638 2.18251L19.032 1.84202ZM0.75 3.95H1.5C1.5 3.37757 1.50058 2.99336 1.52476 2.69748C1.54822 2.41035 1.5901 2.27307 1.63624 2.18251L0.967987 1.84202L0.299732 1.50153C0.127888 1.83879 0.060777 2.19545 0.0297392 2.57533C-0.000583291 2.94646 0 3.40232 0 3.95H0.75ZM3.95 0.75V0C3.40232 0 2.94646 -0.000583291 2.57533 0.0297392C2.19545 0.060777 1.83879 0.127888 1.50153 0.299732L1.84202 0.967987L2.18251 1.63624C2.27307 1.5901 2.41035 1.54822 2.69748 1.52476C2.99336 1.50058 3.37757 1.5 3.95 1.5V0.75ZM0.967987 1.84202L1.63624 2.18251C1.75608 1.94731 1.94731 1.75608 2.18251 1.63624L1.84202 0.967987L1.50153 0.299732C0.98408 0.563384 0.563384 0.98408 0.299732 1.50153L0.967987 1.84202ZM8.73352 7.9638L9.20845 7.38333L1.47493 1.0559L1 1.63637L0.525072 2.21684L8.2586 8.54427L8.73352 7.9638ZM19 1.63637L18.5251 1.0559L10.7915 7.38333L11.2665 7.9638L11.7414 8.54426L19.4749 2.21684L19 1.63637ZM8.73352 7.9638L8.2586 8.54427C9.2716 9.37309 10.7284 9.37309 11.7414 8.54426L11.2665 7.9638L10.7915 7.38333C10.3311 7.76007 9.66891 7.76007 9.20845 7.38333L8.73352 7.9638Z" fill="#393262"/>
</svg>
