<svg width="16" height="20" viewBox="0 0 16 20" fill="none" xmlns="http://www.w3.org/2000/svg">
<path d="M10.75 8C10.75 9.51878 9.51878 10.75 8 10.75C6.48122 10.75 5.25 9.51878 5.25 8C5.25 6.48122 6.48122 5.25 8 5.25C9.51878 5.25 10.75 6.48122 10.75 8Z" stroke="#393262" stroke-width="1.5" stroke-linejoin="round"/>
<path d="M15.25 8C15.25 12.5547 11.1753 16.6833 9.13538 18.4648C8.47778 19.0392 7.52222 19.0392 6.86462 18.4648C4.82471 16.6833 0.75 12.5547 0.75 8C0.75 3.99594 3.99594 0.75 8 0.75C12.0041 0.75 15.25 3.99594 15.25 8Z" stroke="#393262" stroke-width="1.5" stroke-linejoin="round"/>
</svg>
