<svg width="24" height="24" viewBox="0 0 24 24" fill="none" xmlns="http://www.w3.org/2000/svg">
<path d="M0.75 0.75H2.08333C3.55609 0.75 4.75 1.94391 4.75 3.41667V14.4167M9.08333 18.75H22.75M16.4167 6.75V2.08333M16.4167 2.08333H12.75C11.2772 2.08333 10.0833 3.27724 10.0833 4.75V10.75C10.0833 12.2228 11.2772 13.4167 12.75 13.4167H20.0833C21.5561 13.4167 22.75 12.2228 22.75 10.75V4.75C22.75 3.27724 21.5561 2.08333 20.0833 2.08333H16.4167ZM8.75 18.75C8.75 20.9591 6.95914 22.75 4.75 22.75C2.54086 22.75 0.75 20.9591 0.75 18.75C0.75 16.5409 2.54086 14.75 4.75 14.75C6.95914 14.75 8.75 16.5409 8.75 18.75Z" stroke="#393262" stroke-width="1.5" stroke-linecap="round"/>
</svg>
