<svg width="24" height="24" viewBox="0 0 24 24" fill="none" xmlns="http://www.w3.org/2000/svg">
<path d="M16.0833 22.75V16.75C16.0833 15.2772 14.8894 14.0833 13.4167 14.0833H10.0833C8.61057 14.0833 7.41667 15.2772 7.41667 16.75V22.75M6.25 0.75V5.35M6.25 5.35C6.25 6.86878 5.01878 8.11 3.5 8.11C1.98122 8.11 0.75 6.86878 0.75 5.35M6.25 5.35C6.25 6.86878 7.48122 8.11 9 8.11C10.5188 8.11 11.75 6.86878 11.75 5.35M11.75 0.75V5.35M11.75 5.35C11.75 6.86878 12.9812 8.11 14.5 8.11C16.0188 8.11 17.25 6.86878 17.25 5.35M17.25 0.75V5.35M17.25 5.35C17.25 6.86878 18.4812 8.11 20 8.11C21.5188 8.11 22.75 6.86878 22.75 5.35M0.75 3.41667V20.0833C0.75 21.5561 1.94391 22.75 3.41667 22.75H20.0833C21.5561 22.75 22.75 21.5561 22.75 20.0833V3.41667C22.75 1.94391 21.5561 0.75 20.0833 0.75H3.41667C1.94391 0.75 0.75 1.94391 0.75 3.41667Z" stroke="#393262" stroke-width="1.5" stroke-linecap="round" stroke-linejoin="round"/>
</svg>
