<svg width="25" height="24" viewBox="0 0 25 24" fill="none" xmlns="http://www.w3.org/2000/svg">
<path d="M13.39 22.75H3.41667C1.94391 22.75 0.75 21.5561 0.75 20.0833V3.41667C0.75 1.94391 1.94391 0.75 3.41667 0.75H7.41667M7.41667 0.75H16.0833M7.41667 0.75V6.75C7.41667 7.48638 8.01362 8.08333 8.75 8.08333H14.75C15.4864 8.08333 16.0833 7.48638 16.0833 6.75V0.75M16.0833 0.75H20.0833C21.5561 0.75 22.75 1.94391 22.75 3.41667V9.41667M20.0833 23.0833L17.2549 20.252C15.6928 18.6883 15.6928 16.1531 17.2549 14.5894C18.817 13.0257 21.3497 13.0257 22.9118 14.5894C24.4739 16.1531 24.4739 18.6883 22.9118 20.252L20.0833 23.0833Z" stroke="#393262" stroke-width="1.5" stroke-linecap="round" stroke-linejoin="round"/>
</svg>
