<svg width="19" height="19" viewBox="0 0 19 19" fill="none" xmlns="http://www.w3.org/2000/svg">
<path d="M9.75 5.92157L9.21967 5.39124C9.07902 5.53189 9 5.72266 9 5.92157H9.75ZM9.75 8.92157H9C9 9.33579 9.33579 9.67157 9.75 9.67157V8.92157ZM12.75 8.92157V9.67157C12.9489 9.67157 13.1397 9.59256 13.2803 9.4519L12.75 8.92157ZM14.3358 1.33579L14.8661 1.86612V1.86612L14.3358 1.33579ZM17.1642 1.33579L17.6945 0.805457V0.805456L17.1642 1.33579ZM17.3358 1.50736L16.8055 2.03769V2.03769L17.3358 1.50736ZM17.3358 4.33579L17.8661 4.86612V4.86612L17.3358 4.33579ZM8.25 2.17157C8.66421 2.17157 9 1.83579 9 1.42157C9 1.00736 8.66421 0.671573 8.25 0.671573V1.42157V2.17157ZM18 10.4216C18 10.0074 17.6642 9.67157 17.25 9.67157C16.8358 9.67157 16.5 10.0074 16.5 10.4216H17.25H18ZM1.84202 17.7036L2.18251 17.0353H2.18251L1.84202 17.7036ZM0.967987 16.8296L1.63624 16.4891L1.63624 16.4891L0.967987 16.8296ZM16.158 17.7036L15.8175 17.0353H15.8175L16.158 17.7036ZM17.032 16.8296L16.3638 16.4891L16.3638 16.4891L17.032 16.8296ZM0.967987 2.51359L0.299732 2.1731L0.299732 2.1731L0.967987 2.51359ZM1.84202 1.63956L1.50153 0.971305L1.50153 0.971305L1.84202 1.63956ZM9.75 5.92157H9V8.92157H9.75H10.5V5.92157H9.75ZM9.75 8.92157V9.67157H12.75V8.92157V8.17157H9.75V8.92157ZM9.75 5.92157L10.2803 6.4519L14.8661 1.86612L14.3358 1.33579L13.8055 0.805457L9.21967 5.39124L9.75 5.92157ZM17.1642 1.33579L16.6339 1.86612L16.8055 2.03769L17.3358 1.50736L17.8661 0.977029L17.6945 0.805457L17.1642 1.33579ZM17.3358 4.33579L16.8055 3.80546L12.2197 8.39124L12.75 8.92157L13.2803 9.4519L17.8661 4.86612L17.3358 4.33579ZM17.3358 1.50736L16.8055 2.03769C17.2936 2.52584 17.2936 3.3173 16.8055 3.80546L17.3358 4.33579L17.8661 4.86612C18.9401 3.79217 18.9401 2.05097 17.8661 0.977028L17.3358 1.50736ZM14.3358 1.33579L14.8661 1.86612C15.3543 1.37796 16.1457 1.37796 16.6339 1.86612L17.1642 1.33579L17.6945 0.805456C16.6206 -0.268486 14.8794 -0.268484 13.8055 0.805457L14.3358 1.33579ZM14.05 17.9216V17.1716H3.95V17.9216V18.6716H14.05V17.9216ZM0.75 14.7216H1.5V4.62157H0.75H0V14.7216H0.75ZM3.95 1.42157V2.17157H8.25V1.42157V0.671573H3.95V1.42157ZM17.25 10.4216H16.5V14.7216H17.25H18V10.4216H17.25ZM3.95 17.9216V17.1716C3.37757 17.1716 2.99336 17.171 2.69748 17.1468C2.41035 17.1234 2.27307 17.0815 2.18251 17.0353L1.84202 17.7036L1.50153 18.3718C1.83879 18.5437 2.19545 18.6108 2.57533 18.6418C2.94646 18.6722 3.40232 18.6716 3.95 18.6716V17.9216ZM0.75 14.7216H0C0 15.2692 -0.000583291 15.7251 0.0297392 16.0962C0.060777 16.4761 0.127888 16.8328 0.299732 17.17L0.967987 16.8296L1.63624 16.4891C1.5901 16.3985 1.54822 16.2612 1.52476 15.9741C1.50058 15.6782 1.5 15.294 1.5 14.7216H0.75ZM1.84202 17.7036L2.18251 17.0353C1.94731 16.9155 1.75608 16.7243 1.63624 16.4891L0.967987 16.8296L0.299732 17.17C0.563384 17.6875 0.984081 18.1082 1.50153 18.3718L1.84202 17.7036ZM14.05 17.9216V18.6716C14.5977 18.6716 15.0535 18.6722 15.4247 18.6418C15.8046 18.6108 16.1612 18.5437 16.4985 18.3718L16.158 17.7036L15.8175 17.0353C15.7269 17.0815 15.5896 17.1234 15.3025 17.1468C15.0066 17.171 14.6224 17.1716 14.05 17.1716V17.9216ZM17.25 14.7216H16.5C16.5 15.294 16.4994 15.6782 16.4752 15.9741C16.4518 16.2612 16.4099 16.3985 16.3638 16.4891L17.032 16.8296L17.7003 17.17C17.8721 16.8328 17.9392 16.4761 17.9703 16.0962C18.0006 15.7251 18 15.2692 18 14.7216H17.25ZM16.158 17.7036L16.4985 18.3718C17.0159 18.1082 17.4366 17.6875 17.7003 17.17L17.032 16.8296L16.3638 16.4891C16.2439 16.7243 16.0527 16.9155 15.8175 17.0353L16.158 17.7036ZM0.75 4.62157H1.5C1.5 4.04914 1.50058 3.66493 1.52476 3.36905C1.54822 3.08193 1.5901 2.94465 1.63624 2.85408L0.967987 2.51359L0.299732 2.1731C0.127888 2.51036 0.060777 2.86702 0.0297392 3.2469C-0.000583291 3.61803 0 4.0739 0 4.62157H0.75ZM3.95 1.42157V0.671573C3.40232 0.671573 2.94646 0.670989 2.57533 0.701312C2.19545 0.73235 1.83879 0.799461 1.50153 0.971305L1.84202 1.63956L2.18251 2.30781C2.27307 2.26167 2.41035 2.21979 2.69748 2.19633C2.99336 2.17216 3.37757 2.17157 3.95 2.17157V1.42157ZM0.967987 2.51359L1.63624 2.85408C1.75608 2.61888 1.94731 2.42766 2.18251 2.30781L1.84202 1.63956L1.50153 0.971305C0.98408 1.23496 0.563384 1.65565 0.299732 2.1731L0.967987 2.51359Z" fill="#393262"/>
</svg>
