<svg width="24" height="24" viewBox="0 0 24 24" fill="none" xmlns="http://www.w3.org/2000/svg">
<path d="M20.7144 10.2134C18.9347 10.2134 17.2871 9.64796 15.9415 8.68698V15.6726C15.9415 19.1671 13.1073 22 9.61104 22C8.30654 22 7.09406 21.6058 6.08686 20.9298C4.39451 19.7941 3.28027 17.863 3.28027 15.6726C3.28027 12.1783 6.11463 9.34543 9.61113 9.3455C9.9017 9.34536 10.1919 9.36509 10.4798 9.40441V10.18L10.4796 12.904C10.2025 12.8161 9.90718 12.7684 9.60074 12.7684C8.00131 12.7684 6.70497 14.0643 6.70497 15.6627C6.70497 16.7928 7.35296 17.7714 8.29789 18.2481C8.68969 18.4456 9.13218 18.5569 9.60077 18.5569C11.1969 18.5569 12.491 17.2663 12.4965 15.6726V2H15.9415V2.44029C15.9536 2.57192 15.9712 2.70305 15.994 2.83332C16.2331 4.19637 17.0485 5.36094 18.1803 6.06685C18.9403 6.54103 19.8186 6.79171 20.7144 6.79035L20.7144 10.2134Z" fill="#393262"/>
</svg>
