<svg width="24" height="24" viewBox="0 0 24 24" fill="none" xmlns="http://www.w3.org/2000/svg">
<path d="M1.75 3.75H3.04456C4.02715 3.75 4.8642 4.46377 5.01944 5.43402L5.23 6.75M5.23 6.75L6.48056 14.566C6.6358 15.5362 7.47285 16.25 8.45544 16.25H17.041C18.0252 16.25 18.863 15.534 19.0165 14.5619L20.0675 7.90596C20.1633 7.299 19.6942 6.75 19.0797 6.75H5.23Z" stroke="#323232" stroke-width="1.5" stroke-linecap="round" stroke-linejoin="round"/>
<path d="M8.25 18.625C8.87132 18.625 9.375 19.1287 9.375 19.75C9.375 20.3713 8.87132 20.875 8.25 20.875C7.62868 20.875 7.125 20.3713 7.125 19.75C7.125 19.1287 7.62868 18.625 8.25 18.625ZM17.25 18.625C17.8713 18.625 18.375 19.1287 18.375 19.75C18.375 20.3713 17.8713 20.875 17.25 20.875C16.6287 20.875 16.125 20.3713 16.125 19.75C16.125 19.1287 16.6287 18.625 17.25 18.625Z" fill="#323232" stroke="#323232" stroke-width="0.25" stroke-linecap="round" stroke-linejoin="round"/>
</svg>
