<svg width="24" height="24" viewBox="0 0 24 24" fill="none" xmlns="http://www.w3.org/2000/svg">
<path d="M10.6411 4.34267C10.2307 4.3988 9.94356 4.77699 9.99969 5.18738C10.0558 5.59778 10.434 5.88496 10.8444 5.82883L10.7428 5.08575L10.6411 4.34267ZM21.7559 11.5438L22.4117 11.18V11.18L21.7559 11.5438ZM19.7139 14.1758C19.4557 14.4997 19.5089 14.9716 19.8328 15.2298C20.1567 15.488 20.6286 15.4347 20.8868 15.1108L20.3003 14.6433L19.7139 14.1758ZM21.756 12.4558L21.1002 12.092L21.1002 12.092L21.756 12.4558ZM3.53061 2.46967C3.23772 2.17678 2.76284 2.17678 2.46995 2.46967C2.17706 2.76256 2.17706 3.23744 2.46995 3.53033L3.00028 3L3.53061 2.46967ZM14.1216 14.1213L14.6519 13.591V13.591L14.1216 14.1213ZM20.4699 21.5303C20.7628 21.8232 21.2377 21.8232 21.5306 21.5303C21.8235 21.2374 21.8235 20.7626 21.5306 20.4697L21.0003 21L20.4699 21.5303ZM2.24457 11.5441L2.90038 11.9079L2.24457 11.5441ZM7.05315 7.27164C7.40016 7.04547 7.49813 6.58081 7.27196 6.2338C7.0458 5.88678 6.58114 5.78881 6.23412 6.01498L6.64363 6.64331L7.05315 7.27164ZM2.24545 12.4576L1.58968 12.8215H1.58968L2.24545 12.4576ZM17.7664 17.9849C18.1135 17.7588 18.2114 17.2941 17.9853 16.9471C17.7591 16.6001 17.2944 16.5021 16.9474 16.7283L17.3569 17.3566L17.7664 17.9849ZM10.7428 5.08575L10.8444 5.82883C14.5496 5.32205 18.5223 7.26186 21.1001 11.9077L21.7559 11.5438L22.4117 11.18C19.5941 6.10191 15.0741 3.73634 10.6411 4.34267L10.7428 5.08575ZM20.3003 14.6433L20.8868 15.1108C21.4363 14.4215 21.947 13.6574 22.4118 12.8197L21.756 12.4558L21.1002 12.092C20.6739 12.8604 20.209 13.5547 19.7139 14.1758L20.3003 14.6433ZM21.7559 11.5438L21.1001 11.9077C21.132 11.9652 21.1319 12.0348 21.1002 12.092L21.756 12.4558L22.4118 12.8197C22.6949 12.3096 22.6946 11.6898 22.4117 11.18L21.7559 11.5438ZM12.0003 15V14.25C10.7576 14.25 9.75028 13.2426 9.75028 12H9.00028H8.25028C8.25028 14.0711 9.92921 15.75 12.0003 15.75V15ZM3.00028 3L2.46995 3.53033L9.34863 10.409L9.87896 9.87868L10.4093 9.34835L3.53061 2.46967L3.00028 3ZM9.00028 12H9.75028C9.75028 11.3785 10.0013 10.817 10.4093 10.409L9.87896 9.87868L9.34863 9.34835C8.67084 10.0261 8.25028 10.9647 8.25028 12H9.00028ZM9.87896 9.87868L9.34863 10.409L13.5913 14.6517L14.1216 14.1213L14.6519 13.591L10.4093 9.34835L9.87896 9.87868ZM14.1216 14.1213L13.5913 14.6517L20.4699 21.5303L21.0003 21L21.5306 20.4697L14.6519 13.591L14.1216 14.1213ZM14.1216 14.1213L13.5913 13.591C13.1833 13.999 12.6218 14.25 12.0003 14.25V15V15.75C13.0356 15.75 13.9741 15.3294 14.6519 14.6517L14.1216 14.1213ZM3.00028 3L2.46995 3.53033L20.4699 21.5303L21.0003 21L21.5306 20.4697L3.53061 2.46967L3.00028 3ZM2.24457 11.5441L2.90038 11.9079C4.0559 9.82538 5.49386 8.2879 7.05315 7.27164L6.64363 6.64331L6.23412 6.01498C4.44647 7.18008 2.84851 8.90977 1.58876 11.1802L2.24457 11.5441ZM2.24545 12.4576L1.58968 12.8215C3.48536 16.2372 6.14847 18.4289 9.05826 19.3108C11.9726 20.194 15.0706 19.7419 17.7664 17.9849L17.3569 17.3566L16.9474 16.7283C14.6083 18.2528 11.9675 18.625 9.4933 17.8752C7.01455 17.124 4.6394 15.2255 2.90123 12.0936L2.24545 12.4576ZM2.24457 11.5441L1.58876 11.1802C1.30503 11.6915 1.30737 12.3128 1.58968 12.8215L2.24545 12.4576L2.90123 12.0936C2.86869 12.035 2.86932 11.9639 2.90038 11.9079L2.24457 11.5441Z" fill="#323232"/>
</svg>
