<svg width="37" height="35" viewBox="0 0 37 35" fill="none" xmlns="http://www.w3.org/2000/svg">
<path d="M17 33H5C2.79086 33 1 31.2091 1 29V5C1 2.79086 2.79086 1 5 1H29C31.2091 1 33 2.79086 33 5V11M11 1V9C11 10.1046 11.8954 11 13 11H21C22.1046 11 23 10.1046 23 9V1M29.4854 33.9706L25.2427 29.7279C22.8996 27.3848 22.8996 23.5858 25.2427 21.2426C27.5859 18.8995 31.3848 18.8995 33.728 21.2426C36.0711 23.5858 36.0711 27.3848 33.728 29.7279L29.4854 33.9706Z" stroke="#393262" stroke-width="2" stroke-linecap="round" stroke-linejoin="round"/>
</svg>
