<svg width="34" height="34" viewBox="0 0 34 34" fill="none" xmlns="http://www.w3.org/2000/svg">
<path d="M23 33V25C23 22.7909 21.2091 21 19 21H15C12.7909 21 11 22.7909 11 25V33M9 1V7M9 7C9 9.20914 7.20914 11 5 11C2.79086 11 1 9.20914 1 7M9 7C9 9.20914 10.7909 11 13 11C15.2091 11 17 9.20914 17 7M17 1V7M17 7C17 9.20914 18.7909 11 21 11C23.2091 11 25 9.20914 25 7M25 1V7M25 7C25 9.20914 26.7909 11 29 11C31.2091 11 33 9.20914 33 7M1 5V29C1 31.2091 2.79086 33 5 33H29C31.2091 33 33 31.2091 33 29V5C33 2.79086 31.2091 1 29 1H5C2.79086 1 1 2.79086 1 5Z" stroke="#393262" stroke-width="2" stroke-linecap="round" stroke-linejoin="round"/>
</svg>
