<svg width="20" height="20" viewBox="0 0 20 20" fill="none" xmlns="http://www.w3.org/2000/svg">
<path d="M0.75 8.96908V2.70423C0.75 1.62494 1.62494 0.75 2.70423 0.75H8.96908C9.48737 0.75 9.98444 0.955892 10.3509 1.32238L18.1776 9.14907C18.9408 9.91225 18.9408 11.1496 18.1776 11.9128L11.9128 18.1776C11.1496 18.9408 9.91225 18.9408 9.14907 18.1776L1.32238 10.3509C0.955892 9.98444 0.75 9.48737 0.75 8.96908Z" stroke="#393262" stroke-width="1.5" stroke-linejoin="round"/>
<path d="M6.12413 5.3913C6.12413 5.79603 5.79603 6.12413 5.3913 6.12413C4.98656 6.12413 4.65846 5.79603 4.65846 5.3913C4.65846 4.98656 4.98656 4.65846 5.3913 4.65846C5.79603 4.65846 6.12413 4.98656 6.12413 5.3913Z" stroke="#393262" stroke-width="1.5" stroke-linejoin="round"/>
</svg>
