<svg width="14" height="15" viewBox="0 0 14 15" fill="none" xmlns="http://www.w3.org/2000/svg">
<path d="M6.61366 0.21967C6.32077 -0.0732233 5.8459 -0.0732233 5.553 0.21967C5.26011 0.512563 5.26011 0.987437 5.553 1.28033L6.08333 0.75L6.61366 0.21967ZM8.08333 2.75L8.61366 3.28033C8.90656 2.98744 8.90656 2.51256 8.61366 2.21967L8.08333 2.75ZM5.553 4.21967C5.26011 4.51256 5.26011 4.98744 5.553 5.28033C5.8459 5.57322 6.32077 5.57322 6.61366 5.28033L6.08333 4.75L5.553 4.21967ZM7.947 10.6137C8.23989 10.3208 8.23989 9.8459 7.947 9.553C7.6541 9.26011 7.17923 9.26011 6.88634 9.553L7.41667 10.0833L7.947 10.6137ZM5.41667 12.0833L4.88634 11.553C4.59344 11.8459 4.59344 12.3208 4.88634 12.6137L5.41667 12.0833ZM6.88634 14.6137C7.17923 14.9066 7.6541 14.9066 7.947 14.6137C8.23989 14.3208 8.23989 13.8459 7.947 13.553L7.41667 14.0833L6.88634 14.6137ZM11.9523 3.62575C11.6624 3.3299 11.1876 3.32509 10.8917 3.615C10.5959 3.9049 10.5911 4.37975 10.881 4.6756L11.4167 4.15068L11.9523 3.62575ZM7.41667 3.5C7.83088 3.5 8.16667 3.16421 8.16667 2.75C8.16667 2.33579 7.83088 2 7.41667 2V2.75V3.5ZM1.54765 11.2076C1.83756 11.5034 2.31241 11.5082 2.60826 11.2183C2.90411 10.9284 2.90892 10.4536 2.61901 10.1577L2.08333 10.6827L1.54765 11.2076ZM6.08333 0.75L5.553 1.28033L7.553 3.28033L8.08333 2.75L8.61366 2.21967L6.61366 0.21967L6.08333 0.75ZM8.08333 2.75L7.553 2.21967L5.553 4.21967L6.08333 4.75L6.61366 5.28033L8.61366 3.28033L8.08333 2.75ZM7.41667 10.0833L6.88634 9.553L4.88634 11.553L5.41667 12.0833L5.947 12.6137L7.947 10.6137L7.41667 10.0833ZM5.41667 12.0833L4.88634 12.6137L6.88634 14.6137L7.41667 14.0833L7.947 13.553L5.947 11.553L5.41667 12.0833ZM8.08333 12.0833V11.3333H6.08333V12.0833V12.8333H8.08333V12.0833ZM12.75 7.41666H12C12 9.57978 10.2464 11.3333 8.08333 11.3333V12.0833V12.8333C11.0749 12.8333 13.5 10.4082 13.5 7.41666H12.75ZM12.75 7.41666H13.5C13.5 5.94103 12.9089 4.60195 11.9523 3.62575L11.4167 4.15068L10.881 4.6756C11.574 5.38279 12 6.34922 12 7.41666H12.75ZM5.41667 2.75V3.5H7.41667V2.75V2H5.41667V2.75ZM0.75 7.41667H1.5C1.5 5.25355 3.25355 3.5 5.41667 3.5V2.75V2C2.42512 2 0 4.42512 0 7.41667H0.75ZM0.75 7.41667H0C0 8.8923 0.591057 10.2314 1.54765 11.2076L2.08333 10.6827L2.61901 10.1577C1.92603 9.45054 1.5 8.48411 1.5 7.41667H0.75Z" fill="#6C6C6C"/>
</svg>
