<svg width="22" height="21" viewBox="0 0 22 21" fill="none" xmlns="http://www.w3.org/2000/svg">
<path d="M10.5362 0.248386C10.7291 -0.082748 11.2074 -0.0827476 11.4003 0.248386L14.7368 5.97669C14.8074 6.09799 14.9258 6.184 15.063 6.21371L21.5419 7.6167C21.9165 7.69781 22.0643 8.15277 21.809 8.43852L17.392 13.3818C17.2985 13.4865 17.2533 13.6257 17.2674 13.7653L17.9352 20.3607C17.9738 20.742 17.5868 21.0232 17.2361 20.8686L11.1699 18.1954C11.0414 18.1388 10.8951 18.1388 10.7666 18.1954L4.7004 20.8686C4.34973 21.0232 3.96271 20.742 4.00131 20.3607L4.66909 13.7653C4.68323 13.6257 4.63801 13.4865 4.54448 13.3818L0.127559 8.43852C-0.127768 8.15277 0.0200585 7.69781 0.394585 7.6167L6.87354 6.21371C7.01073 6.184 7.12912 6.09799 7.19977 5.97669L10.5362 0.248386Z" fill="#FFC107"/>
</svg>
