<svg width="8" height="17" viewBox="0 0 8 17" fill="none" xmlns="http://www.w3.org/2000/svg">
<path d="M1.06387 1.30351C1.00129 1.24093 0.933495 1.19399 0.860484 1.1627C0.787473 1.13141 0.709247 1.11577 0.625806 1.11577C0.542366 1.11577 0.46414 1.13141 0.391129 1.1627C0.318118 1.19399 0.250323 1.24093 0.187742 1.30351C0.125161 1.36609 0.0782258 1.43389 0.0469355 1.5069C0.0156452 1.57991 0 1.65813 0 1.74157C0 1.82502 0.0156452 1.90324 0.0469355 1.97625C0.0782258 2.04926 0.125161 2.11706 0.187742 2.17964L6.24242 8.24996L0.187742 14.3203C0.125161 14.3829 0.0782258 14.4507 0.0469355 14.5237C0.0156452 14.5967 0 14.6749 0 14.7583C0 14.8418 0.0156452 14.92 0.0469355 14.993C0.0782258 15.066 0.125161 15.1338 0.187742 15.1964C0.250323 15.259 0.318118 15.3059 0.391129 15.3372C0.46414 15.3685 0.542366 15.3842 0.625806 15.3842C0.709247 15.3842 0.787473 15.3685 0.860484 15.3372C0.933495 15.3059 1.00129 15.259 1.06387 15.1964L7.57226 8.68803C7.63484 8.62545 7.68177 8.55765 7.71306 8.48464C7.74435 8.41163 7.76 8.3334 7.76 8.24996C7.76 8.16652 7.74435 8.08829 7.71306 8.01528C7.68177 7.94227 7.63484 7.87448 7.57226 7.8119L1.06387 1.30351Z" fill="#323232"/>
</svg>
