<svg width="8" height="15" viewBox="0 0 8 15" fill="none" xmlns="http://www.w3.org/2000/svg">
<path d="M6.69614 14.0806C6.75872 14.1432 6.82651 14.1902 6.89952 14.2215C6.97254 14.2527 7.05076 14.2684 7.1342 14.2684C7.21764 14.2684 7.29587 14.2527 7.36888 14.2215C7.44189 14.1902 7.50969 14.1432 7.57227 14.0806C7.63485 14.0181 7.68178 13.9503 7.71307 13.8773C7.74436 13.8042 7.76001 13.726 7.76001 13.6426C7.76001 13.5591 7.74436 13.4809 7.71307 13.4079C7.68178 13.3349 7.63485 13.2671 7.57227 13.2045L1.51759 7.13419L7.57227 1.06387C7.63485 1.00129 7.68178 0.933495 7.71307 0.860484C7.74436 0.787473 7.76001 0.709247 7.76001 0.625806C7.76001 0.542366 7.74436 0.46414 7.71307 0.391129C7.68178 0.318118 7.63485 0.250323 7.57227 0.187742C7.50969 0.125161 7.44189 0.0782258 7.36888 0.0469354C7.29587 0.0156451 7.21764 -4.74151e-08 7.1342 -5.47097e-08C7.05076 -6.20044e-08 6.97254 0.0156451 6.89953 0.0469354C6.82652 0.0782257 6.75872 0.125161 6.69614 0.187742L0.187751 6.69613C0.125171 6.75871 0.078235 6.8265 0.0469445 6.89952C0.0156544 6.97253 8.92035e-06 7.05075 8.91305e-06 7.13419C8.90576e-06 7.21763 0.0156544 7.29586 0.0469445 7.36887C0.078235 7.44188 0.125171 7.50968 0.187751 7.57226L6.69614 14.0806Z" fill="#323232"/>
</svg>
