<svg width="24" height="24" viewBox="0 0 24 24" fill="none" xmlns="http://www.w3.org/2000/svg">
<path d="M5.62928 19.3788L6.37772 19.3305L5.62928 19.3788ZM18.3707 19.3788L17.6223 19.3305V19.3305L18.3707 19.3788ZM2.75 5C2.33579 5 2 5.33579 2 5.75C2 6.16421 2.33579 6.5 2.75 6.5V5.75V5ZM21.25 6.5C21.6642 6.5 22 6.16421 22 5.75C22 5.33579 21.6642 5 21.25 5V5.75V6.5ZM15.1477 5.93694C15.2509 6.33808 15.6598 6.57957 16.0609 6.47633C16.4621 6.37308 16.7036 5.9642 16.6003 5.56306L15.874 5.75L15.1477 5.93694ZM4.75 5.75L4.00156 5.79829L4.88083 19.4271L5.62928 19.3788L6.37772 19.3305L5.49844 5.70171L4.75 5.75ZM7.62513 21.25V22H16.3749V21.25V20.5H7.62513V21.25ZM18.3707 19.3788L19.1192 19.4271L19.9984 5.79829L19.25 5.75L18.5016 5.70171L17.6223 19.3305L18.3707 19.3788ZM19.25 5.75V5H4.75V5.75V6.5H19.25V5.75ZM2.75 5.75V6.5H4.75V5.75V5H2.75V5.75ZM19.25 5.75V6.5H21.25V5.75V5H19.25V5.75ZM16.3749 21.25V22C17.8249 22 19.0258 20.8741 19.1192 19.4271L18.3707 19.3788L17.6223 19.3305C17.5798 19.9882 17.034 20.5 16.3749 20.5V21.25ZM5.62928 19.3788L4.88083 19.4271C4.97419 20.8741 6.17508 22 7.62513 22V21.25V20.5C6.96601 20.5 6.42015 19.9882 6.37772 19.3305L5.62928 19.3788ZM12 2.75V3.5C13.5134 3.5 14.7868 4.53504 15.1477 5.93694L15.874 5.75L16.6003 5.56306C16.0731 3.51451 14.2144 2 12 2V2.75ZM8.12604 5.75L8.85237 5.93694C9.21319 4.53504 10.4867 3.5 12 3.5V2.75V2C9.78568 2 7.92697 3.51451 7.39971 5.56306L8.12604 5.75Z" fill="#323232"/>
</svg>
