<svg width="57" height="20" viewBox="0 0 57 20" fill="none" xmlns="http://www.w3.org/2000/svg">
<path d="M18.326 5.88867L18.3674 5.90087C18.4713 6.04965 18.0733 8.07534 18.0158 8.35475C17.6634 10.0418 17.232 11.7116 16.7231 13.3587C16.6 13.7521 16.4031 14.4638 16.1699 14.7689C15.8483 14.8905 15.5644 15.0646 15.2145 15.1436C14.2023 15.3722 13.2459 15.4625 12.2166 15.5375C10.6069 15.6476 8.99332 15.693 7.37992 15.6736C6.84727 15.6703 5.47268 15.662 4.98523 15.5862C4.92199 15.5842 4.87448 15.5836 4.82063 15.5455C4.79797 15.5295 4.78745 15.4906 4.78342 15.464C4.6896 14.8464 5.4434 12.3492 5.73104 11.6664C5.89564 11.2756 6.08515 10.9219 6.34212 10.583C7.55635 8.9815 12.8997 7.39061 14.9558 6.77099C15.7195 6.53586 16.4896 6.32184 17.2652 6.12917C17.5881 6.04845 18.0027 5.93334 18.326 5.88867Z" fill="#00B0B7"/>
<path d="M11.5494 4.98072C11.9709 4.93783 12.7452 4.98543 13.189 4.98832C14.8544 4.99916 16.6531 5.03103 18.3054 5.24223C17.9072 5.37143 17.5284 5.42368 17.1314 5.5214C16.5824 5.65654 16.0104 5.78347 15.4658 5.92971C13.3834 6.47618 11.3229 7.10163 9.2886 7.80459L8.06346 8.20584C7.46688 8.40399 6.76003 8.73015 6.13236 8.50534C5.09398 8.13345 3.82152 6.52371 3.33594 5.58258C4.26787 5.10212 8.64932 5.05174 9.93594 4.99782C10.3762 4.97938 11.0726 5.01909 11.5494 4.98072Z" fill="#00677F"/>
<path d="M2.89621 6.19727C3.03882 6.34551 3.28848 6.68814 3.40971 6.86119C4.3145 8.15256 5.10315 9.49309 4.90635 11.1342C4.82686 11.7971 4.65645 12.5244 4.50407 13.177C4.33343 13.9407 4.18275 14.7086 4.0521 15.48C3.7821 15.4763 3.57584 15.4435 3.31002 15.4058C2.72735 15.2615 1.31838 14.9642 1.19535 14.2715C1.10442 13.7596 1.18276 12.8977 1.25474 12.3702C1.50694 10.5222 1.91223 7.78114 2.89621 6.19727Z" fill="#00677F"/>
<path d="M36.9552 5.19319C37.6858 5.21749 39.3366 5.08963 39.9383 5.32297C40.2661 5.45016 40.5392 5.6806 40.6808 6.00637C40.8501 6.39595 40.8225 6.93155 40.6669 7.32179C40.4543 7.85534 40.0282 8.21706 39.508 8.44112C40.0708 9.18389 40.7009 9.91722 41.2748 10.6692C40.756 10.6604 40.2355 10.6731 39.7134 10.6623C39.6346 10.5966 39.5433 10.4826 39.4743 10.4022C39.0563 9.84198 38.4983 9.19457 38.0496 8.63252C37.8701 8.62312 37.7201 8.62934 37.5408 8.6362C37.4905 8.82248 37.4562 9.08187 37.4095 9.27977C37.2998 9.74522 37.1915 10.204 37.1055 10.6749C36.6374 10.6594 36.1548 10.6673 35.6855 10.6695C35.8637 9.98536 36.014 9.25758 36.1712 8.56464L36.7446 6.12038C36.7805 5.966 36.9118 5.26359 36.9552 5.19319ZM37.8233 7.47479C38.1776 7.47985 38.7117 7.52392 39.0243 7.37493C39.4504 7.08085 39.5993 6.47841 38.9586 6.37241C38.678 6.32599 38.3674 6.36815 38.0836 6.3492C38.0184 6.64513 37.8617 7.2131 37.8233 7.47479Z" fill="#00677F"/>
<path d="M22.8096 5.1975C24.0888 5.21749 25.533 5.22224 26.8088 5.19043C26.7143 5.59076 26.6183 6.01049 26.51 6.406C25.6322 6.39811 24.7544 6.39645 23.8765 6.40099L23.6522 7.39704C24.4537 7.36445 25.2994 7.4042 26.1165 7.37593C26.0254 7.72995 25.9436 8.14301 25.863 8.50387L24.3469 8.49731C24.0775 8.49648 23.6789 8.48431 23.4237 8.51167C23.373 8.54868 23.361 8.66124 23.3429 8.7351C23.2622 9.02141 23.2187 9.20005 23.1664 9.49549C23.8636 9.49679 25.2196 9.53598 25.8547 9.47775C25.7783 9.88677 25.6693 10.2286 25.6024 10.6692C24.2421 10.6493 22.8536 10.6707 21.4883 10.6633C21.668 10.0768 21.778 9.38561 21.9255 8.78193C22.1648 7.8019 22.3827 6.81366 22.6084 5.83044C22.6446 5.67255 22.6844 5.28402 22.8096 5.1975Z" fill="#00677F"/>
<path d="M42.5596 5.19126C43.36 5.22941 44.1922 5.18954 44.9957 5.20298C45.5145 5.21167 46.0564 5.20603 46.5746 5.18945C46.5307 5.55403 46.4043 6.04966 46.2958 6.40582C45.4168 6.39686 44.5379 6.39506 43.6592 6.40043C43.5735 6.71719 43.5117 7.06961 43.4483 7.39351C44.2668 7.38015 45.102 7.38699 45.9217 7.38591C45.8176 7.69318 45.7129 8.18439 45.6353 8.50632C45.1864 8.49268 44.696 8.50491 44.2437 8.49993C43.9734 8.49694 43.4577 8.48336 43.2167 8.51429C43.1477 8.58707 43.1613 8.6087 43.1343 8.72079C43.0683 8.97902 43.0091 9.23885 42.9562 9.50001C43.554 9.47285 44.2131 9.51293 44.8165 9.49761C45.0725 9.49114 45.392 9.51291 45.637 9.47299C45.5771 9.86959 45.4602 10.2897 45.3567 10.679C44.9384 10.6483 44.3392 10.6659 43.903 10.6657L41.2832 10.6661C41.3915 10.3803 41.3853 10.1817 41.4563 9.90593C41.8574 8.34834 42.1399 6.74184 42.5596 5.19126Z" fill="#00677F"/>
<path d="M48.6966 5.11363C49.8343 5.01208 50.9983 5.4145 51.1447 6.68048C50.6796 6.79721 50.2056 6.84316 49.7884 6.9527C49.72 6.77198 49.6621 6.59685 49.5165 6.45284C48.784 5.72794 47.4533 6.80142 48.8416 7.24689C49.6501 7.50631 50.5942 7.78703 50.6139 8.81362C50.6395 10.1476 49.5928 10.7499 48.3648 10.7832C47.2941 10.7903 45.9924 10.3193 45.9688 9.07342C46.4191 9.02565 46.9401 8.88534 47.4135 8.81492C47.4733 9.08028 47.4806 9.18562 47.7266 9.4124C48.1126 9.76153 49.1049 9.69956 49.1007 9.04645C49.0545 8.67843 48.406 8.5457 48.1433 8.4519C47.5708 8.25373 46.8199 7.95345 46.7408 7.25931C46.5833 5.87728 47.4422 5.27006 48.6966 5.11363Z" fill="#00677F"/>
<path d="M53.509 5.11305C54.0078 5.04346 54.8024 5.15194 55.2202 5.45461C55.6891 5.7942 55.8739 6.12376 55.9802 6.67228C55.5199 6.78941 55.0523 6.87724 54.5806 6.93516C54.5205 6.72448 54.4879 6.60191 54.3248 6.43892C54.0746 6.16426 53.4567 6.11466 53.1995 6.39552C52.9978 6.6369 52.9889 6.94119 53.2947 7.09043C54.1862 7.5291 55.4333 7.5888 55.4331 8.86587C55.4331 10.1647 54.3649 10.7534 53.1828 10.7842C51.9927 10.8101 50.9463 10.3463 50.7695 9.0834C51.231 9.01549 51.7442 8.89403 52.219 8.81245C52.2599 8.93497 52.3089 9.10042 52.3735 9.21049C52.6621 9.70155 53.2989 9.7228 53.7545 9.44811C53.8169 9.34888 53.9549 9.14938 53.9324 9.03522C53.8494 8.61602 53.091 8.5239 52.7556 8.38174C52.4851 8.27912 52.2488 8.17383 52.0111 8.00517C51.3596 7.54274 51.4169 6.4548 51.8661 5.87429C52.2636 5.36029 52.8809 5.19332 53.509 5.11305Z" fill="#00677F"/>
<path d="M26.9759 5.18425L28.474 5.18431C28.6945 5.66877 28.9572 6.37347 29.1256 6.87341C29.5336 6.36157 29.9797 5.80035 30.4203 5.3154C30.6174 5.09854 31.8951 5.18147 32.2542 5.18214C31.6594 5.90998 31.0296 6.61543 30.4253 7.33623C30.2564 7.53773 30.0791 7.75302 29.8918 7.93537C30.152 8.49892 30.3797 9.09441 30.619 9.66799C30.7574 9.99897 30.8765 10.3408 31.0446 10.6577C30.7749 10.6892 29.8422 10.6701 29.5177 10.6707C29.2887 10.1077 29.063 9.5434 28.8409 8.97773C28.3557 9.5107 27.8595 10.1126 27.3849 10.6626C26.8414 10.6844 26.162 10.6652 25.6133 10.6587C25.8239 10.5389 27.7618 8.24406 28.0398 7.92295C27.6933 7.05963 27.3412 6.02136 26.9759 5.18425Z" fill="#00677F"/>
<path d="M32.4845 5.19238C33.1143 5.20992 33.7464 5.19267 34.3765 5.19689C34.6495 5.19872 34.9034 5.183 35.1733 5.23653C36.588 5.5249 36.5822 7.21177 35.6668 8.03658C34.8254 8.79492 34.0458 8.55899 33.03 8.6407C32.8619 9.27243 32.7709 10.001 32.5841 10.6752C32.1563 10.6525 31.6189 10.664 31.1875 10.6628C31.3061 10.2959 31.3598 9.90986 31.4513 9.53205L32.2034 6.29675C32.2615 6.04718 32.3726 5.38449 32.4845 5.19238ZM33.2894 7.45564C33.6381 7.50319 34.2176 7.5144 34.5357 7.36643C34.9927 6.99678 35.104 6.45664 34.3826 6.36333C34.1168 6.32895 33.8232 6.36496 33.5541 6.34809C33.4775 6.73039 33.4077 7.08195 33.2894 7.45564Z" fill="#00677F"/>
<path d="M30.0257 12.167L30.4512 12.1695C30.567 12.5561 30.7056 13.1837 30.8028 13.5859L31.289 15.5269C31.0112 15.5056 30.682 15.5055 30.4 15.4986C30.3689 15.3395 30.3332 15.1923 30.2943 15.0351C29.8011 15.0418 29.3076 15.0427 28.8142 15.0377C28.7154 15.1658 28.6744 15.2958 28.5512 15.4127C28.37 15.5843 28.2737 15.5261 28.051 15.5094C27.8854 15.497 27.7086 15.4918 27.541 15.4849C27.5659 15.4523 27.5906 15.4192 27.6135 15.3834C28.299 14.3155 29.0697 13.2728 29.8345 12.2593C29.8871 12.1896 29.9461 12.1875 30.0257 12.167ZM29.2623 14.345C29.3163 14.3417 29.5239 14.3252 29.5637 14.3339C29.7518 14.3331 29.9865 14.3384 30.1704 14.326C30.1295 14.1693 29.9851 13.4499 29.9043 13.3929C29.8231 13.5876 29.4031 14.1783 29.2623 14.345Z" fill="#00B0B7"/>
<path d="M53.2719 12.1411C53.2766 12.1405 53.2814 12.1399 53.2861 12.1394C54.0083 12.057 54.6774 12.3509 54.767 13.1342C54.4628 13.1655 54.2669 13.1996 53.9691 13.2593C53.7796 13.0198 53.7823 12.8213 53.4116 12.8339C52.9137 12.8509 52.9212 13.3248 53.3585 13.4493C53.6643 13.5467 54.1706 13.6368 54.334 13.9525C54.6785 14.6179 54.2892 15.3362 53.5781 15.5139C53.4083 15.5562 53.2727 15.562 53.1097 15.5728C52.5683 15.5727 51.9658 15.4546 51.7142 14.8994C51.6629 14.7863 51.6476 14.7045 51.6652 14.5819C51.7542 14.4853 52.3373 14.4162 52.509 14.3838C52.7451 14.9292 52.8606 14.8911 53.4361 14.7975C53.4595 14.7386 53.5218 14.5801 53.5113 14.5206C53.4503 14.1794 52.6618 14.1768 52.3913 13.9064C52.2346 13.7732 52.0804 13.5732 52.0679 13.3527C52.0261 12.6145 52.6326 12.2045 53.2719 12.1411Z" fill="#00B0B7"/>
<path d="M37.8431 12.1392C38.3839 12.0594 39.0427 12.2559 39.2689 12.7876C39.3112 12.8872 39.3605 13.0006 39.3201 13.1081C39.2556 13.1445 38.6527 13.2346 38.5183 13.2591C38.4607 13.1681 38.3942 13.0223 38.3446 12.9224C37.4938 12.6047 37.3123 13.3404 38.1879 13.5209C38.4273 13.5702 38.7312 13.7705 38.9152 13.9355C38.9711 14.0763 39.0051 14.2247 39.0162 14.3756C39.0774 15.2184 38.4123 15.5312 37.692 15.5744C37.1214 15.5839 36.501 15.4252 36.2622 14.8375C36.2308 14.7606 36.1949 14.6761 36.211 14.5932C36.2878 14.4885 36.9246 14.4214 37.103 14.3856C37.4139 15.4518 38.7808 14.4877 37.663 14.2199C37.2219 14.1143 36.7396 13.8804 36.6694 13.3863C36.6324 13.1173 36.7037 12.8446 36.8676 12.6274C37.1142 12.3063 37.4621 12.1922 37.8431 12.1392Z" fill="#00B0B7"/>
<path d="M21.4479 12.1686C21.8039 12.1625 22.4938 12.123 22.8124 12.1952C24.3454 12.5425 23.4658 14.4263 22.1513 14.2832C22.0237 14.2693 21.7948 14.2594 21.6773 14.2906C21.6596 14.2952 21.645 14.357 21.6378 14.3781C21.538 14.7596 21.4621 15.1327 21.382 15.5188C21.1381 15.4972 20.7779 15.5022 20.5254 15.498C20.5673 15.21 21.2335 12.2926 21.2781 12.2299C21.3159 12.1768 21.3879 12.179 21.4479 12.1686ZM22.5942 13.4964C23.0397 12.8278 22.3989 12.9289 21.9478 12.915C21.9121 13.0907 21.8446 13.3803 21.8292 13.5499C22.0504 13.5476 22.3912 13.5553 22.5942 13.4964Z" fill="#00B0B7"/>
<path d="M44.5451 12.1714C44.8543 12.154 47.1193 12.1279 47.2312 12.2214C47.2251 12.3956 47.1446 12.7475 47.1129 12.9411L46.1162 12.9319C45.9593 13.5666 45.8488 14.1594 45.6776 14.8194C45.6386 14.9536 45.5835 15.3439 45.5498 15.5146C45.2635 15.5048 44.9631 15.5047 44.6754 15.5008C44.8604 14.6407 45.0581 13.7834 45.2687 12.9292C44.9526 12.9448 44.6044 12.9393 44.2852 12.9404C44.3141 12.7235 44.3834 12.49 44.4349 12.2766C44.4552 12.1934 44.4708 12.186 44.5451 12.1714Z" fill="#00B0B7"/>
</svg>
