<svg width="20" height="20" viewBox="0 0 20 20" fill="none" xmlns="http://www.w3.org/2000/svg">
<path d="M3.125 3.125H3.95833C4.87881 3.125 5.625 3.87119 5.625 4.79167V11.6667M8.33333 14.375H16.875M12.9167 6.875V3.95833M12.9167 3.95833H10.625C9.70453 3.95833 8.95833 4.70453 8.95833 5.625V9.375C8.95833 10.2955 9.70453 11.0417 10.625 11.0417H15.2083C16.1288 11.0417 16.875 10.2955 16.875 9.375V5.625C16.875 4.70453 16.1288 3.95833 15.2083 3.95833H12.9167ZM8.125 14.375C8.125 15.7557 7.00571 16.875 5.625 16.875C4.24429 16.875 3.125 15.7557 3.125 14.375C3.125 12.9943 4.24429 11.875 5.625 11.875C7.00571 11.875 8.125 12.9943 8.125 14.375Z" stroke="#393262" stroke-width="1.5" stroke-linecap="round"/>
</svg>
