<svg width="20" height="20" viewBox="0 0 20 20" fill="none" xmlns="http://www.w3.org/2000/svg">
<path d="M9.90746 0.00043639C15.4224 -0.0505519 19.9376 4.37304 19.9994 9.88785C20.0611 15.4027 15.6464 19.9264 10.1318 19.9991C4.60184 20.072 0.0626523 15.6423 0.000642471 10.1121C-0.0613952 4.58195 4.37723 0.0515638 9.90746 0.00043639Z" fill="#BC2E28"/>
<path d="M4.83659 5.73324C5.53796 5.63933 6.48564 5.80769 6.99998 6.32509C7.15472 6.48097 7.29722 6.64415 7.45336 6.80076C7.4567 6.49403 7.47006 6.17429 7.47841 5.86661C8.04535 5.90003 8.9382 5.87098 9.5377 5.87457C9.4979 7.38902 9.48594 8.90406 9.50152 10.419C9.50236 11.1988 9.53687 12.2969 9.44808 13.0409C9.39381 13.4711 9.28276 13.8922 9.11744 14.2931C8.77065 15.1267 8.21151 15.6503 7.36903 16.0011C6.23905 16.4717 4.60475 16.4259 3.41632 16.1876C3.09375 16.1229 2.55325 15.8987 2.23541 15.7659C2.29553 15.5097 2.36288 15.2552 2.43747 15.0027C2.54072 14.6597 2.65818 14.2924 2.69825 13.9381C3.83937 14.6103 5.99663 15.0537 6.8636 13.7275C7.20204 13.21 7.1216 12.6861 7.17114 12.105C6.58695 12.6534 6.155 13.0193 5.32616 13.0991C0.546977 13.5589 0.203642 6.19263 4.83659 5.73324Z" fill="#FEFEFE"/>
<path d="M5.59911 7.43022C6.45828 7.34984 7.13599 8.10228 7.11456 8.9326C7.09619 9.6451 7.2565 10.4139 6.69291 10.9718C6.33805 11.3229 6.04386 11.4079 5.5632 11.4164C3.89885 11.2893 3.58184 9.11005 4.46384 7.98461C4.7622 7.60412 5.13765 7.4735 5.59911 7.43022Z" fill="#BC2E28"/>
<path d="M14.0872 5.73344C15.2358 5.65066 16.306 5.83043 17.2333 6.55298C18.2915 7.37937 18.7616 8.77592 18.5548 10.0863C18.235 12.1113 16.7652 13.1299 14.8239 13.3652C13.756 13.5153 12.3018 13.0865 11.481 12.3888C10.7885 11.8055 10.3588 10.9689 10.2881 10.0663C10.1612 8.46448 10.6753 7.11975 12.1022 6.27758C12.7666 5.88562 13.3307 5.79303 14.0872 5.73344Z" fill="#FEFEFE"/>
<path d="M14.1319 7.39902C15.1277 7.34439 15.7217 7.65739 15.9953 8.68183C16.1776 9.36413 16.1308 10.3171 15.7693 10.9388C15.5244 11.3605 15.1948 11.5529 14.7225 11.6689C14.3045 11.7465 13.8731 11.654 13.5235 11.4118C12.3209 10.5734 12.4386 7.6929 14.1319 7.39902Z" fill="#BC2E28"/>
</svg>
