<svg width="50" height="12" viewBox="0 0 50 12" fill="none" xmlns="http://www.w3.org/2000/svg">
<path d="M48.4849 1.12726C48.6379 1.1153 48.8061 1.11808 48.9608 1.11719C49.0206 2.18203 48.9924 3.38561 48.9924 4.46446L48.9965 9.49908C48.9962 9.67795 49.004 10.3348 48.893 10.4456C48.6813 10.4861 47.8532 10.4443 47.6039 10.4372C47.5602 10.2342 47.5519 9.88757 47.4553 9.72449C47.3311 9.67334 45.5676 11.6295 42.999 9.73125C42.5132 9.30867 41.9733 8.57072 41.8228 7.93546C41.6866 7.36079 41.6905 6.27587 41.8629 5.71685C42.2127 4.58222 43.2995 3.55668 44.4619 3.2948C45.4808 3.04226 46.3972 3.29533 47.2417 3.89592C47.3308 3.95936 47.4356 4.00961 47.5433 3.98118C47.5679 3.86025 47.5563 3.18158 47.5557 3.02839L47.5618 1.15025C47.8266 1.12995 48.2104 1.13264 48.4849 1.12726ZM45.7154 9.1141C46.9478 8.92058 47.7887 7.76005 47.5909 6.52555C47.393 5.29105 46.2323 4.45267 45.0015 4.65553C43.7771 4.85731 42.9462 6.01346 43.1429 7.24136C43.3397 8.46926 44.4899 9.30659 45.7154 9.1141Z" fill="#353639"/>
<path d="M29.2955 3.20311C30.627 3.13793 31.8932 3.89776 32.5924 5.01533C32.8262 5.38929 33.2703 7.01185 33.0523 7.38207C32.9745 7.43793 32.9562 7.4467 32.8469 7.44675C32.5008 7.447 32.1491 7.44065 31.8032 7.43965L29.2587 7.43699C28.6425 7.43732 28.003 7.42063 27.3929 7.48838C27.4297 7.78178 27.5133 8.05012 27.7028 8.28014C28.067 8.71923 28.5589 9.07883 29.1179 9.1412C30.1494 9.25625 30.7042 8.94428 31.3802 8.21304C31.5133 8.06909 31.6959 8.1001 31.8882 8.12643C32.1026 8.16675 32.687 8.27781 32.7825 8.48652C32.7886 8.72197 32.5215 9.04052 32.3721 9.21121C31.6735 10.0145 30.6801 10.5002 29.6181 10.5578C28.736 10.612 27.6887 10.1853 27.0304 9.60051C26.3282 8.98458 25.9032 8.11075 25.852 7.17671C25.7922 6.18715 26.0559 5.22143 26.7208 4.4694C27.3735 3.71634 28.3021 3.25966 29.2955 3.20311ZM29.8766 6.22185C30.3846 6.23594 31.065 6.2695 31.5595 6.23006C31.1898 5.07105 30.4654 4.51419 29.2371 4.58986C29.0467 4.61013 28.9062 4.63565 28.7208 4.67914C28.363 4.76296 27.1464 5.79804 27.5119 6.17702C27.767 6.25274 29.4909 6.22101 29.8766 6.22185Z" fill="#353639"/>
<path d="M11.7402 3.20043C12.4264 3.15588 13.1767 3.40703 13.751 3.7666C14.2716 4.09245 14.8083 4.8926 14.8997 5.50654C15.0202 6.41035 14.9646 7.37967 14.9679 8.29205C14.9695 8.72298 15.0545 10.1161 14.8627 10.3961C14.7177 10.4786 13.7107 10.4434 13.4841 10.4425C13.3863 9.52139 13.4874 8.2989 13.4568 7.35016C13.4438 6.88011 13.4913 6.39354 13.3865 5.93065C13.1394 4.83971 12.1594 4.45856 11.1457 4.67834C10.9857 4.73346 10.8445 4.82504 10.7137 4.93077C10.3954 5.1881 10.0954 5.55591 9.95877 5.94616C9.64851 6.8321 9.90667 9.33517 9.78506 10.4744C9.43888 10.4219 8.56761 10.5041 8.4115 10.4097C8.27793 10.0394 8.32132 8.95319 8.32173 8.49918L8.32613 6.03802L8.32409 4.61047C8.31786 3.37214 8.13184 3.19693 9.51572 3.33719C9.74555 3.36049 9.91013 3.76497 10.0479 3.9564C10.0619 3.93915 10.0762 3.92212 10.0906 3.90528C10.4507 3.48403 11.1934 3.2422 11.7402 3.20043Z" fill="#353639"/>
<path d="M1.68676 3.28516L1.74531 3.30502C1.92956 3.55736 1.72215 7.06109 1.84755 7.61847C1.9688 8.15741 2.16894 8.50846 2.61647 8.82318C3.82186 9.67085 5.32049 8.73474 5.46438 7.36607C5.51313 6.95289 5.50284 6.47899 5.50303 6.01258L5.49813 4.29428C5.49683 4.00491 5.45682 3.58826 5.62046 3.35852C5.74265 3.26591 6.75565 3.32976 6.98291 3.34207C7.04328 3.7671 7.02942 4.35022 7.02881 4.78995L7.02651 6.75352L7.00073 10.4632C6.71617 10.4103 5.94182 10.444 5.60953 10.4488C5.55953 10.2344 5.47055 9.98735 5.39977 9.7752C5.3861 9.78729 5.37232 9.79927 5.35846 9.81114C4.06428 10.9172 2.16581 10.7778 1.03557 9.4947C0.415794 8.78014 0.28367 7.8129 0.334057 6.89916C0.398169 5.73674 0.262005 4.48094 0.352375 3.3307C0.801155 3.32851 1.23934 3.32235 1.68676 3.28516Z" fill="#353639"/>
<path d="M37.4951 3.20084C39.0205 3.15236 40.5612 4.19579 40.6503 5.80678C40.7228 7.21713 40.6459 8.62892 40.6829 10.041C40.6893 10.286 40.6027 10.488 40.3205 10.4593C40.0045 10.427 39.6041 10.5087 39.3083 10.3978C39.1403 10.3347 39.2449 9.70045 39.2181 9.54055C39.2092 8.94359 39.225 8.35045 39.225 7.75404C39.215 6.7465 39.3896 5.39598 38.344 4.81935C37.8741 4.56839 37.2366 4.57045 36.7369 4.73093C36.2076 5.02626 35.8047 5.54379 35.6354 6.12813C35.5095 6.56303 35.5662 7.00889 35.546 7.44953C35.5017 8.41183 35.6384 9.52621 35.4873 10.4656C35.168 10.4278 34.3174 10.5019 34.1448 10.4147C34.0145 10.0122 34.0773 8.92395 34.08 8.44819L34.0922 5.94255C34.0958 5.58542 34.036 3.48039 34.1741 3.33419C34.3484 3.29747 35.1373 3.29922 35.3213 3.36529C35.5189 3.43632 35.6157 3.80518 35.6929 4.0124C36.1666 3.49473 36.8089 3.25742 37.4951 3.20084Z" fill="#353639"/>
<path d="M21.7454 3.19964C22.5222 3.14491 23.1907 3.37116 23.9075 3.63936C24.1746 3.7393 24.3949 3.86644 24.678 3.94296C24.7051 4.21602 24.7944 5.25596 24.6226 5.43042C24.3437 5.36466 24.0868 5.18995 23.8392 5.05043C23.3993 4.80261 22.9453 4.63093 22.4432 4.56483C21.9509 4.50004 21.283 4.51455 20.8765 4.83501C20.7411 4.94168 20.5403 5.16351 20.5291 5.3458C20.4927 5.93727 22.9853 6.31833 23.4815 6.50006C23.9145 6.65863 24.3506 6.89089 24.6481 7.25331C24.9347 7.60271 25.0554 8.18164 25.007 8.62667C24.9535 9.11571 24.6824 9.58866 24.2986 9.89304C23.6159 10.4347 22.5686 10.6329 21.7204 10.5334C20.7555 10.3754 19.7526 10.0879 19.1186 9.30941C19.1095 9.09263 19.0961 8.04939 19.1408 7.89868L19.1794 7.889L19.2019 7.9851C19.2638 8.07075 19.4055 8.06759 19.509 8.12986C20.248 8.57585 20.9716 9.14538 21.8747 9.16616C22.1149 9.17168 22.8131 9.18261 23.0129 9.06781L23.0281 9.05887C23.1748 8.974 23.3163 8.8526 23.4287 8.72532C23.5123 8.63066 23.5774 8.50654 23.5671 8.37676C23.5138 7.7086 21.3968 7.35788 20.8591 7.17923C20.4317 7.03722 19.9915 6.84912 19.6427 6.55731C19.3419 6.30557 19.1645 5.9822 19.1304 5.58826C19.0877 5.09556 19.2687 4.51197 19.5876 4.13523C20.0805 3.55285 21.012 3.26127 21.7454 3.19964Z" fill="#353639"/>
<path d="M18.0299 1.89772C18.445 1.88454 18.7317 1.87048 19.1467 1.93755C19.1963 2.23507 19.2587 2.80774 19.1135 3.06283C18.8863 3.50513 18.3238 3.3185 18.0098 3.39258C17.6438 3.47895 17.7512 4.8406 17.7515 5.14089L17.7523 8.34615C17.7533 8.69116 17.8055 10.1362 17.6759 10.3892C17.6148 10.4491 17.6002 10.4485 17.514 10.4572C17.2289 10.4512 16.5305 10.4657 16.3208 10.3585C16.244 10.3191 16.2837 8.7458 16.2835 8.55196L16.2841 5.5325C16.2842 5.14023 16.2396 3.94683 16.3498 3.55855C16.4273 3.28566 17.31 3.37178 17.5042 3.31045C17.9209 3.1789 17.5674 2.29565 17.7792 1.94897C17.8444 1.88718 17.9377 1.89908 18.0299 1.89772Z" fill="#353639"/>
</svg>
