<svg width="63" height="12" viewBox="0 0 63 12" fill="none" xmlns="http://www.w3.org/2000/svg">
<g clip-path="url(#clip0_6834_1443)">
<path d="M29.8739 6.06094V9.81094H26.9002V6.49594C26.9002 5.44594 26.5416 4.98094 25.7197 4.98094C24.868 4.98094 24.4197 5.50594 24.4197 6.54094V9.81094H21.4609V3.04594H23.5829L24.3449 4.42594C24.868 3.37594 25.7944 2.83594 27.0646 2.83594C28.9026 2.83594 29.8739 3.96094 29.8739 6.06094Z" fill="#9339F2"/>
<path d="M31.0781 0.015625H34.1265V2.20562H31.0781V0.015625ZM31.123 3.04562H34.0966V9.81062H31.123V3.04562Z" fill="#9339F2"/>
<path d="M40.9607 2.85156C39.8698 2.85156 38.9284 3.25656 38.3606 4.06656L37.7927 3.04656H35.4766V12.0016H38.4353V8.98656C39.0629 9.66156 39.8101 10.0216 40.8561 10.0216C42.8734 10.0216 44.2481 8.59656 44.2481 6.37656C44.2481 4.24656 42.9332 2.85156 40.9607 2.85156ZM39.7951 8.14656C38.9284 8.14656 38.3755 7.51656 38.3755 6.54156V6.30156C38.3755 5.26656 38.8985 4.69656 39.7802 4.69656C40.6768 4.69656 41.1699 5.31156 41.1699 6.37656C41.1699 7.47156 40.6618 8.14656 39.7951 8.14656Z" fill="#9339F2"/>
<path d="M49.0431 2.83594C46.6671 2.83594 45.0682 3.76594 44.8739 5.35594H47.8924C47.9522 4.83094 48.3557 4.54594 49.0281 4.54594C49.6557 4.54594 50.0293 4.80094 50.0293 5.32594V5.58094L47.6384 5.80594C46.5476 5.92594 45.8452 6.12094 45.382 6.46594C44.9038 6.81094 44.6797 7.29094 44.6797 7.93594C44.6797 9.22594 45.7257 10.0209 47.4442 10.0209C48.7293 10.0209 49.7753 9.54094 50.1489 8.77594V8.79094L50.7316 9.82594H53.0179V5.79094C53.0329 3.79594 51.8225 2.83594 49.0431 2.83594ZM50.104 7.26094C50.104 7.90594 49.5212 8.35594 48.6545 8.35594C48.0718 8.35594 47.7131 8.10094 47.7131 7.69594C47.7131 7.30594 48.0568 7.06594 48.804 6.96094L50.104 6.81094V7.26094Z" fill="#9339F2"/>
<path d="M58.1746 7.185L57.0987 8.16V9.825H54.125V0H57.0987V5.415L59.385 3.045H62.9414L60.4758 5.415L63.0012 9.825H59.7287L58.1746 7.185Z" fill="#9339F2"/>
<path d="M11.2073 0.015625V9.81062H5.63354L0 0.015625H3.34725L8.20375 8.49062V0.015625H11.2073Z" fill="#9339F2"/>
<path d="M20.5899 6.48109C20.5899 4.21609 19.1703 2.82109 16.6151 2.74609C16.5403 2.74609 16.4656 2.74609 16.3909 2.74609C16.1518 2.74609 15.9127 2.76109 15.7035 2.79109C13.5069 3.01609 12.1172 4.35109 12.1172 6.36109C12.1172 8.59609 14.1793 9.91609 16.5403 9.91609C17.5714 9.91609 18.5427 9.79609 19.6634 8.92609C19.768 8.85109 19.8726 8.76109 19.9772 8.67109L18.9163 6.94609C18.8416 7.03609 18.7519 7.12609 18.6623 7.21609C18.2588 7.62109 17.676 8.02609 16.7944 8.02609C15.853 8.02609 15.0161 7.45609 14.8966 6.78109H20.575L20.5899 6.48109ZM14.9115 5.35609C14.9713 4.62109 15.4794 4.32109 16.3461 4.32109C17.1978 4.32109 17.7059 4.72609 17.7059 5.35609H14.9115Z" fill="#9339F2"/>
</g>
<defs>
<clipPath id="clip0_6834_1443">
<rect width="63" height="12" fill="white"/>
</clipPath>
</defs>
</svg>
