<svg width="27" height="12" viewBox="0 0 27 12" fill="none" xmlns="http://www.w3.org/2000/svg">
<g clip-path="url(#clip0_6834_1431)">
<path d="M17.5287 8.83338C17.0243 8.97738 16.3623 9.04138 15.7792 9.04138C14.2975 9.04138 13.3203 8.24138 13.3203 6.76938C13.3203 5.37738 14.2345 4.48138 15.5743 4.48138C15.8737 4.48138 16.189 4.51338 16.3781 4.62538V2.60938H17.5287V8.83338ZM16.3781 5.64938C16.189 5.56938 15.9525 5.50538 15.6688 5.50538C14.9595 5.50538 14.5024 5.93738 14.5024 6.72138C14.5024 7.55338 15.0068 8.01738 15.8264 8.01738C15.9683 8.01738 16.189 8.00138 16.3781 7.96938V5.64938ZM27.0016 8.83338C26.4972 8.97738 25.8352 9.04138 25.252 9.04138C23.7704 9.04138 22.7932 8.24138 22.7932 6.76938C22.7932 5.37738 23.7074 4.48138 25.0471 4.48138C25.3466 4.48138 25.6618 4.51338 25.851 4.62538V2.60938H27.0016V8.83338ZM25.851 5.64938C25.6618 5.56938 25.4254 5.50538 25.1417 5.50538C24.4324 5.50538 23.9753 5.93738 23.9753 6.72138C23.9753 7.55338 24.4797 8.01738 25.2993 8.01738C25.4412 8.01738 25.6618 8.00138 25.851 7.96938V5.64938ZM19.3413 5.64938C19.5305 5.56938 19.7984 5.53738 20.0348 5.53738C20.7441 5.53738 21.2327 5.95338 21.2327 6.70538C21.2327 7.58538 20.6968 7.98538 19.956 8.00138V9.02538C19.9718 9.02538 19.9876 9.02538 20.0191 9.02538C21.5165 9.02538 22.3991 8.17738 22.3991 6.65738C22.3991 5.28138 21.4534 4.46538 20.0348 4.46538C19.3256 4.46538 18.6163 4.62538 18.1592 4.83338V10.6894H19.3256L19.3413 5.64938Z" fill="#414042"/>
<path d="M7.04553 5.36C6.99825 5.392 6.91944 5.392 6.87215 5.36L6.6042 5.2C6.58844 5.184 6.55692 5.168 6.54116 5.136C6.52539 5.104 6.50963 5.072 6.50963 5.056V4.736C6.50963 4.688 6.54116 4.608 6.58844 4.592L9.88266 2.64L5.24869 0.08C5.2014 0.016 5.13835 0 5.07531 0C5.01226 0 4.93345 0.016 4.88616 0.048L0.252189 2.608L5.43783 5.68C5.48511 5.712 5.51664 5.776 5.51664 5.824V10.288C5.51664 10.352 5.46935 10.416 5.42207 10.432L5.13835 10.592C5.12259 10.608 5.09107 10.608 5.05954 10.608C5.02802 10.608 4.9965 10.608 4.96497 10.592L4.68126 10.432C4.63398 10.4 4.60245 10.336 4.60245 10.288V6.304C4.60245 6.272 4.58669 6.24 4.55517 6.224L0 3.52V8.816C0 8.928 0.0788091 9.088 0.189142 9.136L4.88616 11.952C4.93345 11.984 4.9965 12 5.07531 12C5.13835 12 5.2014 11.984 5.26445 11.952L9.97723 9.136C10.0718 9.072 10.1664 8.928 10.1664 8.816V3.52L7.04553 5.36Z" fill="url(#paint0_linear_6834_1431)"/>
</g>
<defs>
<linearGradient id="paint0_linear_6834_1431" x1="0.0490271" y1="10.1839" x2="5.24884" y2="5.88573" gradientUnits="userSpaceOnUse">
<stop stop-color="#A90034"/>
<stop offset="0.2717" stop-color="#BB0033"/>
<stop offset="0.7226" stop-color="#D30032"/>
<stop offset="1" stop-color="#DC0032"/>
</linearGradient>
<clipPath id="clip0_6834_1431">
<rect width="27" height="12" fill="white"/>
</clipPath>
</defs>
</svg>
