<svg width="60" height="26" viewBox="0 0 60 26" fill="none" xmlns="http://www.w3.org/2000/svg">
<path d="M38.5529 19.1377C37.4435 19.4497 35.9875 19.5883 34.7049 19.5883C31.4462 19.5883 29.2969 17.855 29.2969 14.6657C29.2969 11.6497 31.3075 9.70834 34.2542 9.70834C34.9129 9.70834 35.6062 9.77768 36.0222 10.0203V5.65234H38.5529V19.1377ZM36.0222 12.239C35.6062 12.0657 35.0862 11.927 34.4622 11.927C32.9022 11.927 31.8969 12.863 31.8969 14.5617C31.8969 16.3643 33.0062 17.3697 34.8089 17.3697C35.1209 17.3697 35.6062 17.335 36.0222 17.2657V12.239ZM59.3875 19.1377C58.2782 19.4497 56.8222 19.5883 55.5395 19.5883C52.2809 19.5883 50.1315 17.855 50.1315 14.6657C50.1315 11.6497 52.1422 9.70834 55.0889 9.70834C55.7475 9.70834 56.4409 9.77768 56.8569 10.0203V5.65234H59.3875V19.1377ZM56.8569 12.239C56.4409 12.0657 55.9209 11.927 55.2969 11.927C53.7369 11.927 52.7315 12.863 52.7315 14.5617C52.7315 16.3643 53.8409 17.3697 55.6435 17.3697C55.9555 17.3697 56.4409 17.335 56.8569 17.2657V12.239ZM42.5395 12.239C42.9555 12.0657 43.5449 11.9963 44.0649 11.9963C45.6249 11.9963 46.6995 12.8977 46.6995 14.527C46.6995 16.4337 45.5209 17.3003 43.8915 17.335V19.5537C43.9262 19.5537 43.9609 19.5537 44.0302 19.5537C47.3235 19.5537 49.2649 17.7163 49.2649 14.423C49.2649 11.4417 47.1849 9.67368 44.0649 9.67368C42.5049 9.67368 40.9449 10.0203 39.9395 10.471V23.159H42.5049L42.5395 12.239Z" fill="#414042"/>
<path d="M15.496 11.6133C15.392 11.6827 15.2187 11.6827 15.1147 11.6133L14.5253 11.2667C14.4907 11.232 14.4213 11.1973 14.3867 11.128C14.352 11.0587 14.3173 10.9893 14.3173 10.9547V10.2613C14.3173 10.1573 14.3867 9.984 14.4907 9.94933L21.736 5.72L11.544 0.173333C11.44 0.0346667 11.3013 0 11.1627 0C11.024 0 10.8507 0.0346667 10.7467 0.104L0.554667 5.65067L11.96 12.3067C12.064 12.376 12.1333 12.5147 12.1333 12.6187V22.2907C12.1333 22.4293 12.0293 22.568 11.9253 22.6027L11.3013 22.9493C11.2667 22.984 11.1973 22.984 11.128 22.984C11.0587 22.984 10.9893 22.984 10.92 22.9493L10.296 22.6027C10.192 22.5333 10.1227 22.3947 10.1227 22.2907V13.6587C10.1227 13.5893 10.088 13.52 10.0187 13.4853L0 7.62667V19.1013C0 19.344 0.173333 19.6907 0.416 19.7947L10.7467 25.896C10.8507 25.9653 10.9893 26 11.1627 26C11.3013 26 11.44 25.9653 11.5787 25.896L21.944 19.7947C22.152 19.656 22.36 19.344 22.36 19.1013V7.62667L15.496 11.6133Z" fill="url(#paint0_linear_6846_2124)"/>
<defs>
<linearGradient id="paint0_linear_6846_2124" x1="0.10783" y1="22.0652" x2="11.4047" y2="12.586" gradientUnits="userSpaceOnUse">
<stop stop-color="#A90034"/>
<stop offset="0.2717" stop-color="#BB0033"/>
<stop offset="0.7226" stop-color="#D30032"/>
<stop offset="1" stop-color="#DC0032"/>
</linearGradient>
</defs>
</svg>
