<svg width="83" height="20" viewBox="0 0 83 20" fill="none" xmlns="http://www.w3.org/2000/svg">
<path d="M26.6846 3.74219L26.745 3.76006C26.8963 3.97798 26.3168 6.94501 26.2331 7.35427C25.7199 9.82531 25.0917 12.2711 24.3507 14.6836C24.1715 15.2598 23.8847 16.3023 23.5451 16.7492C23.0769 16.9272 22.6635 17.1822 22.1539 17.298C20.68 17.6328 19.2874 17.765 17.7885 17.875C15.4446 18.0361 13.095 18.1026 10.7457 18.0743C9.97008 18.0694 7.96847 18.0573 7.25868 17.9463C7.1666 17.9432 7.09742 17.9423 7.019 17.8866C6.98601 17.8632 6.97069 17.8061 6.96481 17.7672C6.8282 16.8627 7.92584 13.205 8.34469 12.2048C8.58437 11.6325 8.86032 11.1144 9.23451 10.618C11.0026 8.27228 18.7832 5.94208 21.7773 5.03453C22.8893 4.69013 24.0107 4.37665 25.1401 4.09444C25.6102 3.97621 26.214 3.80762 26.6846 3.74219Z" fill="#00B0B7"/>
<path d="M16.8193 2.41283C17.433 2.35001 18.5606 2.41973 19.2068 2.42397C21.6319 2.43984 24.251 2.48653 26.657 2.79587C26.0772 2.98511 25.5256 3.06163 24.9475 3.20478C24.1481 3.40271 23.3151 3.58862 22.5221 3.80283C19.4899 4.60325 16.4895 5.51935 13.5273 6.54898L11.7433 7.13668C10.8746 7.42691 9.84533 7.90465 8.93136 7.57537C7.41932 7.03065 5.56646 4.67286 4.85938 3.29438C6.21639 2.59065 12.5964 2.51685 14.4699 2.43789C15.1109 2.41087 16.125 2.46903 16.8193 2.41283Z" fill="#00677F"/>
<path d="M4.22397 4.19531C4.43163 4.41245 4.79516 4.91429 4.9717 5.16777C6.2892 7.05925 7.43759 9.02272 7.15102 11.4265C7.03527 12.3975 6.78712 13.4627 6.56524 14.4186C6.31676 15.5372 6.09735 16.662 5.90711 17.7918C5.51396 17.7864 5.21361 17.7383 4.82653 17.6832C3.97808 17.4717 1.92643 17.0363 1.74727 16.0217C1.61487 15.2719 1.72895 14.0095 1.83376 13.2369C2.20099 10.5301 2.79116 6.51522 4.22397 4.19531Z" fill="#00677F"/>
<path d="M53.8098 2.72291C54.8736 2.75849 57.2773 2.57122 58.1535 2.91299C58.6309 3.09928 59.0285 3.43681 59.2348 3.91398C59.4812 4.48459 59.4411 5.26909 59.2145 5.84067C58.9049 6.62217 58.2844 7.15198 57.527 7.48017C58.3464 8.5681 59.264 9.64222 60.0996 10.7436C59.3442 10.7307 58.5863 10.7494 57.8261 10.7336C57.7114 10.6374 57.5784 10.4704 57.4779 10.3526C56.8692 9.53201 56.0566 8.58374 55.4033 7.76051C55.1419 7.74673 54.9235 7.75585 54.6625 7.7659C54.5891 8.03874 54.5393 8.41867 54.4712 8.70854C54.3115 9.39028 54.1539 10.0622 54.0286 10.752C53.347 10.7293 52.6442 10.7409 51.9609 10.7441C52.2203 9.74202 52.4392 8.67604 52.6681 7.66108L53.503 4.08096C53.5553 3.85484 53.7466 2.82601 53.8098 2.72291ZM55.0738 6.06477C55.5898 6.07219 56.3675 6.13673 56.8226 5.91851C57.4431 5.48776 57.6599 4.60537 56.727 4.45011C56.3184 4.38212 55.8662 4.44387 55.4528 4.41612C55.3579 4.84957 55.1298 5.68148 55.0738 6.06477Z" fill="#00677F"/>
<path d="M33.2131 2.7291C35.0757 2.75838 37.1787 2.76535 39.0365 2.71875C38.8989 3.30511 38.7591 3.9199 38.6015 4.4992C37.3232 4.48765 36.0449 4.48522 34.7667 4.49187L34.44 5.95078C35.6072 5.90305 36.8386 5.96127 38.0284 5.91986C37.8957 6.43841 37.7767 7.04341 37.6593 7.57196L35.4516 7.56236C35.0593 7.56115 34.4789 7.54332 34.1074 7.58339C34.0335 7.6376 34.016 7.80247 33.9897 7.91065C33.8722 8.33 33.8088 8.59167 33.7327 9.02439C34.7479 9.0263 36.7224 9.08371 37.6472 8.99842C37.5359 9.59751 37.3772 10.0982 37.2799 10.7435C35.299 10.7144 33.2771 10.7458 31.2891 10.735C31.5508 9.87591 31.711 8.86346 31.9257 7.97924C32.2742 6.54379 32.5914 5.09631 32.92 3.65618C32.9728 3.42492 33.0307 2.85583 33.2131 2.7291Z" fill="#00677F"/>
<path d="M61.9758 2.7214C63.1413 2.77727 64.3531 2.71888 65.5231 2.73857C66.2786 2.75129 67.0676 2.74303 67.8222 2.71875C67.7582 3.25275 67.5742 3.97869 67.4162 4.50038C66.1363 4.48725 64.8565 4.48461 63.577 4.49247C63.4522 4.95644 63.3622 5.47263 63.2698 5.94705C64.4617 5.92748 65.6779 5.93749 66.8715 5.93591C66.7199 6.38598 66.5675 7.10544 66.4544 7.57699C65.8007 7.55701 65.0867 7.57492 64.4281 7.56763C64.0346 7.56325 63.2836 7.54336 62.9326 7.58866C62.8321 7.69526 62.852 7.72694 62.8127 7.89112C62.7166 8.26935 62.6303 8.64993 62.5533 9.03245C63.4238 8.99267 64.3835 9.05138 65.2621 9.02893C65.635 9.01945 66.1002 9.05134 66.4569 8.99287C66.3697 9.57377 66.1995 10.1891 66.0488 10.7594C65.4396 10.7144 64.5671 10.7401 63.932 10.7399L60.1172 10.7405C60.2748 10.3218 60.2659 10.031 60.3693 9.62701C60.9533 7.34559 61.3646 4.99254 61.9758 2.7214Z" fill="#00677F"/>
<path d="M70.9096 2.6079C72.5663 2.45917 74.2612 3.04859 74.4744 4.90287C73.7972 5.07386 73.107 5.14116 72.4995 5.3016C72.3998 5.0369 72.3155 4.78039 72.1035 4.56945C71.0368 3.50769 69.0992 5.08001 71.1207 5.73251C72.2981 6.11248 73.6727 6.52365 73.7015 8.0273C73.7388 9.98113 72.2146 10.8633 70.4265 10.9121C68.8674 10.9226 66.9719 10.2327 66.9375 8.40783C67.5932 8.33786 68.3519 8.13236 69.0413 8.0292C69.1284 8.41788 69.1389 8.57217 69.4972 8.90434C70.0593 9.41571 71.5041 9.32495 71.498 8.36833C71.4308 7.82929 70.4865 7.63488 70.1039 7.49749C69.2703 7.20722 68.1768 6.7674 68.0617 5.7507C67.8323 3.72642 69.083 2.83703 70.9096 2.6079Z" fill="#00677F"/>
<path d="M77.9188 2.60783C78.645 2.50589 79.8021 2.66479 80.4104 3.10811C81.0933 3.60551 81.3624 4.08822 81.5172 4.89164C80.8469 5.06319 80.166 5.19184 79.4791 5.27668C79.3916 4.9681 79.3441 4.78857 79.1066 4.54984C78.7423 4.14754 77.8426 4.07489 77.4681 4.48627C77.1743 4.83982 77.1613 5.28551 77.6067 5.5041C78.9048 6.14663 80.7209 6.23407 80.7204 8.1046C80.7204 10.007 79.165 10.8692 77.4438 10.9144C75.7109 10.9523 74.187 10.273 73.9297 8.42323C74.6016 8.32375 75.349 8.14584 76.0403 8.02636C76.0999 8.20581 76.1713 8.44814 76.2653 8.60936C76.6855 9.32863 77.6128 9.35975 78.2762 8.95741C78.367 8.81207 78.568 8.51986 78.5352 8.35264C78.4144 7.73864 77.3101 7.60372 76.8217 7.3955C76.4278 7.24518 76.0837 7.09097 75.7376 6.84394C74.7889 6.16661 74.8724 4.57309 75.5265 3.72282C76.1052 2.96997 77.0041 2.72539 77.9188 2.60783Z" fill="#00677F"/>
<path d="M39.281 2.7103L41.4625 2.71039C41.7835 3.41998 42.1661 4.45215 42.4113 5.18443C43.0054 4.43473 43.655 3.6127 44.2966 2.9024C44.5835 2.58476 46.4441 2.70623 46.9669 2.70722C46.1009 3.77328 45.1837 4.80656 44.3039 5.86232C44.0579 6.15745 43.7997 6.4728 43.527 6.73989C43.9059 7.56531 44.2374 8.43753 44.586 9.27766C44.7874 9.76245 44.9608 10.2631 45.2056 10.7273C44.8129 10.7734 43.4548 10.7454 42.9823 10.7464C42.6488 9.92177 42.3201 9.09517 41.9967 8.26663C41.2903 9.04728 40.5677 9.92882 39.8766 10.7345C39.0852 10.7664 38.0958 10.7383 37.2969 10.7287C37.6036 10.5533 40.4254 7.19202 40.8303 6.7217C40.3257 5.45719 39.813 3.93642 39.281 2.7103Z" fill="#00677F"/>
<path d="M47.3026 2.72266C48.2198 2.74835 49.1401 2.72307 50.0577 2.72926C50.4553 2.73194 50.8249 2.70891 51.218 2.78731C53.278 3.20969 53.2695 5.68046 51.9365 6.88857C50.7114 7.99932 49.5762 7.65374 48.097 7.77343C47.8522 8.69873 47.7197 9.76588 47.4477 10.7534C46.8248 10.7201 46.0422 10.737 45.4141 10.7352C45.5867 10.1978 45.6649 9.63237 45.7983 9.07899L46.8933 4.34023C46.978 3.97469 47.1397 3.00404 47.3026 2.72266ZM48.4747 6.03766C48.9825 6.10731 49.8263 6.12372 50.2895 5.907C50.955 5.36556 51.1171 4.57442 50.0666 4.43775C49.6796 4.38739 49.252 4.44014 48.8601 4.41543C48.7486 4.97538 48.6469 5.49031 48.4747 6.03766Z" fill="#00677F"/>
<path d="M43.7274 12.9375L44.3471 12.9412C44.5157 13.5075 44.7175 14.4267 44.8589 15.0158L45.5669 17.8587C45.1625 17.8276 44.6831 17.8274 44.2725 17.8173C44.2271 17.5842 44.1752 17.3687 44.1185 17.1384C43.4004 17.1483 42.6818 17.1496 41.9633 17.1422C41.8194 17.3298 41.7598 17.5203 41.5803 17.6915C41.3164 17.9429 41.1762 17.8575 40.852 17.8331C40.6109 17.8149 40.3534 17.8073 40.1094 17.7972C40.1456 17.7495 40.1816 17.701 40.215 17.6486C41.2131 16.0844 42.3353 14.5571 43.449 13.0727C43.5256 12.9706 43.6115 12.9676 43.7274 12.9375ZM42.6158 16.1276C42.6944 16.1228 42.9967 16.0987 43.0547 16.1113C43.3286 16.1103 43.6703 16.1179 43.9382 16.0998C43.8786 15.8703 43.6682 14.8166 43.5507 14.7332C43.4324 15.0183 42.8208 15.8834 42.6158 16.1276Z" fill="#00B0B7"/>
<path d="M77.5763 12.9011C77.5832 12.9001 77.5901 12.8993 77.597 12.8985C78.6487 12.7778 79.623 13.2084 79.7535 14.3556C79.3105 14.4015 79.0252 14.4514 78.5916 14.5389C78.3156 14.1881 78.3196 13.8973 77.7798 13.9158C77.0548 13.9407 77.0657 14.6348 77.7024 14.8172C78.1478 14.9599 78.885 15.0918 79.1229 15.5542C79.6246 16.5288 79.0576 17.5809 78.0221 17.8412C77.7749 17.9032 77.5776 17.9117 77.3401 17.9275C76.5518 17.9273 75.6744 17.7544 75.308 16.9411C75.2335 16.7755 75.2112 16.6557 75.2367 16.4761C75.3664 16.3346 76.2154 16.2335 76.4655 16.1859C76.8092 16.9848 76.9774 16.929 77.8155 16.7919C77.8495 16.7056 77.9403 16.4734 77.9249 16.3864C77.8361 15.8866 76.688 15.8828 76.2941 15.4867C76.0659 15.2916 75.8414 14.9986 75.8231 14.6757C75.7623 13.5944 76.6454 12.994 77.5763 12.9011Z" fill="#00B0B7"/>
<path d="M55.1011 12.9C55.8885 12.7832 56.8478 13.0711 57.1773 13.8498C57.2389 13.9956 57.3106 14.1618 57.2519 14.3192C57.1579 14.3726 56.28 14.5046 56.0843 14.5403C56.0004 14.4071 55.9035 14.1935 55.8314 14.0472C54.5925 13.5819 54.3282 14.6595 55.6032 14.9238C55.9518 14.996 56.3943 15.2894 56.6622 15.5312C56.7437 15.7374 56.7931 15.9547 56.8093 16.1758C56.8985 17.4103 55.9299 17.8684 54.881 17.9317C54.0502 17.9456 53.1469 17.7131 52.7991 16.8524C52.7533 16.7397 52.7011 16.616 52.7246 16.4945C52.8364 16.3411 53.7637 16.2428 54.0235 16.1904C54.4762 17.752 56.4665 16.3399 54.8389 15.9478C54.1965 15.793 53.4942 15.4504 53.3921 14.7267C53.3382 14.3327 53.4419 13.9333 53.6806 13.6151C54.0397 13.1448 54.5463 12.9777 55.1011 12.9Z" fill="#00B0B7"/>
<path d="M31.2339 12.9417C31.7523 12.9329 32.7569 12.875 33.2209 12.9807C35.4532 13.4894 34.1722 16.2486 32.2582 16.039C32.0723 16.0186 31.7391 16.0042 31.5679 16.0498C31.5422 16.0567 31.5209 16.1471 31.5104 16.1781C31.3652 16.7369 31.2546 17.2833 31.1379 17.8488C30.7828 17.8172 30.2582 17.8245 29.8906 17.8184C29.9516 17.3965 30.9218 13.1234 30.9867 13.0315C31.0417 12.9537 31.1466 12.957 31.2339 12.9417ZM32.9031 14.8866C33.5518 13.9073 32.6187 14.0554 31.9619 14.0351C31.9098 14.2923 31.8116 14.7166 31.7891 14.965C32.1112 14.9616 32.6075 14.9729 32.9031 14.8866Z" fill="#00B0B7"/>
<path d="M64.8629 12.947C65.3132 12.9214 68.6113 12.8831 68.7742 13.0202C68.7653 13.2753 68.6482 13.7908 68.602 14.0743L67.1507 14.0609C66.9221 14.9905 66.7612 15.8588 66.512 16.8254C66.4552 17.022 66.375 17.5937 66.3259 17.8437C65.9089 17.8293 65.4716 17.8293 65.0526 17.8235C65.3221 16.5637 65.6098 15.3081 65.9166 14.0568C65.4562 14.0797 64.9492 14.0717 64.4844 14.0732C64.5265 13.7556 64.6274 13.4135 64.7024 13.101C64.732 12.9791 64.7547 12.9683 64.8629 12.947Z" fill="#00B0B7"/>
</svg>
