<svg width="42" height="18" viewBox="0 0 42 18" fill="none" xmlns="http://www.w3.org/2000/svg">
<g clip-path="url(#clip0_6798_929)">
<path d="M26.638 13.2244C25.8714 13.44 24.8654 13.5358 23.979 13.5358C21.7273 13.5358 20.2422 12.3381 20.2422 10.1343C20.2422 8.05033 21.6315 6.70889 23.6676 6.70889C24.1228 6.70889 24.6019 6.7568 24.8893 6.92448V3.90625H26.638V13.2244ZM24.8893 8.45755C24.6019 8.33778 24.2425 8.24196 23.8114 8.24196C22.7334 8.24196 22.0388 8.88873 22.0388 10.0625C22.0388 11.3081 22.8053 12.0028 24.0509 12.0028C24.2665 12.0028 24.6019 11.9788 24.8893 11.9309V8.45755ZM41.0344 13.2244C40.2679 13.44 39.2618 13.5358 38.3755 13.5358C36.1238 13.5358 34.6387 12.3381 34.6387 10.1343C34.6387 8.05033 36.028 6.70889 38.0641 6.70889C38.5193 6.70889 38.9983 6.7568 39.2858 6.92448V3.90625H41.0344V13.2244ZM39.2858 8.45755C38.9983 8.33778 38.639 8.24196 38.2078 8.24196C37.1299 8.24196 36.4352 8.88873 36.4352 10.0625C36.4352 11.3081 37.2018 12.0028 38.4474 12.0028C38.663 12.0028 38.9983 11.9788 39.2858 11.9309V8.45755ZM29.3927 8.45755C29.6801 8.33778 30.0874 8.28987 30.4467 8.28987C31.5246 8.28987 32.2672 8.91268 32.2672 10.0385C32.2672 11.356 31.4528 11.9549 30.3269 11.9788V13.5119C30.3509 13.5119 30.3748 13.5119 30.4227 13.5119C32.6984 13.5119 34.0398 12.2423 34.0398 9.96667C34.0398 7.9066 32.6026 6.68494 30.4467 6.68494C29.3687 6.68494 28.2908 6.92448 27.5961 7.23589V16.0031H29.3687L29.3927 8.45755Z" fill="#414042"/>
<path d="M10.7075 8.02466C10.6357 8.07257 10.5159 8.07257 10.444 8.02466L10.0368 7.78512C10.0129 7.76117 9.96495 7.73721 9.941 7.6893C9.91704 7.64139 9.89309 7.59349 9.89309 7.56953V7.09045C9.89309 7.01858 9.941 6.89881 10.0129 6.87486L15.0193 3.95245L7.97675 0.119771C7.90489 0.0239542 7.80907 0 7.71326 0C7.61744 0 7.49767 0.0239542 7.42581 0.0718626L0.383267 3.90454L8.2642 8.50375C8.33607 8.55165 8.38397 8.64747 8.38397 8.71933V15.4026C8.38397 15.4984 8.31211 15.5942 8.24025 15.6181L7.80907 15.8577C7.78512 15.8816 7.73721 15.8816 7.6893 15.8816C7.64139 15.8816 7.59349 15.8816 7.54558 15.8577L7.1144 15.6181C7.04254 15.5702 6.99463 15.4744 6.99463 15.4026V9.43796C6.99463 9.39005 6.97068 9.34214 6.92277 9.31819L0 5.26993V13.1988C0 13.3665 0.119771 13.606 0.287451 13.6779L7.42581 17.8938C7.49767 17.9417 7.59349 17.9657 7.71326 17.9657C7.80907 17.9657 7.90489 17.9417 8.00071 17.8938L15.163 13.6779C15.3067 13.582 15.4505 13.3665 15.4505 13.1988V5.26993L10.7075 8.02466Z" fill="url(#paint0_linear_6798_929)"/>
</g>
<defs>
<linearGradient id="paint0_linear_6798_929" x1="0.0745094" y1="15.2468" x2="7.8805" y2="8.69677" gradientUnits="userSpaceOnUse">
<stop stop-color="#A90034"/>
<stop offset="0.2717" stop-color="#BB0033"/>
<stop offset="0.7226" stop-color="#D30032"/>
<stop offset="1" stop-color="#DC0032"/>
</linearGradient>
<clipPath id="clip0_6798_929">
<rect width="41.0336" height="17.9657" fill="white"/>
</clipPath>
</defs>
</svg>
