<svg width="68" height="13" viewBox="0 0 68 13" fill="none" xmlns="http://www.w3.org/2000/svg">
<g clip-path="url(#clip0_6798_915)">
<path d="M32.2447 6.56406V10.6266H29.035V7.03531C29.035 5.89781 28.6479 5.39406 27.7608 5.39406C26.8415 5.39406 26.3576 5.96281 26.3576 7.08406V10.6266H23.1641V3.29781H25.4544L26.277 4.79281C26.8415 3.65531 27.8415 3.07031 29.2124 3.07031C31.1963 3.07031 32.2447 4.28906 32.2447 6.56406Z" fill="#9339F2"/>
<path d="M33.5469 0.015625H36.8372V2.38813H33.5469V0.015625ZM33.5953 3.29812H36.8049V10.6269H33.5953V3.29812Z" fill="#9339F2"/>
<path d="M44.2084 3.08594C43.031 3.08594 42.0149 3.52469 41.402 4.40219L40.7891 3.29719H38.2891V12.9984H41.4826V9.73219C42.16 10.4634 42.9665 10.8534 44.0955 10.8534C46.2729 10.8534 47.7568 9.30969 47.7568 6.90469C47.7568 4.59719 46.3375 3.08594 44.2084 3.08594ZM42.9504 8.82219C42.0149 8.82219 41.4181 8.13969 41.4181 7.08344V6.82344C41.4181 5.70219 41.9826 5.08469 42.9342 5.08469C43.902 5.08469 44.4342 5.75094 44.4342 6.90469C44.4342 8.09094 43.8858 8.82219 42.9504 8.82219Z" fill="#9339F2"/>
<path d="M52.9362 3.07031C50.3717 3.07031 48.6459 4.07781 48.4362 5.80031H51.6943C51.7588 5.23156 52.1943 4.92281 52.9201 4.92281C53.5975 4.92281 54.0008 5.19906 54.0008 5.76781V6.04406L51.4201 6.28781C50.2427 6.41781 49.4846 6.62906 48.9846 7.00281C48.4685 7.37656 48.2266 7.89656 48.2266 8.59531C48.2266 9.99281 49.3556 10.8541 51.2104 10.8541C52.5975 10.8541 53.7266 10.3341 54.1298 9.50531V9.52156L54.7588 10.6428H57.2266V6.27156C57.2427 4.11031 55.9362 3.07031 52.9362 3.07031ZM54.0814 7.86406C54.0814 8.56281 53.4524 9.05031 52.5169 9.05031C51.8879 9.05031 51.5008 8.77406 51.5008 8.33531C51.5008 7.91281 51.8717 7.65281 52.6782 7.53906L54.0814 7.37656V7.86406Z" fill="#9339F2"/>
<path d="M62.7928 7.78375L61.6316 8.84V10.6438H58.4219V0H61.6316V5.86625L64.0993 3.29875H67.938L65.2767 5.86625L68.0025 10.6438H64.4703L62.7928 7.78375Z" fill="#9339F2"/>
<path d="M12.0968 0.015625V10.6269H6.08065L0 0.015625H3.6129L8.85484 9.19688V0.015625H12.0968Z" fill="#9339F2"/>
<path d="M22.2233 7.01891C22.2233 4.56516 20.691 3.05391 17.933 2.97266C17.8523 2.97266 17.7717 2.97266 17.691 2.97266C17.433 2.97266 17.1749 2.98891 16.9491 3.02141C14.5781 3.26516 13.0781 4.71141 13.0781 6.88891C13.0781 9.31016 15.3039 10.7402 17.8523 10.7402C18.9652 10.7402 20.0136 10.6102 21.2233 9.66766C21.3362 9.58641 21.4491 9.48891 21.562 9.39141L20.4168 7.52266C20.3362 7.62016 20.2394 7.71766 20.1426 7.81516C19.7072 8.25391 19.0781 8.69266 18.1265 8.69266C17.1104 8.69266 16.2072 8.07516 16.0781 7.34391H22.2072L22.2233 7.01891ZM16.0943 5.80016C16.1588 5.00391 16.7072 4.67891 17.6426 4.67891C18.562 4.67891 19.1104 5.11766 19.1104 5.80016H16.0943Z" fill="#9339F2"/>
</g>
<defs>
<clipPath id="clip0_6798_915">
<rect width="68" height="13" fill="white"/>
</clipPath>
</defs>
</svg>
