<svg width="46" height="30" viewBox="0 0 46 30" fill="none" xmlns="http://www.w3.org/2000/svg">
<rect width="45.9987" height="29.9657" fill="#1634C5"/>
<path fill-rule="evenodd" clip-rule="evenodd" d="M14.5004 20.2871H11.5579L9.35136 11.9288C9.24663 11.5444 9.02426 11.2045 8.69716 11.0443C7.88084 10.6417 6.98131 10.3213 6 10.1597V9.83789H10.7401C11.3943 9.83789 11.885 10.3213 11.9667 10.8827L13.1116 16.9117L16.0527 9.83789H18.9134L14.5004 20.2871ZM20.5485 20.289H17.7695L20.0578 9.83984H22.8367L20.5485 20.289ZM26.4297 12.7334C26.5114 12.1706 27.0021 11.8488 27.5745 11.8488C28.474 11.768 29.4539 11.9296 30.2717 12.3308L30.7623 10.081C29.9446 9.75925 29.045 9.59766 28.2287 9.59766C25.5316 9.59766 23.5689 11.045 23.5689 13.0538C23.5689 14.582 24.9591 15.3843 25.9404 15.8677C27.0021 16.3497 27.411 16.6715 27.3292 17.1535C27.3292 17.8765 26.5114 18.1983 25.6951 18.1983C24.7138 18.1983 23.7325 17.9573 22.8344 17.5547L22.3438 19.8059C23.3251 20.2071 24.3867 20.3686 25.368 20.3686C28.3923 20.448 30.2717 19.0021 30.2717 16.8317C30.2717 14.0986 26.4297 13.9384 26.4297 12.7334V12.7334ZM39.9987 20.289L37.7922 9.83984H35.4222C34.9315 9.83984 34.4409 10.1616 34.2773 10.6436L30.1914 20.289H33.0521L33.6231 18.7623H37.138L37.4651 20.289H39.9987ZM35.8313 12.6523L36.6477 16.5905H34.3594L35.8313 12.6523Z" fill="white"/>
</svg>
