<svg width="51" height="12" viewBox="0 0 51 12" fill="none" xmlns="http://www.w3.org/2000/svg">
<path d="M16.3976 2.30078L16.4347 2.31176C16.5277 2.44567 16.1716 4.26878 16.1201 4.52026C15.8048 6.0386 15.4188 7.54142 14.9635 9.02384C14.8534 9.37789 14.6771 10.0184 14.4685 10.293C14.1808 10.4024 13.9268 10.5591 13.6137 10.6302C12.708 10.836 11.8524 10.9172 10.9313 10.9848C9.49106 11.0838 8.04737 11.1247 6.60381 11.1072C6.12723 11.1043 4.89733 11.0968 4.46119 11.0286C4.40461 11.0267 4.3621 11.0262 4.31391 10.9919C4.29364 10.9776 4.28423 10.9425 4.28062 10.9185C4.19667 10.3628 4.87113 8.1153 5.12849 7.50071C5.27577 7.14903 5.44533 6.8307 5.67525 6.52565C6.76166 5.08433 11.5425 3.65252 13.3823 3.09487C14.0655 2.88325 14.7546 2.69063 15.4486 2.51723C15.7374 2.44458 16.1084 2.34098 16.3976 2.30078Z" fill="#00B0B7"/>
<path d="M10.3333 1.48089C10.7104 1.44229 11.4032 1.48513 11.8003 1.48773C13.2904 1.49749 14.8997 1.52617 16.3781 1.71625C16.0218 1.83253 15.6829 1.87955 15.3277 1.96751C14.8365 2.08913 14.3247 2.20336 13.8374 2.33498C11.9742 2.82681 10.1306 3.38971 8.31044 4.02238L7.21426 4.3835C6.68048 4.56183 6.04804 4.85538 5.48644 4.65305C4.55736 4.31834 3.41885 2.86958 2.98438 2.02256C3.81821 1.59015 7.73846 1.5448 8.88964 1.49628C9.28352 1.47968 9.90663 1.51542 10.3333 1.48089Z" fill="#00677F"/>
<path d="M2.5898 2.57812C2.7174 2.71154 2.94078 3.01991 3.04925 3.17566C3.8588 4.33789 4.56444 5.54437 4.38835 7.02136C4.31723 7.618 4.16475 8.27252 4.02841 8.85993C3.87574 9.54721 3.74092 10.2384 3.62402 10.9326C3.38245 10.9293 3.19789 10.8997 2.96005 10.8658C2.43871 10.7359 1.17806 10.4684 1.06798 9.84492C0.986619 9.38419 1.05672 8.60852 1.12112 8.1338C1.34677 6.47056 1.7094 4.00361 2.5898 2.57812Z" fill="#00677F"/>
<path d="M33.0657 1.67231C33.7194 1.69417 35.1964 1.57911 35.7348 1.78911C36.0281 1.90358 36.2724 2.11098 36.3992 2.40417C36.5506 2.75479 36.5259 3.23683 36.3867 3.58805C36.1965 4.06825 35.8152 4.39379 35.3498 4.59545C35.8533 5.26394 36.4171 5.92394 36.9306 6.60069C36.4664 6.59278 36.0007 6.60425 35.5336 6.59454C35.4631 6.53542 35.3814 6.43282 35.3196 6.36044C34.9456 5.85622 34.4463 5.27355 34.0449 4.76771C33.8843 4.75924 33.75 4.76484 33.5897 4.77102C33.5446 4.93867 33.514 5.17212 33.4721 5.35023C33.374 5.76913 33.2772 6.18201 33.2002 6.60585C32.7813 6.5919 32.3495 6.59903 31.9297 6.60102C32.0891 5.98526 32.2235 5.33026 32.3642 4.70661L32.8772 2.50678C32.9093 2.36783 33.0269 1.73566 33.0657 1.67231ZM33.8424 3.72575C34.1594 3.7303 34.6373 3.76996 34.917 3.63587C35.2982 3.3712 35.4315 2.82901 34.8582 2.73361C34.6072 2.69183 34.3293 2.72977 34.0753 2.71272C34.017 2.97906 33.8768 3.49023 33.8424 3.72575Z" fill="#00677F"/>
<path d="M20.4088 1.67824C21.5533 1.69623 22.8455 1.70051 23.987 1.67188C23.9025 2.03217 23.8166 2.40993 23.7197 2.76589C22.9343 2.75879 22.1489 2.7573 21.3634 2.76138L21.1627 3.65782C21.8799 3.62849 22.6365 3.66427 23.3676 3.63882C23.2861 3.95745 23.2129 4.3292 23.1408 4.65397L21.7843 4.64807C21.5432 4.64732 21.1866 4.63637 20.9583 4.66099C20.9129 4.6943 20.9022 4.7956 20.886 4.86208C20.8138 5.11975 20.7748 5.28053 20.7281 5.54643C21.3519 5.5476 22.5651 5.58287 23.1334 5.53047C23.065 5.89858 22.9675 6.20625 22.9077 6.60277C21.6905 6.58487 20.4481 6.60414 19.2266 6.5975C19.3874 6.06965 19.4858 5.44754 19.6177 4.90423C19.8319 4.0222 20.0268 3.13278 20.2287 2.24789C20.2612 2.10579 20.2967 1.75611 20.4088 1.67824Z" fill="#00677F"/>
<path d="M38.0795 1.67351C38.7957 1.70784 39.5403 1.67195 40.2592 1.68405C40.7234 1.69187 41.2083 1.68679 41.6719 1.67188C41.6326 1.99999 41.5195 2.44606 41.4224 2.76661C40.636 2.75854 39.8496 2.75692 39.0634 2.76175C38.9867 3.04684 38.9314 3.36402 38.8747 3.65553C39.607 3.6435 40.3543 3.64965 41.0877 3.64868C40.9946 3.92523 40.901 4.36731 40.8315 4.65706C40.4298 4.64478 39.991 4.65579 39.5864 4.65131C39.3446 4.64862 38.8831 4.63639 38.6675 4.66423C38.6057 4.72973 38.6179 4.7492 38.5938 4.85008C38.5347 5.08248 38.4817 5.31633 38.4344 5.55138C38.9693 5.52693 39.559 5.56301 40.0989 5.54921C40.328 5.54339 40.6138 5.56298 40.833 5.52706C40.7794 5.88399 40.6748 6.26207 40.5822 6.61251C40.2079 6.58485 39.6718 6.60063 39.2816 6.60053L36.9375 6.60088C37.0344 6.34363 37.0289 6.16492 37.0924 5.91671C37.4512 4.51487 37.704 3.06902 38.0795 1.67351Z" fill="#00677F"/>
<path d="M43.5735 1.60334C44.5915 1.51195 45.6329 1.87412 45.7639 3.0135C45.3478 3.11856 44.9237 3.15992 44.5504 3.25851C44.4892 3.09586 44.4374 2.93824 44.3071 2.80863C43.6517 2.15622 42.4611 3.12235 43.7032 3.52328C44.4266 3.75676 45.2713 4.0094 45.289 4.93333C45.3119 6.13388 44.3753 6.67594 43.2767 6.70592C42.3187 6.71234 41.154 6.28843 41.1328 5.16715C41.5357 5.12416 42.0019 4.99788 42.4255 4.9345C42.479 5.17333 42.4855 5.26813 42.7056 5.47223C43.051 5.78645 43.9388 5.73068 43.9351 5.14288C43.8937 4.81166 43.3135 4.69221 43.0784 4.60778C42.5662 4.42943 41.8943 4.15918 41.8236 3.53446C41.6827 2.29062 42.4511 1.74413 43.5735 1.60334Z" fill="#00677F"/>
<path d="M47.873 1.60028C48.3193 1.53765 49.0302 1.63528 49.404 1.90768C49.8236 2.21332 49.989 2.50992 50.0841 3.00359C49.6722 3.109 49.2538 3.18805 48.8318 3.24018C48.778 3.05057 48.7488 2.94025 48.6029 2.79357C48.379 2.54637 47.8262 2.50173 47.5961 2.7545C47.4156 2.97175 47.4076 3.24561 47.6813 3.37992C48.4789 3.77473 49.5948 3.82845 49.5945 4.97781C49.5945 6.14677 48.6388 6.67656 47.5812 6.7043C46.5163 6.7276 45.58 6.31021 45.4219 5.1736C45.8348 5.11248 46.294 5.00316 46.7188 4.92974C46.7554 5.04001 46.7992 5.18891 46.857 5.28797C47.1152 5.72993 47.685 5.74905 48.0927 5.50183C48.1484 5.41253 48.2719 5.23298 48.2518 5.13023C48.1776 4.75295 47.499 4.67005 47.1989 4.5421C46.9569 4.44974 46.7454 4.35498 46.5328 4.20319C45.9498 3.787 46.0011 2.80786 46.403 2.2854C46.7586 1.8228 47.311 1.67252 47.873 1.60028Z" fill="#00677F"/>
<path d="M24.1332 1.66485L25.4737 1.6649C25.6709 2.10092 25.906 2.73514 26.0566 3.18509C26.4217 2.72444 26.8209 2.21934 27.2151 1.78289C27.3914 1.58771 28.5347 1.66235 28.8559 1.66295C28.3237 2.31801 27.7602 2.95291 27.2196 3.60163C27.0684 3.78298 26.9098 3.97674 26.7422 4.14086C26.975 4.64805 27.1787 5.18399 27.3929 5.70021C27.5167 5.9981 27.6232 6.30572 27.7737 6.59098C27.5324 6.61931 26.6979 6.60211 26.4075 6.60268C26.2026 6.09599 26.0006 5.58808 25.8019 5.07898C25.3678 5.55865 24.9238 6.10032 24.4992 6.59536C24.0129 6.61498 23.405 6.5977 22.9141 6.59182C23.1025 6.48405 24.8364 4.41868 25.0852 4.12968C24.7751 3.35269 24.4601 2.41825 24.1332 1.66485Z" fill="#00677F"/>
<path d="M29.0667 1.67188C29.6302 1.68766 30.1958 1.67213 30.7596 1.67593C31.0039 1.67758 31.231 1.66343 31.4725 1.7116C32.7383 1.97114 32.7331 3.48932 31.914 4.23165C31.1612 4.91416 30.4637 4.70182 29.5548 4.77536C29.4044 5.34392 29.3229 5.99964 29.1558 6.60641C28.7731 6.58594 28.2922 6.59635 27.9062 6.59523C28.0123 6.26506 28.0604 5.9176 28.1423 5.57757L28.8152 2.6658C28.8672 2.44119 28.9666 1.84477 29.0667 1.67188ZM29.7869 3.70881C30.0989 3.7516 30.6174 3.76169 30.902 3.62852C31.3109 3.29583 31.4105 2.8097 30.765 2.72573C30.5272 2.69478 30.2645 2.7272 30.0237 2.71201C29.9552 3.05608 29.8927 3.37248 29.7869 3.70881Z" fill="#00677F"/>
<path d="M26.8638 7.94922L27.2445 7.95148C27.3481 8.29946 27.4721 8.86426 27.559 9.22627L27.9941 10.9731C27.7455 10.954 27.451 10.9539 27.1987 10.9477C27.1708 10.8044 27.1389 10.672 27.1041 10.5305C26.6628 10.5366 26.2213 10.5374 25.7798 10.5328C25.6914 10.6481 25.6547 10.7652 25.5444 10.8703C25.3823 11.0248 25.2962 10.9724 25.0969 10.9574C24.9488 10.9462 24.7906 10.9415 24.6406 10.9353C24.6629 10.906 24.685 10.8762 24.7055 10.844C25.3188 9.88286 26.0084 8.94442 26.6927 8.0323C26.7397 7.96953 26.7925 7.96772 26.8638 7.94922ZM26.1807 9.90943C26.229 9.90644 26.4148 9.89165 26.4504 9.89939C26.6187 9.89875 26.8286 9.90345 26.9933 9.8923C26.9566 9.75131 26.8274 9.10386 26.7552 9.05257C26.6825 9.22779 26.3067 9.75935 26.1807 9.90943Z" fill="#00B0B7"/>
<path d="M47.6626 7.92767C47.6668 7.9271 47.6711 7.92658 47.6753 7.9261C48.3215 7.85196 48.9202 8.11651 49.0003 8.82142C48.7282 8.84963 48.5529 8.8803 48.2864 8.93408C48.1168 8.71853 48.1193 8.53982 47.7876 8.5512C47.3421 8.56646 47.3488 8.99301 47.74 9.10507C48.0137 9.19273 48.4667 9.27381 48.6129 9.55791C48.9212 10.1568 48.5728 10.8033 47.9365 10.9632C47.7846 11.0013 47.6633 11.0065 47.5174 11.0162C47.0331 11.0161 46.4939 10.9098 46.2688 10.4101C46.223 10.3083 46.2093 10.2347 46.225 10.1244C46.3047 10.0375 46.8264 9.97529 46.98 9.94606C47.1912 10.437 47.2945 10.4027 47.8095 10.3184C47.8304 10.2654 47.8862 10.1228 47.8768 10.0693C47.8222 9.76215 47.1167 9.75984 46.8747 9.51645C46.7345 9.39655 46.5965 9.21655 46.5853 9.01813C46.548 8.35372 47.0906 7.98476 47.6626 7.92767Z" fill="#00B0B7"/>
<path d="M33.8623 7.92554C34.3461 7.85376 34.9356 8.03063 35.138 8.50911C35.1759 8.59874 35.22 8.70086 35.1839 8.79758C35.1261 8.83035 34.5867 8.91146 34.4664 8.93344C34.4149 8.85156 34.3554 8.72033 34.311 8.63043C33.5498 8.34449 33.3874 9.00666 34.1708 9.16908C34.385 9.21345 34.6569 9.3937 34.8215 9.54228C34.8716 9.66898 34.902 9.80252 34.9119 9.93835C34.9667 10.6969 34.3715 10.9784 33.7271 11.0173C33.2166 11.0258 32.6615 10.883 32.4478 10.3541C32.4197 10.2849 32.3876 10.2088 32.402 10.1342C32.4707 10.0399 33.0405 9.97956 33.2001 9.94734C33.4783 10.9069 34.7012 10.0392 33.7012 9.79824C33.3065 9.70313 32.8749 9.49261 32.8122 9.04796C32.779 8.80582 32.8428 8.56044 32.9895 8.36493C33.2101 8.07596 33.5214 7.97324 33.8623 7.92554Z" fill="#00B0B7"/>
<path d="M19.1926 7.95209C19.5111 7.94666 20.1284 7.91109 20.4135 7.97604C21.7851 8.28864 20.998 9.98405 19.822 9.85523C19.7078 9.84274 19.503 9.83385 19.3978 9.86191C19.382 9.86611 19.3689 9.92166 19.3625 9.9407C19.2732 10.2841 19.2053 10.6198 19.1336 10.9673C18.9154 10.9479 18.5931 10.9523 18.3672 10.9486C18.4047 10.6894 19.0008 8.06372 19.0407 8.00729C19.0745 7.95948 19.1389 7.96148 19.1926 7.95209ZM20.2183 9.14714C20.6168 8.54539 20.0435 8.63639 19.6399 8.62392C19.6079 8.78198 19.5476 9.0427 19.5337 9.19528C19.7317 9.19322 20.0366 9.20016 20.2183 9.14714Z" fill="#00B0B7"/>
<path d="M39.8576 7.95294C40.1343 7.93723 42.1608 7.9137 42.2609 7.9979C42.2554 8.15464 42.1835 8.47142 42.1551 8.64562L41.2633 8.63736C41.1229 9.2086 41.024 9.74213 40.8709 10.3361C40.836 10.4569 40.7867 10.8082 40.7566 10.9618C40.5003 10.9529 40.2316 10.9529 39.9741 10.9494C40.1397 10.1753 40.3165 9.40372 40.505 8.63489C40.2222 8.64891 39.9106 8.64403 39.625 8.64495C39.6509 8.44979 39.7129 8.23959 39.759 8.04754C39.7772 7.97268 39.7911 7.96606 39.8576 7.95294Z" fill="#00B0B7"/>
</svg>
