<svg width="39" height="30" viewBox="0 0 39 30" fill="none" xmlns="http://www.w3.org/2000/svg">
<rect width="38.2656" height="29.9657" fill="white"/>
<path d="M24.2969 6.98438C28.6956 6.98446 32.2617 10.5662 32.2617 14.9844C32.2617 19.4026 28.6956 22.9843 24.2969 22.9844C22.3249 22.9844 20.5218 22.2626 19.1309 21.0703C17.7399 22.2627 15.9368 22.9843 13.9648 22.9844C9.56607 22.9844 6 19.4027 6 14.9844C6 10.5661 9.56607 6.98438 13.9648 6.98438C15.9366 6.98441 17.74 7.70533 19.1309 8.89746C20.5218 7.70539 22.3251 6.98438 24.2969 6.98438Z" fill="#ED0006"/>
<path d="M24.3008 6.98438C28.6995 6.98446 32.2656 10.5662 32.2656 14.9844C32.2656 19.4026 28.6995 22.9843 24.3008 22.9844C22.3278 22.9844 20.5241 22.2617 19.1328 21.0684C20.8433 19.601 21.9297 17.4209 21.9297 14.9844C21.9297 12.5477 20.8436 10.3667 19.1328 8.89941C20.524 7.70627 22.3281 6.98438 24.3008 6.98438Z" fill="#F9A000"/>
<path d="M19.127 8.89844C20.8387 10.3658 21.9258 12.5469 21.9258 14.9844C21.9258 17.4219 20.8387 19.603 19.127 21.0703C17.4151 19.603 16.3281 17.4219 16.3281 14.9844C16.3281 12.5468 17.4151 10.3658 19.127 8.89844Z" fill="#FF5E00"/>
</svg>
