<svg width="54" height="13" viewBox="0 0 54 13" fill="none" xmlns="http://www.w3.org/2000/svg">
<path d="M52.3615 1.22184C52.5267 1.20889 52.7084 1.2119 52.8755 1.21094C52.94 2.36452 52.9096 3.66839 52.9096 4.83715L52.914 10.2913C52.9137 10.4851 52.9221 11.1966 52.8023 11.3167C52.5737 11.3606 51.6793 11.3154 51.41 11.3076C51.3628 11.0877 51.3538 10.7122 51.2495 10.5355C51.1153 10.4801 49.2109 12.5993 46.4368 10.5428C45.912 10.085 45.329 9.2856 45.1664 8.5974C45.0194 7.97484 45.0236 6.79951 45.2098 6.19391C45.5875 4.96473 46.7613 3.85372 48.0167 3.57002C49.117 3.29644 50.1068 3.57059 51.0188 4.22123C51.1151 4.28995 51.2283 4.3444 51.3446 4.3136C51.3712 4.18259 51.3586 3.44736 51.358 3.28141L51.3646 1.24675C51.6506 1.22476 52.065 1.22767 52.3615 1.22184ZM49.3704 9.87426C50.7015 9.66462 51.6096 8.40738 51.396 7.07C51.1823 5.73262 49.9287 4.82438 48.5994 5.04414C47.2771 5.26274 46.3797 6.51523 46.5922 7.84546C46.8046 9.17569 48.0469 10.0828 49.3704 9.87426Z" fill="#353639"/>
<path d="M31.642 3.46906C33.08 3.39845 34.4474 4.2216 35.2026 5.43229C35.4551 5.83742 35.9347 7.5952 35.6992 7.99627C35.6153 8.05678 35.5956 8.06628 35.4775 8.06634C35.1037 8.06661 34.7238 8.05973 34.3503 8.05865L31.6022 8.05576C30.9367 8.05612 30.2461 8.03803 29.5872 8.11144C29.6269 8.42928 29.7172 8.71999 29.9219 8.96917C30.3151 9.44485 30.8465 9.83442 31.4501 9.90199C32.5642 10.0266 33.1633 9.68866 33.8934 8.89649C34.0371 8.74054 34.2344 8.77414 34.442 8.80265C34.6736 8.84634 35.3048 8.96665 35.4079 9.19275C35.4145 9.44783 35.1261 9.79292 34.9647 9.97783C34.2102 10.848 33.1373 11.3742 31.9904 11.4366C31.0377 11.4953 29.9066 11.0331 29.1957 10.3996C28.4372 9.73232 27.9782 8.78567 27.9229 7.7738C27.8584 6.70177 28.1432 5.65558 28.8613 4.84087C29.5662 4.02506 30.5691 3.53033 31.642 3.46906ZM32.2695 6.73936C32.8182 6.75462 33.553 6.79098 34.087 6.74825C33.6878 5.49266 32.9054 4.8894 31.5789 4.97137C31.3733 4.99333 31.2215 5.02098 31.0213 5.06809C30.6349 5.15889 29.3209 6.28023 29.7157 6.6908C29.9912 6.77283 31.8529 6.73845 32.2695 6.73936Z" fill="#353639"/>
<path d="M12.6784 3.46648C13.4196 3.41822 14.2299 3.6903 14.8502 4.07984C15.4124 4.43283 15.992 5.29967 16.0907 5.96477C16.2209 6.94389 16.1608 7.99399 16.1644 8.9824C16.1661 9.44925 16.2579 10.9585 16.0508 11.2618C15.8942 11.3512 14.8066 11.3131 14.5619 11.3121C14.4563 10.3142 14.5655 8.98982 14.5325 7.96202C14.5183 7.45281 14.5697 6.92568 14.4565 6.42422C14.1897 5.24237 13.1312 4.82946 12.0364 5.06755C11.8637 5.12726 11.7111 5.22648 11.5699 5.34102C11.226 5.6198 10.9021 6.01825 10.7545 6.44102C10.4195 7.40079 10.6983 10.1125 10.5669 11.3466C10.1931 11.2897 9.25208 11.3788 9.08348 11.2765C8.93923 10.8754 8.98609 9.69864 8.98654 9.20679L8.99129 6.54054L8.98908 4.99403C8.98235 3.6525 8.78145 3.46269 10.276 3.61464C10.5243 3.63988 10.702 4.07806 10.8508 4.28545C10.8659 4.26676 10.8813 4.24831 10.8969 4.23007C11.2859 3.77371 12.0879 3.51173 12.6784 3.46648Z" fill="#353639"/>
<path d="M1.81951 3.5625L1.88275 3.58401C2.08174 3.85739 1.85773 7.65309 1.99317 8.25692C2.12412 8.84077 2.34026 9.22108 2.8236 9.56203C4.12542 10.4803 5.74395 9.46621 5.89934 7.98349C5.95199 7.53588 5.94088 7.02249 5.94109 6.51721L5.9358 4.65571C5.93439 4.34223 5.89118 3.89086 6.06791 3.64198C6.19988 3.54165 7.29392 3.61082 7.53935 3.62416C7.60456 4.0846 7.58959 4.71632 7.58893 5.19269L7.58645 7.3199L7.5586 11.3387C7.25127 11.2814 6.41498 11.3179 6.05611 11.3231C6.00211 11.0908 5.906 10.8232 5.82956 10.5934C5.8148 10.6065 5.79992 10.6195 5.78495 10.6323C4.38723 11.8305 2.33689 11.6795 1.11623 10.2895C0.446871 9.5154 0.304176 8.46755 0.358594 7.47767C0.427835 6.21839 0.280778 4.85793 0.378377 3.61184C0.863059 3.60946 1.3363 3.60279 1.81951 3.5625Z" fill="#353639"/>
<path d="M40.4962 3.4666C42.1437 3.41408 43.8076 4.54446 43.9039 6.2897C43.9822 7.81758 43.8991 9.34702 43.9391 10.8768C43.946 11.1422 43.8525 11.3611 43.5477 11.3299C43.2064 11.2949 42.774 11.3835 42.4545 11.2633C42.2731 11.1949 42.3861 10.5078 42.3571 10.3346C42.3475 9.68791 42.3646 9.04535 42.3646 8.39924C42.3538 7.30774 42.5424 5.84467 41.4131 5.21998C40.9056 4.94812 40.2171 4.95034 39.6774 5.12419C39.1058 5.44414 38.6706 6.00479 38.4878 6.63783C38.3518 7.10897 38.4131 7.59198 38.3912 8.06935C38.3434 9.11184 38.491 10.3191 38.3279 11.3368C37.983 11.2958 37.0644 11.3761 36.8779 11.2816C36.7372 10.8456 36.805 9.66664 36.808 9.15123L36.8212 6.43678C36.825 6.04989 36.7605 3.76945 36.9096 3.61107C37.0979 3.57128 37.9499 3.57318 38.1486 3.64475C38.362 3.7217 38.4665 4.1213 38.5499 4.34579C39.0615 3.78498 39.7551 3.5279 40.4962 3.4666Z" fill="#353639"/>
<path d="M23.4875 3.46595C24.3264 3.40666 25.0484 3.65176 25.8226 3.94232C26.1111 4.05058 26.349 4.18832 26.6547 4.27122C26.684 4.56703 26.7805 5.69363 26.5949 5.88263C26.2937 5.81138 26.0163 5.62212 25.7488 5.47098C25.2738 5.20251 24.7834 5.01651 24.2411 4.94491C23.7095 4.87472 22.9882 4.89043 22.5491 5.2376C22.4029 5.35316 22.186 5.59348 22.1739 5.79095C22.1346 6.43171 24.8267 6.84453 25.3626 7.0414C25.8302 7.21319 26.3012 7.4648 26.6224 7.85743C26.932 8.23594 27.0623 8.86312 27.01 9.34523C26.9523 9.87502 26.6595 10.3874 26.245 10.7171C25.5077 11.3039 24.3766 11.5186 23.4605 11.4109C22.4185 11.2397 21.3353 10.9282 20.6505 10.0849C20.6408 9.85002 20.6263 8.71985 20.6745 8.55657L20.7163 8.54609L20.7405 8.6502C20.8074 8.74299 20.9604 8.73956 21.0722 8.80702C21.8704 9.29018 22.6518 9.90717 23.6271 9.92968C23.8866 9.93566 24.6406 9.9475 24.8564 9.82313L24.8729 9.81346C25.0312 9.72151 25.1841 9.58999 25.3055 9.45211C25.3958 9.34955 25.4661 9.21509 25.455 9.0745C25.3974 8.35066 23.111 7.97071 22.5303 7.77717C22.0687 7.62333 21.5933 7.41955 21.2167 7.10342C20.8918 6.83071 20.7001 6.48039 20.6633 6.05363C20.6172 5.51987 20.8127 4.88764 21.1571 4.4795C21.6895 3.8486 22.6954 3.53271 23.4875 3.46595Z" fill="#353639"/>
<path d="M19.4751 2.05879C19.9234 2.04452 20.2331 2.02929 20.6813 2.10194C20.7348 2.42426 20.8022 3.04465 20.6454 3.32099C20.4 3.80016 19.7925 3.59797 19.4534 3.67823C19.0581 3.77179 19.1741 5.24691 19.1744 5.57223L19.1753 9.0446C19.1763 9.41836 19.2327 10.9839 19.0927 11.2579C19.0268 11.3228 19.011 11.3221 18.9179 11.3315C18.61 11.325 17.8557 11.3408 17.6293 11.2246C17.5463 11.182 17.5892 9.47755 17.589 9.26755L17.5896 5.99647C17.5898 5.57151 17.5416 4.27866 17.6606 3.85803C17.7443 3.56239 18.6976 3.65569 18.9074 3.58926C19.3574 3.44674 18.9756 2.48988 19.2044 2.11432C19.2747 2.04737 19.3755 2.06026 19.4751 2.05879Z" fill="#353639"/>
</svg>
