<svg width="44" height="19" viewBox="0 0 44 19" fill="none" xmlns="http://www.w3.org/2000/svg">
<rect width="43.5448" height="18.0966" rx="2.26207" fill="#481335"/>
<path d="M36.3954 12.3194V10.6198C36.3954 10.0362 36.5019 9.66644 36.8447 9.35432C37.2807 8.9506 37.8898 8.95739 37.8898 8.95739V7.69874C36.5884 7.69874 36.3354 8.43493 36.3354 8.43493L35.9627 7.81409H35.1839V12.3194H36.3954ZM12.1022 12.4382C13.2604 12.4382 13.5633 11.702 13.5633 11.702L13.9361 12.3228H14.7149V7.81748H13.5034V10.0532C13.5034 10.6367 13.327 11.0167 13.0474 11.1965C12.9109 11.2881 12.6913 11.3288 12.4849 11.3288C11.786 11.3288 11.6096 10.9251 11.6096 10.2567V7.81748H10.3914V10.6198C10.3948 11.8784 11.0105 12.4382 12.1022 12.4382ZM27.7485 7.69874C27.7551 7.69874 27.7551 7.69874 27.7485 7.69874C26.5902 7.69874 26.2873 8.43493 26.2873 8.43493L25.9212 7.81409H25.1424V12.3194H26.3539V10.0905C26.3539 9.50699 26.5303 9.12702 26.8099 8.94721C26.9463 8.85561 27.166 8.8149 27.3724 8.8149C28.0713 8.8149 28.2477 9.21862 28.2477 9.88695V12.3194H29.4592V9.51716C29.4559 8.25852 28.8435 7.69874 27.7485 7.69874ZM21.0353 7.69874C19.917 7.69874 19.5941 8.37386 19.5875 8.38065L19.5642 8.43493L19.5342 8.38743C19.2314 7.92265 18.802 7.70213 18.0864 7.70213C16.9681 7.70213 16.6453 8.37726 16.6386 8.38404L16.6153 8.43832L16.2426 7.81748H15.4637V8.43832V9.37128V12.3228H16.6752V10.0939C16.6752 9.22201 16.9715 8.81829 17.5972 8.81829C18.153 8.81829 18.4126 9.15416 18.4126 9.87678V12.3228H19.6241V10.0634C19.6241 9.21522 19.9137 8.8149 20.5294 8.8149C20.8889 8.8149 21.3615 8.92346 21.3615 9.88695V12.3194H22.573V9.51716C22.5796 8.25852 22.1004 7.69874 21.0353 7.69874ZM6.91337 11.0336V6.00584H5.65527V12.3194H9.97539V11.037H6.91337V11.0336ZM22.9224 6.00584L23.8211 6.92184L24.7197 6.00584L23.8211 5.08984L22.9224 6.00584ZM23.192 7.81069H24.4501V12.316H23.192V7.81069ZM32.2882 7.69874C31.5727 7.69874 30.9636 7.93961 30.5209 8.39761C30.1082 8.82508 29.8819 9.42217 29.8819 10.0668C29.8819 10.7114 30.1049 11.3084 30.5209 11.7359C30.9569 12.1939 31.5727 12.4416 32.2882 12.4416C33.7061 12.4416 34.6979 11.4645 34.6979 10.0668C34.6979 8.66902 33.7061 7.69874 32.2882 7.69874ZM32.2816 11.3899C31.5893 11.3899 31.0934 10.8369 31.0934 10.0702C31.0934 9.317 31.6026 8.75044 32.2816 8.75044C32.9739 8.75044 33.4864 9.317 33.4864 10.0702C33.4864 10.8301 32.9805 11.3899 32.2816 11.3899Z" fill="white"/>
</svg>
