<svg width="28" height="19" viewBox="0 0 28 19" fill="none" xmlns="http://www.w3.org/2000/svg">
<rect width="27.1448" height="18.0966" rx="2.26207" fill="#1634C5"/>
<path fill-rule="evenodd" clip-rule="evenodd" d="M8.19772 12.2675H6.5337L5.28588 7.54081C5.22665 7.32338 5.1009 7.13116 4.91591 7.04057C4.45427 6.8129 3.94557 6.63171 3.39062 6.54032V6.35834H6.07124C6.4412 6.35834 6.71868 6.63171 6.76492 6.94919L7.41236 10.3587L9.07558 6.35834H10.6934L8.19772 12.2675ZM11.6184 12.2687H10.0468L11.3409 6.35946H12.9124L11.6184 12.2687ZM14.9456 7.99597C14.9918 7.6777 15.2693 7.49572 15.593 7.49572C16.1017 7.45003 16.6558 7.54141 17.1183 7.7683L17.3958 6.49602C16.9333 6.31404 16.4246 6.22266 15.963 6.22266C14.4377 6.22266 13.3278 7.04117 13.3278 8.17716C13.3278 9.04136 14.114 9.49513 14.6689 9.76849C15.2693 10.0411 15.5005 10.223 15.4543 10.4956C15.4543 10.9045 14.9918 11.0865 14.5302 11.0865C13.9752 11.0865 13.4203 10.9502 12.9124 10.7225L12.6349 11.9956C13.1899 12.2225 13.7902 12.3138 14.3452 12.3138C16.0555 12.3587 17.1183 11.541 17.1183 10.3136C17.1183 8.768 14.9456 8.6774 14.9456 7.99597V7.99597ZM22.6185 12.2687L21.3706 6.35946H20.0303C19.7529 6.35946 19.4754 6.54144 19.3829 6.81402L17.0722 12.2687H18.69L19.0129 11.4052H21.0007L21.1857 12.2687H22.6185ZM20.2612 7.9499L20.7228 10.177H19.4288L20.2612 7.9499Z" fill="white"/>
</svg>
