<svg width="51" height="19" viewBox="0 0 51 19" fill="none" xmlns="http://www.w3.org/2000/svg">
<rect width="50.8966" height="18.0966" rx="2.26207" fill="#EE293D"/>
<path d="M5.95169 11.2832C5.68188 11.2832 5.65527 11.1952 5.65527 10.5536V10.4442C5.65527 9.80044 5.68188 9.7133 5.95169 9.7133H12.1214C12.3921 9.7133 12.4187 9.80044 12.4187 10.4433V10.5528C12.4187 11.1952 12.3917 11.2828 12.1214 11.2828L5.95169 11.2832ZM5.95169 8.45824C5.68188 8.45824 5.65527 8.37066 5.65527 7.72825V7.61877C5.65527 6.97417 5.68188 6.88746 5.95169 6.88746H12.1214C12.3921 6.88746 12.4187 6.97504 12.4187 7.61877V7.72825C12.4187 8.37066 12.3917 8.45824 12.1214 8.45824H5.95169ZM16.2119 9.1383C16.2119 8.07506 16.7641 7.49045 17.5951 7.49045C17.9087 7.49045 18.1599 7.57628 18.474 7.72298C18.5879 7.77728 18.6822 7.75538 18.8316 7.42301L18.9404 7.19705C19.0477 6.92467 19.0557 6.81213 18.9254 6.75169C18.5403 6.54018 17.9442 6.40662 17.4293 6.40662C15.9622 6.40662 14.8521 7.49702 14.8521 9.1383C14.8521 10.7792 15.9622 11.8696 17.4289 11.8696C17.9442 11.8696 18.5539 11.7364 18.9404 11.5236C19.0692 11.4645 19.0608 11.3506 18.9544 11.0782L18.847 10.8396C18.6976 10.5068 18.6029 10.4879 18.488 10.5396C18.1739 10.6872 17.9092 10.773 17.5951 10.773C16.7641 10.773 16.2133 10.2011 16.2133 9.1383H16.2119ZM33.6936 11.6182C33.6936 11.7627 33.6357 11.8021 33.2002 11.8021H33.1568C32.6979 11.8021 32.634 11.7824 32.598 11.6769C32.574 11.6052 32.5548 11.5323 32.5406 11.4584C32.2979 11.7307 32.0052 11.8761 31.5594 11.8761C30.4783 11.8761 29.8285 11.1317 29.8285 9.93443C29.8285 8.6404 30.5516 7.87406 31.6238 7.87406C31.9258 7.87406 32.204 7.96164 32.4188 8.12104V6.43946C32.4188 6.32692 32.4328 6.28006 33.0349 6.28006H33.0784C33.6357 6.28006 33.6931 6.32692 33.6931 6.43946L33.6936 11.6182ZM32.4192 9.06517C32.3456 8.9897 32.2561 8.92945 32.1562 8.88828C32.0564 8.84711 31.9485 8.82592 31.8395 8.82607C31.3596 8.82607 31.1318 9.21713 31.1318 9.9353C31.1318 10.3469 31.2247 10.6084 31.3596 10.7454C31.481 10.8869 31.6677 10.9324 31.8474 10.9324C32.0691 10.9324 32.2405 10.8812 32.3198 10.7862C32.3903 10.7135 32.4188 10.6009 32.4188 10.3417L32.4192 9.06517ZM40.1896 11.6445C40.1896 11.7561 40.1322 11.8021 39.5734 11.8021H39.5305C38.9292 11.8021 38.9166 11.7561 38.9166 11.6445V6.43946C38.9166 6.32692 38.9292 6.28006 39.53 6.28006H39.573C40.1313 6.28006 40.1891 6.32692 40.1891 6.43946L40.1896 11.6445ZM35.7065 10.2607C35.7774 10.7323 36.092 10.9591 36.5864 10.9591C36.9668 10.9591 37.323 10.8803 37.7394 10.7135C37.8262 10.6806 37.9041 10.7135 37.9961 10.9775L38.0615 11.1255C38.1534 11.3979 38.1455 11.4584 38.0465 11.5105C37.5517 11.7693 37.0368 11.8752 36.4641 11.8752C35.1981 11.8752 34.4041 11.1527 34.4041 9.9156C34.4041 8.71266 35.1337 7.87406 36.3861 7.87406C37.625 7.87406 38.2608 8.69908 38.2608 9.84203C38.2608 10.2213 38.2258 10.2607 38.0825 10.2607H35.7065ZM36.9864 9.52367C36.9668 9.12604 36.795 8.77922 36.3726 8.77922C36.0061 8.77922 35.741 9.03759 35.691 9.52367H36.9864ZM42.1726 10.2607C42.2426 10.7323 42.5581 10.9591 43.053 10.9591C43.4301 10.9591 43.7896 10.8803 44.2046 10.7135C44.2895 10.6806 44.3698 10.7135 44.4622 10.9775L44.5271 11.1255C44.6191 11.3979 44.6116 11.4584 44.5131 11.5105C44.0183 11.7693 43.5025 11.8752 42.9293 11.8752C41.6628 11.8752 40.8697 11.1527 40.8697 9.9156C40.8697 8.71266 41.5979 7.87406 42.8508 7.87406C44.0907 7.87406 44.7274 8.69908 44.7274 9.84203C44.7274 10.2213 44.6914 10.2607 44.5481 10.2607H42.1726ZM43.4539 9.52367C43.4306 9.12604 43.2602 8.77922 42.8378 8.77922C42.4727 8.77922 42.2066 9.03759 42.1572 9.52367H43.4539ZM27.7914 9.09145C27.7269 9.0116 27.6436 8.94676 27.5481 8.90196C27.4526 8.85715 27.3474 8.83359 27.2406 8.83308C26.7607 8.83308 26.5324 9.22501 26.5324 9.92216C26.5324 10.5133 26.7023 10.9526 27.2251 10.9526C27.4193 10.9526 27.5612 10.9061 27.6625 10.812C27.755 10.72 27.7914 10.593 27.7914 10.3154V9.09145ZM29.0797 11.6182C29.0797 11.7627 29.0233 11.8021 28.5868 11.8021H28.528C28.0705 11.8021 28.0061 11.7824 27.9706 11.6769C27.9461 11.6054 27.9269 11.5324 27.9132 11.4584C27.6705 11.7307 27.3764 11.8761 26.932 11.8761C25.8943 11.8761 25.2282 11.1439 25.2282 9.94932C25.2282 8.62026 26.0516 7.87406 27.0254 7.87406C27.4193 7.87406 27.762 8.0282 27.9487 8.24716L27.9706 8.08075C27.9767 8.00193 27.9996 7.94938 28.4701 7.94938H28.521C29.0083 7.94938 29.0788 7.98135 29.0788 8.10265L29.0797 11.6182ZM23.1052 6.82614C23.5841 6.82614 23.613 6.83183 23.613 6.97809V7.9485H24.437C24.5508 7.9485 24.5863 7.96821 24.5863 8.33343V8.38729C24.5863 8.75163 24.5508 8.77265 24.437 8.77265H23.613V10.5142C23.613 10.8059 23.6695 10.9591 23.9557 10.9591C24.1051 10.9591 24.2358 10.9324 24.3646 10.8934C24.5 10.8448 24.5513 10.9061 24.6437 11.2109L24.6652 11.2841C24.7651 11.6182 24.7357 11.6445 24.6083 11.7031C24.3506 11.8161 24.0061 11.8761 23.6845 11.8761C22.6682 11.8761 22.3821 11.3979 22.3821 10.5659V8.77265H21.9022C21.7809 8.77265 21.7505 8.75075 21.7505 8.38729V8.33343C21.7505 7.96821 21.7804 7.94938 21.9022 7.94938H22.439C22.4974 7.63715 22.5964 7.19749 22.6612 6.97809C22.6972 6.85154 22.7187 6.82614 23.1052 6.82614ZM20.4425 7.94938C21.0013 7.94938 21.0508 7.99448 21.0508 8.10834V11.6445C21.0508 11.7627 21.0013 11.8021 20.4425 11.8021H20.4061C19.7914 11.8021 19.7773 11.7627 19.7773 11.6445V8.10834C19.7773 7.99448 19.7914 7.94938 20.4061 7.94938H20.4425ZM20.4061 6.22095C20.8094 6.22095 21.1017 6.51303 21.1017 6.84497C21.0999 6.92815 21.0804 7.01017 21.0445 7.08626C21.0086 7.16234 20.957 7.23096 20.8925 7.28813C20.7618 7.40418 20.5868 7.46724 20.4061 7.4633C20.0075 7.4633 19.712 7.17121 19.712 6.84497C19.712 6.51216 20.0075 6.22095 20.4061 6.22095Z" fill="white"/>
</svg>
