<svg width="37" height="19" viewBox="0 0 37 19" fill="none" xmlns="http://www.w3.org/2000/svg">
<rect width="36.1931" height="18.0966" rx="2.26207" fill="#7FC241"/>
<path d="M13.7108 7.19041L12.6744 7.94587C12.1848 7.5349 11.5527 7.45435 11.2062 7.45435C10.8596 7.45435 10.4851 7.5525 10.4302 7.79923C10.3749 8.03854 10.6028 8.22467 10.9942 8.32829C11.4405 8.44559 11.8471 8.5496 12.4733 8.724C13.4043 8.98325 14.0409 9.37662 14.0409 10.2881C14.0409 11.5448 12.8979 12.1963 11.3668 12.1963C9.83568 12.1963 8.79249 11.4178 8.48242 11.0545L9.57809 10.2549C10.3477 10.9098 10.8829 11.0021 11.3303 11.0021C11.8435 11.0021 12.3235 10.8946 12.3851 10.6111C12.4352 10.3835 12.2417 10.2025 11.8047 10.1027C11.3099 9.9913 10.8925 9.90176 10.4266 9.78211C9.16386 9.45873 8.80772 8.74199 8.80772 8.09837C8.80772 7.21192 9.653 6.30162 11.1989 6.30162C12.7842 6.30162 13.7124 7.18807 13.7124 7.18807L13.7108 7.19041ZM20.3184 6.39038H15.6966V12.0293H20.4017V10.7296H17.3194V9.8216H19.4427V8.57815H17.3194V7.6788H20.3172L20.3184 6.39038ZM14.5008 13.3302H14.8613V5.08984H14.5008V13.3302ZM21.0086 13.3302H21.3692V5.08984H21.0086V13.3302ZM22.2024 12.0293H25.9137C26.906 12.0293 27.71 11.4455 27.71 10.5106C27.71 9.78132 27.2209 9.29841 26.5354 9.08452C26.5135 9.0799 26.4913 9.07715 26.4689 9.07631C26.4914 9.0743 26.5136 9.07051 26.5354 9.06497C26.928 8.91326 27.3631 8.50933 27.3631 7.82152C27.3631 6.94915 26.5723 6.39273 25.5964 6.39273H22.2024V12.0293ZM23.8329 7.56501H25.1293C25.4277 7.56501 25.6693 7.79493 25.6693 8.05926C25.6693 8.32359 25.4289 8.5543 25.1293 8.5543H23.8329V7.56501ZM25.4185 10.7765H23.8329V9.74848H25.4185C25.5546 9.75366 25.6833 9.81006 25.7777 9.90585C25.8721 10.0016 25.9248 10.1294 25.9248 10.2623C25.9248 10.3952 25.8721 10.5229 25.7777 10.6187C25.6833 10.7145 25.5546 10.7713 25.4185 10.7765Z" fill="white"/>
</svg>
