<svg width="28" height="19" viewBox="0 0 28 19" fill="none" xmlns="http://www.w3.org/2000/svg">
<rect width="27.1448" height="18.0966" rx="2.26207" fill="#171717"/>
<path d="M16.5664 4.52344C19.054 4.52344 21.0703 6.54924 21.0703 9.04785C21.0702 11.5464 19.0539 13.5713 16.5664 13.5713C15.4511 13.5713 14.4312 13.1637 13.6445 12.4893C12.8579 13.1636 11.8379 13.5713 10.7227 13.5713C8.23529 13.5711 6.2189 11.5463 6.21875 9.04785C6.21875 6.54933 8.23519 4.52358 10.7227 4.52344C11.8378 4.52344 12.8579 4.93123 13.6445 5.60547C14.4311 4.93115 15.4512 4.52346 16.5664 4.52344Z" fill="#ED0006"/>
<path d="M16.5693 4.52344C19.0569 4.52344 21.0742 6.54924 21.0742 9.04785C21.0741 11.5464 19.0568 13.5713 16.5693 13.5713C15.4543 13.5712 14.435 13.1634 13.6484 12.4893C14.6163 11.6595 15.2304 10.4261 15.2305 9.04785C15.2305 7.66936 14.6165 6.43527 13.6484 5.60547C14.4349 4.93142 15.4544 4.52351 16.5693 4.52344Z" fill="#F9A000"/>
<path d="M13.6445 5.60547C14.6124 6.43523 15.2275 7.66855 15.2275 9.04688C15.2275 10.4252 14.6124 11.6585 13.6445 12.4883C12.6769 11.6585 12.0625 10.425 12.0625 9.04688C12.0626 7.66873 12.6768 6.43522 13.6445 5.60547Z" fill="#FF5E00"/>
</svg>
