<svg width="50" height="31" viewBox="0 0 50 31" fill="none" xmlns="http://www.w3.org/2000/svg">
<rect width="49.9997" height="30.7741" fill="#1634C5"/>
<path fill-rule="evenodd" clip-rule="evenodd" d="M16.5004 20.6894H13.5579L11.3514 12.3312C11.2466 11.9467 11.0243 11.6068 10.6972 11.4466C9.88084 11.044 8.98131 10.7236 8 10.562V10.2402H12.7401C13.3943 10.2402 13.885 10.7236 13.9667 11.285L15.1116 17.3141L18.0527 10.2402H20.9134L16.5004 20.6894ZM22.5485 20.6914H19.7695L22.0578 10.2422H24.8367L22.5485 20.6914ZM28.4324 13.1357C28.5142 12.5729 29.0049 12.2512 29.5773 12.2512C30.4768 12.1704 31.4567 12.3319 32.2745 12.7331L32.7651 10.4834C31.9474 10.1616 31.0478 10 30.2315 10C27.5343 10 25.5717 11.4474 25.5717 13.4561C25.5717 14.9843 26.9619 15.7867 27.9432 16.2701C29.0049 16.7521 29.4138 17.0739 29.332 17.5559C29.332 18.2788 28.5142 18.6006 27.6979 18.6006C26.7166 18.6006 25.7353 18.3596 24.8372 17.957L24.3465 20.2082C25.3278 20.6094 26.3895 20.771 27.3708 20.771C30.3951 20.8504 32.2745 19.4044 32.2745 17.2341C32.2745 14.5009 28.4324 14.3407 28.4324 13.1357V13.1357ZM41.9997 20.6914L39.7932 10.2422H37.4232C36.9325 10.2422 36.4418 10.564 36.2783 11.046L32.1924 20.6914H35.0531L35.6241 19.1646H39.139L39.4661 20.6914H41.9997ZM37.8323 13.0547L38.6486 16.9928H36.3604L37.8323 13.0547Z" fill="white"/>
</svg>
