<svg width="77" height="31" viewBox="0 0 77 31" fill="none" xmlns="http://www.w3.org/2000/svg">
<rect width="77" height="31" fill="#481335"/>
<path d="M64.3575 21.784V18.7785C64.3575 17.7467 64.5458 17.0928 65.152 16.5408C65.923 15.8269 67 15.8389 67 15.8389V13.6133C64.6988 13.6133 64.2515 14.9151 64.2515 14.9151L63.5924 13.8173H62.2152V21.784H64.3575ZM21.4 21.994C23.4481 21.994 23.9837 20.6922 23.9837 20.6922L24.6429 21.79H26.02V13.8233H23.8777V17.7766C23.8777 18.8085 23.5658 19.4804 23.0715 19.7983C22.8302 19.9603 22.4417 20.0323 22.0768 20.0323C20.8409 20.0323 20.529 19.3184 20.529 18.1366V13.8233H18.3749V18.7785C18.3808 21.0042 19.4696 21.994 21.4 21.994ZM49.0672 13.6133C49.079 13.6133 49.079 13.6133 49.0672 13.6133C47.0191 13.6133 46.4835 14.9151 46.4835 14.9151L45.8361 13.8173H44.459V21.784H46.6012V17.8426C46.6012 16.8108 46.9132 16.1389 47.4075 15.821C47.6488 15.659 48.0373 15.587 48.4022 15.587C49.6381 15.587 49.95 16.3009 49.95 17.4827V21.784H52.0923V16.8288C52.0864 14.6031 51.0035 13.6133 49.0672 13.6133ZM37.1964 13.6133C35.2189 13.6133 34.648 14.8071 34.6362 14.8191L34.595 14.9151L34.5421 14.8311C34.0065 14.0092 33.2473 13.6193 31.9819 13.6193C30.0044 13.6193 29.4336 14.8131 29.4218 14.8251L29.3806 14.9211L28.7214 13.8233H27.3442V14.9211V16.5708V21.79H29.4865V17.8486C29.4865 16.3069 30.0103 15.593 31.1168 15.593C32.0996 15.593 32.5587 16.1869 32.5587 17.4647V21.79H34.701V17.7946C34.701 16.2949 35.213 15.587 36.3018 15.587C36.9374 15.587 37.7732 15.779 37.7732 17.4827V21.784H39.9154V16.8288C39.9272 14.6031 39.0797 13.6133 37.1964 13.6133ZM12.2247 19.5104V10.6198H10V21.784H17.6392V19.5164H12.2247V19.5104ZM40.5334 10.6198L42.1225 12.2395L43.7115 10.6198L42.1225 9L40.5334 10.6198ZM41.0101 13.8113H43.2348V21.778H41.0101V13.8113ZM57.0949 13.6133C55.8295 13.6133 54.7525 14.0392 53.9697 14.8491C53.24 15.605 52.8398 16.6608 52.8398 17.8006C52.8398 18.9405 53.2341 19.9963 53.9697 20.7522C54.7407 21.5621 55.8295 22 57.0949 22C59.6021 22 61.3559 20.2723 61.3559 17.8006C61.3559 15.329 59.6021 13.6133 57.0949 13.6133ZM57.0831 20.1403C55.859 20.1403 54.982 19.1624 54.982 17.8066C54.982 16.4748 55.8825 15.473 57.0831 15.473C58.3073 15.473 59.2136 16.4748 59.2136 17.8066C59.2136 19.1504 58.3191 20.1403 57.0831 20.1403Z" fill="white"/>
</svg>
