<svg width="43" height="32" viewBox="0 0 43 32" fill="none" xmlns="http://www.w3.org/2000/svg">
<rect width="42.2627" height="32" fill="#171717"/>
<path d="M26.2979 8C30.6966 8.00009 34.2627 11.5818 34.2627 16C34.2627 20.4182 30.6966 23.9999 26.2979 24C24.3256 24 22.5219 23.2785 21.1309 22.0859C19.7399 23.2783 17.9368 24 15.9648 24C11.5661 24 8 20.4183 8 16C8 11.5817 11.5661 8 15.9648 8C17.9366 8.00004 19.74 8.72095 21.1309 9.91309C22.5218 8.72073 24.3259 8 26.2979 8Z" fill="#ED0006"/>
<path d="M26.2988 8C30.6975 8.00009 34.2637 11.5818 34.2637 16C34.2637 20.4182 30.6975 23.9999 26.2988 24C24.3269 24 22.5238 23.2783 21.1328 22.0859C22.8445 20.6186 23.9316 18.4375 23.9316 16C23.9316 13.5623 22.8447 11.3804 21.1328 9.91309C22.5237 8.72101 24.3271 8 26.2988 8Z" fill="#F9A000"/>
<path d="M21.1338 9.91406C22.8455 11.3814 23.9326 13.5625 23.9326 16C23.9326 18.4375 22.8455 20.6186 21.1338 22.0859C19.4223 20.6186 18.3359 18.4373 18.3359 16C18.3359 13.5627 19.4223 11.3814 21.1338 9.91406Z" fill="#FF5E00"/>
</svg>
