<svg width="50" height="31" viewBox="0 0 50 31" fill="none" xmlns="http://www.w3.org/2000/svg">
<rect width="50" height="30.5714" fill="#7FC241"/>
<path d="M17.2452 11.7144L15.4126 13.0503C14.547 12.3236 13.4291 12.1811 12.8164 12.1811C12.2036 12.1811 11.5413 12.3547 11.4442 12.791C11.3464 13.2142 11.7495 13.5433 12.4416 13.7265C13.2308 13.9339 13.9498 14.1179 15.057 14.4263C16.7033 14.8847 17.8289 15.5803 17.8289 17.192C17.8289 19.4143 15.8079 20.5662 13.1004 20.5662C10.3929 20.5662 8.5483 19.1896 8 18.5472L9.93745 17.1332C11.2983 18.2914 12.2447 18.4546 13.036 18.4546C13.9434 18.4546 14.7921 18.2644 14.9012 17.7631C14.9897 17.3607 14.6476 17.0406 13.8747 16.8643C12.9998 16.6672 12.2617 16.5089 11.4378 16.2973C9.20498 15.7255 8.57522 14.4581 8.57522 13.3199C8.57522 11.7525 10.0699 10.1428 12.8036 10.1428C15.6067 10.1428 17.2481 11.7103 17.2481 11.7103L17.2452 11.7144ZM28.9295 10.2997H20.7567V20.271H29.0768V17.9727H23.6264V16.3671H27.3809V14.1683H23.6264V12.578H28.9273L28.9295 10.2997ZM18.6422 22.5714H19.2797V8H18.6422V22.5714ZM30.15 22.5714H30.7876V8H30.15V22.5714ZM32.261 20.271H38.8236C40.5783 20.271 42 19.2387 42 17.5854C42 16.2959 41.1351 15.442 39.923 15.0638C39.8843 15.0556 39.845 15.0507 39.8054 15.0492C39.8451 15.0457 39.8844 15.039 39.923 15.0292C40.6172 14.7609 41.3865 14.0467 41.3865 12.8304C41.3865 11.2878 39.9882 10.3039 38.2625 10.3039H32.261V20.271ZM35.1442 12.3768H37.4365C37.9643 12.3768 38.3914 12.7834 38.3914 13.2508C38.3914 13.7182 37.9664 14.1262 37.4365 14.1262H35.1442V12.3768ZM37.948 18.0556H35.1442V16.2378H37.948C38.1886 16.247 38.4162 16.3467 38.5831 16.5161C38.75 16.6855 38.8432 16.9114 38.8432 17.1464C38.8432 17.3814 38.75 17.6073 38.5831 17.7767C38.4162 17.946 38.1886 18.0465 37.948 18.0556Z" fill="white"/>
</svg>
