<svg width="90" height="32" viewBox="0 0 90 32" fill="none" xmlns="http://www.w3.org/2000/svg">
<rect width="90" height="32" fill="#EE293D"/>
<path d="M8.5614 19.9516C8.05039 19.9516 8 19.7959 8 18.6615V18.4679C8 17.3296 8.05039 17.1755 8.5614 17.1755H20.2464C20.7592 17.1755 20.8096 17.3296 20.8096 18.4663V18.6599C20.8096 19.7959 20.7583 19.9508 20.2464 19.9508L8.5614 19.9516ZM8.5614 14.9562C8.05039 14.9562 8 14.8013 8 13.6653V13.4718C8 12.3319 8.05039 12.1786 8.5614 12.1786H20.2464C20.7592 12.1786 20.8096 12.3335 20.8096 13.4718V13.6653C20.8096 14.8013 20.7583 14.9562 20.2464 14.9562H8.5614ZM27.9936 16.1587C27.9936 14.2786 29.0395 13.2448 30.6132 13.2448C31.2073 13.2448 31.6829 13.3966 32.2779 13.656C32.4936 13.7521 32.6722 13.7133 32.9551 13.1256L33.1611 12.726C33.3645 12.2444 33.3795 12.0454 33.1328 11.9385C32.4034 11.5645 31.2745 11.3283 30.2993 11.3283C27.5206 11.3283 25.4183 13.2565 25.4183 16.1587C25.4183 19.0602 27.5206 20.9884 30.2984 20.9884C31.2745 20.9884 32.4291 20.753 33.1611 20.3766C33.4051 20.2721 33.3892 20.0708 33.1876 19.5891L32.9843 19.1671C32.7014 18.5786 32.5219 18.5453 32.3044 18.6367C31.7094 18.8976 31.2082 19.0494 30.6132 19.0494C29.0395 19.0494 27.9963 18.0381 27.9963 16.1587H27.9936ZM61.1028 20.5439C61.1028 20.7994 60.9931 20.8691 60.1683 20.8691H60.0861C59.217 20.8691 59.0959 20.8343 59.0278 20.6477C58.9823 20.521 58.9459 20.392 58.9191 20.2613C58.4593 20.7429 57.905 21 57.0607 21C55.0132 21 53.7825 19.6836 53.7825 17.5665C53.7825 15.2783 55.152 13.9232 57.1827 13.9232C57.7547 13.9232 58.2816 14.0781 58.6883 14.3599V11.3864C58.6883 11.1874 58.7148 11.1045 59.8553 11.1045H59.9375C60.9931 11.1045 61.1019 11.1874 61.1019 11.3864L61.1028 20.5439ZM58.6892 16.0294C58.5498 15.896 58.3801 15.7894 58.1911 15.7166C58.002 15.6438 57.7977 15.6064 57.5912 15.6066C56.6823 15.6066 56.2509 16.2981 56.2509 17.5681C56.2509 18.296 56.4268 18.7582 56.6823 19.0006C56.9122 19.2507 57.2658 19.3313 57.6062 19.3313C58.0261 19.3313 58.3506 19.2407 58.5009 19.0726C58.6344 18.9441 58.6883 18.7451 58.6883 18.2867L58.6892 16.0294ZM73.4058 20.5904C73.4058 20.7878 73.297 20.8691 72.2388 20.8691H72.1574C71.0187 20.8691 70.9949 20.7878 70.9949 20.5904V11.3864C70.9949 11.1874 71.0187 11.1045 72.1565 11.1045H72.2379C73.2953 11.1045 73.4049 11.1874 73.4049 11.3864L73.4058 20.5904ZM64.915 18.1434C65.0494 18.9774 65.6452 19.3785 66.5815 19.3785C67.302 19.3785 67.9766 19.2391 68.7652 18.9441C68.9296 18.886 69.0773 18.9441 69.2514 19.411L69.3752 19.6728C69.5494 20.1544 69.5343 20.2613 69.3469 20.3534C68.4098 20.8111 67.4346 20.9985 66.3498 20.9985C63.9522 20.9985 62.4484 19.7208 62.4484 17.5332C62.4484 15.4061 63.8302 13.9232 66.2022 13.9232C68.5486 13.9232 69.7527 15.3821 69.7527 17.4031C69.7527 18.0737 69.6864 18.1434 69.415 18.1434H64.915ZM67.3391 16.8402C67.302 16.1371 66.9767 15.5238 66.1766 15.5238C65.4825 15.5238 64.9804 15.9806 64.8858 16.8402H67.3391ZM77.1614 18.1434C77.294 18.9774 77.8916 19.3785 78.8288 19.3785C79.5431 19.3785 80.2239 19.2391 81.0098 18.9441C81.1707 18.886 81.3228 18.9441 81.4978 19.411L81.6207 19.6728C81.7949 20.1544 81.7807 20.2613 81.5942 20.3534C80.6571 20.8111 79.6802 20.9985 78.5945 20.9985C76.196 20.9985 74.6939 19.7208 74.6939 17.5332C74.6939 15.4061 76.0731 13.9232 78.446 13.9232C80.7941 13.9232 82 15.3821 82 17.4031C82 18.0737 81.9319 18.1434 81.6605 18.1434H77.1614ZM79.5882 16.8402C79.544 16.1371 79.2213 15.5238 78.4212 15.5238C77.7299 15.5238 77.2259 15.9806 77.1322 16.8402H79.5882ZM49.9243 16.0759C49.8022 15.9347 49.6445 15.82 49.4636 15.7408C49.2827 15.6616 49.0834 15.6199 48.8811 15.619C47.9723 15.619 47.5399 16.3121 47.5399 17.5448C47.5399 18.5902 47.8618 19.3669 48.8519 19.3669C49.2197 19.3669 49.4885 19.2848 49.6803 19.1183C49.8554 18.9557 49.9243 18.7311 49.9243 18.2402V16.0759ZM52.3644 20.5439C52.3644 20.7994 52.2575 20.8691 51.4308 20.8691H51.3194C50.453 20.8691 50.331 20.8343 50.2638 20.6477C50.2173 20.5213 50.181 20.3921 50.1551 20.2613C49.6954 20.7429 49.1384 21 48.2967 21C46.3314 21 45.0698 19.7053 45.0698 17.5928C45.0698 15.2427 46.6293 13.9232 48.4735 13.9232C49.2197 13.9232 49.8686 14.1958 50.2223 14.5829L50.2638 14.2887C50.2753 14.1493 50.3186 14.0564 51.2098 14.0564H51.3062C52.2292 14.0564 52.3627 14.1129 52.3627 14.3274L52.3644 20.5439ZM41.049 12.0702C41.956 12.0702 42.0109 12.0802 42.0109 12.3389V14.0548H43.5713C43.787 14.0548 43.8542 14.0897 43.8542 14.7355V14.8307C43.8542 15.475 43.787 15.5122 43.5713 15.5122H42.0109V18.5918C42.0109 19.1075 42.1178 19.3785 42.6598 19.3785C42.9427 19.3785 43.1902 19.3313 43.4342 19.2624C43.6906 19.1764 43.7879 19.2848 43.9629 19.8238L44.0036 19.9531C44.1928 20.5439 44.1371 20.5904 43.8957 20.6941C43.4077 20.8939 42.7553 21 42.1461 21C40.2215 21 39.6795 20.1544 39.6795 18.6831V15.5122H38.7707C38.5408 15.5122 38.4833 15.4734 38.4833 14.8307V14.7355C38.4833 14.0897 38.5399 14.0564 38.7707 14.0564H39.7874C39.8979 13.5043 40.0853 12.7268 40.2082 12.3389C40.2763 12.1151 40.3169 12.0702 41.049 12.0702ZM36.0061 14.0564C37.0644 14.0564 37.1581 14.1361 37.1581 14.3375V20.5904C37.1581 20.7994 37.0644 20.8691 36.0061 20.8691H35.9372C34.7728 20.8691 34.7463 20.7994 34.7463 20.5904V14.3375C34.7463 14.1361 34.7728 14.0564 35.9372 14.0564H36.0061ZM35.9372 11C36.701 11 37.2544 11.5165 37.2544 12.1035C37.251 12.2505 37.2143 12.3956 37.1463 12.5301C37.0783 12.6647 36.9804 12.786 36.8584 12.8871C36.6108 13.0923 36.2793 13.2038 35.9372 13.1968C35.1821 13.1968 34.6225 12.6803 34.6225 12.1035C34.6225 11.5149 35.1821 11 35.9372 11Z" fill="white"/>
</svg>
