<svg width="83" height="20" viewBox="0 0 83 20" fill="none" xmlns="http://www.w3.org/2000/svg">
<path d="M80.4844 1.86433C80.7385 1.84453 81.0177 1.84913 81.2745 1.84766C81.3737 3.61114 81.3268 5.60439 81.3268 7.39108L81.3337 15.7289C81.3333 16.0252 81.3461 17.1129 81.1619 17.2965C80.8106 17.3636 79.4358 17.2944 79.022 17.2825C78.9494 16.9463 78.9356 16.3723 78.7753 16.1022C78.5691 16.0175 75.6418 19.2571 71.3779 16.1134C70.5714 15.4136 69.6752 14.1915 69.4254 13.1394C69.1994 12.1877 69.2058 10.391 69.492 9.46517C70.0725 7.58611 71.8768 5.88771 73.8064 5.45401C75.4976 5.03578 77.0189 5.45488 78.4207 6.44953C78.5686 6.55458 78.7427 6.63781 78.9214 6.59073C78.9623 6.39046 78.943 5.2665 78.942 5.01281L78.9522 1.90241C79.3917 1.86879 80.0288 1.87324 80.4844 1.86433ZM75.8871 15.0914C77.9329 14.7709 79.3288 12.8489 79.0004 10.8045C78.672 8.76 76.7451 7.37156 74.702 7.70752C72.6695 8.04169 71.2902 9.95639 71.6168 11.9899C71.9434 14.0235 73.8528 15.4101 75.8871 15.0914Z" fill="#353639"/>
<path d="M48.6362 5.30332C50.8464 5.19538 52.9483 6.45373 54.109 8.30454C54.4971 8.92386 55.2343 11.611 54.8724 12.2241C54.7433 12.3166 54.713 12.3311 54.5316 12.3312C53.9569 12.3316 53.3731 12.3211 52.799 12.3195L48.5751 12.3151C47.5522 12.3156 46.4907 12.288 45.4779 12.4002C45.539 12.8861 45.6777 13.3305 45.9923 13.7114C46.5968 14.4386 47.4134 15.0341 48.3413 15.1374C50.0536 15.3279 50.9746 14.8113 52.0967 13.6003C52.3176 13.3619 52.6208 13.4132 52.94 13.4568C53.296 13.5236 54.2661 13.7075 54.4245 14.0532C54.4346 14.4431 53.9914 14.9707 53.7434 15.2534C52.5836 16.5836 50.9346 17.388 49.1717 17.4834C47.7074 17.5731 45.9689 16.8666 44.8761 15.8981C43.7104 14.878 43.0049 13.4309 42.9199 11.884C42.8207 10.2452 43.2584 8.64587 44.3622 7.40043C45.4457 6.15328 46.9872 5.39698 48.6362 5.30332ZM49.6007 10.3027C50.444 10.326 51.5735 10.3816 52.3943 10.3163C51.7807 8.39682 50.5782 7.47461 48.5392 7.59991C48.2232 7.63349 47.9899 7.67575 47.6821 7.74778C47.0882 7.88659 45.0686 9.60079 45.6754 10.2284C46.0989 10.3538 48.9604 10.3013 49.6007 10.3027Z" fill="#353639"/>
<path d="M19.4868 5.30144C20.626 5.22767 21.8714 5.6436 22.8248 6.23909C23.689 6.77872 24.5799 8.10386 24.7316 9.1206C24.9317 10.6174 24.8393 12.2227 24.8449 13.7337C24.8475 14.4474 24.9885 16.7545 24.6702 17.2183C24.4295 17.3549 22.7578 17.2966 22.3817 17.2951C22.2194 15.7696 22.3873 13.745 22.3365 12.1738C22.3148 11.3954 22.3937 10.5896 22.2197 9.82298C21.8096 8.01626 20.1827 7.38504 18.4999 7.74902C18.2345 7.84029 18 7.99197 17.7829 8.16707C17.2544 8.59324 16.7565 9.20236 16.5297 9.84865C16.0147 11.3159 16.4432 15.4612 16.2413 17.3479C15.6667 17.2609 14.2204 17.397 13.9612 17.2407C13.7395 16.6276 13.8115 14.8286 13.8122 14.0767L13.8195 10.0008L13.8161 7.63662C13.8058 5.58582 13.497 5.29565 15.7942 5.52794C16.1757 5.56652 16.4489 6.23638 16.6776 6.55341C16.7009 6.52484 16.7245 6.49664 16.7485 6.46876C17.3464 5.77111 18.5791 5.37062 19.4868 5.30144Z" fill="#353639"/>
<path d="M2.79955 5.44141L2.89674 5.47429C3.20261 5.8922 2.8583 11.6947 3.06646 12.6178C3.26774 13.5104 3.59997 14.0917 4.34287 14.613C6.34382 16.0168 8.83155 14.4665 9.0704 12.1998C9.15133 11.5155 9.13424 10.7307 9.13456 9.9583L9.12643 7.11262C9.12428 6.63339 9.05786 5.94337 9.3295 5.5629C9.53234 5.40953 11.2139 5.51527 11.5912 5.53566C11.6914 6.23955 11.6684 7.20526 11.6674 7.9335L11.6635 11.1854L11.6207 17.329C11.1484 17.2414 9.86296 17.2972 9.31136 17.3051C9.22836 16.95 9.08064 16.5409 8.96315 16.1896C8.94046 16.2096 8.91758 16.2295 8.89457 16.2491C6.74623 18.0808 3.59478 17.85 1.71858 15.7251C0.68975 14.5417 0.470424 12.9398 0.554067 11.4266C0.660491 9.50149 0.434459 7.42175 0.584474 5.51683C1.32945 5.5132 2.05683 5.503 2.79955 5.44141Z" fill="#353639"/>
<path d="M62.2449 5.30346C64.7772 5.22317 67.3347 6.9512 67.4826 9.61917C67.6029 11.9549 67.4752 14.2929 67.5368 16.6315C67.5474 17.0373 67.4036 17.3718 66.9351 17.3241C66.4105 17.2707 65.7459 17.4061 65.2549 17.2223C64.9761 17.1178 65.1497 16.0675 65.1051 15.8027C65.0904 14.814 65.1166 13.8318 65.1166 12.844C65.1001 11.1755 65.3899 8.93885 63.6541 7.98388C62.8742 7.56827 61.8159 7.57167 60.9864 7.83745C60.1077 8.32655 59.4389 9.18363 59.1578 10.1514C58.9488 10.8716 59.043 11.61 59.0095 12.3397C58.936 13.9334 59.1629 15.7789 58.9121 17.3347C58.382 17.2721 56.9701 17.3948 56.6835 17.2503C56.4671 16.5838 56.5714 14.7815 56.576 13.9936L56.5962 9.84402C56.6022 9.25257 56.503 5.76643 56.7322 5.52431C57.0215 5.4635 58.3311 5.46639 58.6365 5.57581C58.9645 5.69344 59.1252 6.30432 59.2534 6.64749C60.0397 5.79018 61.1058 5.39717 62.2449 5.30346Z" fill="#353639"/>
<path d="M36.1024 5.30269C37.3918 5.21206 38.5016 5.58675 39.6915 6.03093C40.1349 6.19642 40.5005 6.40698 40.9704 6.53372C41.0154 6.98593 41.1638 8.70817 40.8785 8.9971C40.4155 8.88819 39.9891 8.59885 39.5781 8.3678C38.8479 7.95739 38.0942 7.67306 37.2606 7.5636C36.4435 7.4563 35.3348 7.48032 34.6599 8.01104C34.4352 8.1877 34.1019 8.55508 34.0833 8.85695C34.0229 9.83649 38.1606 10.4676 38.9843 10.7685C39.7031 11.0311 40.427 11.4158 40.9208 12.016C41.3967 12.5946 41.5969 13.5534 41.5165 14.2904C41.4279 15.1003 40.9778 15.8836 40.3407 16.3877C39.2074 17.2847 37.4689 17.6129 36.0609 17.4482C34.4592 17.1864 32.7943 16.7103 31.7418 15.4211C31.7268 15.0621 31.7045 13.3344 31.7787 13.0848L31.8428 13.0688L31.8802 13.2279C31.9829 13.3698 32.2181 13.3645 32.3899 13.4676C33.6167 14.2063 34.8178 15.1495 36.3169 15.1839C36.7157 15.193 37.8747 15.2111 38.2064 15.021L38.2317 15.0062C38.4751 14.8656 38.71 14.6646 38.8967 14.4538C39.0355 14.297 39.1435 14.0915 39.1264 13.8765C39.0379 12.77 35.5236 12.1892 34.6311 11.8933C33.9216 11.6581 33.1909 11.3466 32.6119 10.8633C32.1126 10.4464 31.818 9.9109 31.7614 9.25851C31.6906 8.44254 31.991 7.47605 32.5204 6.85213C33.3387 5.88766 34.8849 5.40476 36.1024 5.30269Z" fill="#353639"/>
<path d="M29.9313 3.14322C30.6203 3.1214 31.0964 3.09811 31.7853 3.20918C31.8676 3.70191 31.9712 4.6503 31.7302 5.07276C31.353 5.80526 30.4192 5.49617 29.8981 5.61886C29.2905 5.7619 29.4687 8.01693 29.4691 8.51425L29.4705 13.8225C29.4721 14.3939 29.5588 16.7871 29.3437 17.206C29.2423 17.3051 29.218 17.3041 29.0749 17.3186C28.6016 17.3086 27.4423 17.3327 27.0943 17.1551C26.9668 17.0899 27.0327 14.4844 27.0324 14.1633L27.0333 9.16279C27.0335 8.51315 26.9595 6.53676 27.1424 5.89373C27.271 5.44179 28.7363 5.58441 29.0587 5.48285C29.7504 5.26499 29.1637 3.80223 29.5153 3.2281C29.6233 3.12576 29.7783 3.14547 29.9313 3.14322Z" fill="#353639"/>
</svg>
