<svg width="466" height="211" viewBox="0 0 466 211" fill="none" xmlns="http://www.w3.org/2000/svg">
<g clip-path="url(#clip0_6865_1228)">
<path d="M355.808 -0.389926C414.039 -0.927959 461.715 45.7502 462.367 103.943C463.02 162.135 416.405 209.871 358.176 210.638C299.786 211.407 251.857 164.665 251.202 106.31C250.547 47.9546 297.414 0.149574 355.808 -0.389926Z" fill="#BC2E28"/>
<path d="M302.276 60.0931C309.682 59.1022 319.688 60.8787 325.119 66.3383C326.753 67.9833 328.258 69.7051 329.906 71.3577C329.942 68.121 330.083 64.7471 330.171 61.5004C336.157 61.8532 345.585 61.5465 351.915 61.5844C351.495 77.5651 351.368 93.5518 351.533 109.537C351.542 117.766 351.906 129.354 350.969 137.204C350.395 141.743 349.223 146.187 347.477 150.417C343.816 159.214 337.912 164.739 329.016 168.441C317.085 173.406 299.828 172.923 287.28 170.408C283.874 169.725 278.166 167.36 274.81 165.958C275.445 163.255 276.156 160.569 276.944 157.906C278.034 154.285 279.274 150.41 279.697 146.671C291.746 153.765 314.525 158.444 323.679 144.449C327.253 138.988 326.403 133.46 326.926 127.328C320.758 133.115 316.197 136.976 307.445 137.818C256.982 142.67 253.357 64.9407 302.276 60.0931Z" fill="#FEFEFE"/>
<path d="M310.319 78.0115C319.391 77.1634 326.547 85.1032 326.321 93.8647C326.127 101.383 327.82 109.496 321.869 115.382C318.122 119.088 315.016 119.984 309.94 120.074C292.366 118.733 289.019 95.7372 298.332 83.8615C301.483 79.8465 305.447 78.4682 310.319 78.0115Z" fill="#BC2E28"/>
<path d="M399.928 60.0985C412.056 59.2251 423.356 61.122 433.148 68.7464C444.321 77.4665 449.284 92.2031 447.101 106.03C443.724 127.398 428.205 138.147 407.707 140.63C396.431 142.214 381.075 137.688 372.409 130.326C365.097 124.171 360.56 115.344 359.813 105.819C358.473 88.9168 363.901 74.727 378.968 65.8404C385.983 61.7044 391.94 60.7273 399.928 60.0985Z" fill="#FEFEFE"/>
<path d="M400.405 77.6878C410.92 77.1113 417.191 80.4141 420.08 91.2241C422.005 98.4238 421.511 108.48 417.693 115.04C415.107 119.49 411.628 121.52 406.641 122.744C402.227 123.563 397.672 122.586 393.98 120.031C381.282 111.184 382.525 80.7889 400.405 77.6878Z" fill="#BC2E28"/>
<path d="M122.661 60.1133C123.871 60.1142 125.08 60.1447 126.288 60.204C150.312 61.4548 161.49 78.5344 160.824 101.502C160.761 103.656 160.627 105.813 160.504 107.964C151.35 107.474 139.197 107.957 129.874 107.897C123.445 107.855 111.667 107.513 105.683 108.021C105.797 108.706 105.941 109.384 106.115 110.056C110.395 126.421 140.953 122.612 152.972 119.407L154.32 124.36C155.083 126.695 155.778 129.573 156.059 132.011C156.194 133.175 156.175 134.479 155.358 135.41C153.157 137.916 134.941 140.164 130.713 140.394C118.22 141.075 103.907 138.534 94.3617 129.928C86.7464 123.062 82.8311 113.713 82.3503 103.527C81.8231 92.3497 85.6885 80.7888 93.2673 72.5147C101.424 63.6102 110.887 60.6255 122.661 60.1133ZM105.462 91.2334C111.484 91.0698 117.389 91.3703 123.483 91.1612C125.824 91.2742 136.308 91.5283 137.747 90.4998C138.26 88.7852 136.539 84.4704 135.669 82.8296C132.508 76.8751 126.403 75.486 120.226 75.9009C110.795 78.0451 107.564 82.1603 105.462 91.2334Z" fill="#3C3465"/>
<path d="M213.035 60.3646C221.812 59.1288 231.409 61.4154 237.755 67.902C248.804 79.1957 246.699 94.7079 246.737 109.39C246.801 119.114 246.807 128.838 246.755 138.563C238.68 138.466 230.298 138.756 222.271 138.419C221.149 125.951 222.692 111.833 222.001 99.1998C221.691 93.6829 221.742 86.8859 217.296 82.8592C210.853 77.0239 202.802 78.6592 197.185 84.6495C196.956 84.878 196.737 85.117 196.529 85.3658C195.088 87.0909 194.048 89.4454 193.849 91.7026C192.774 103.915 193.74 116.353 193.563 128.62C193.516 131.842 193.415 135.438 193.688 138.625C191.592 138.402 185.745 138.505 183.496 138.541C178.85 138.615 173.287 138.377 168.781 138.746C168.558 124.479 168.799 109.794 168.801 95.4841L168.496 62.0224C172.103 61.6136 185.92 61.6327 189.619 61.9546C190.038 65.7449 190.19 69.9361 190.798 73.621C198.138 64.7373 201.652 62.0145 213.035 60.3646Z" fill="#393262"/>
<path d="M0.529522 61.8186C4.43897 61.8624 24.6274 60.989 26.6337 62.2395C28.0103 63.0976 40.3842 103.452 41.6506 107.666C42.0652 109.045 43.2501 115.589 44.0383 116.204C45.4892 114.766 46.4684 107.084 47.2457 104.563C47.914 102.397 48.8153 100.078 49.4498 97.9423C51.9627 89.3449 54.5838 80.7796 57.3118 72.248C58.048 69.9396 59.5629 63.9734 60.712 62.3029C63.3269 61.2633 82.369 61.7857 86.6575 61.838C84.5907 67.0606 82.2453 72.8054 80.2742 77.9716C79.0673 81.4659 77.3178 85.3343 75.8937 88.7916L67.1212 110.109L60.6817 126.277C59.0328 130.508 58.0095 134.58 55.4675 138.316C50.58 138.933 35.7216 138.535 30.1147 138.483C20.9581 116.044 12.4368 92.9173 3.29855 70.4186C2.65032 68.8227 0.0217618 63.1446 0.529522 61.8186Z" fill="#312954"/>
</g>
<defs>
<clipPath id="clip0_6865_1228">
<rect width="465.956" height="210.999" fill="white"/>
</clipPath>
</defs>
</svg>
