<svg width="83" height="16" viewBox="0 0 83 16" fill="none" xmlns="http://www.w3.org/2000/svg">
<g clip-path="url(#clip0_6846_2136)">
<path d="M39.3493 8.01443V12.9731H35.4317V8.58963C35.4317 7.20121 34.9592 6.58634 33.8764 6.58634C32.7542 6.58634 32.1636 7.28055 32.1636 8.64914V12.9731H28.2656V4.02768H31.0612L32.0652 5.85246C32.7542 4.46404 33.9748 3.75 35.6482 3.75C38.0697 3.75 39.3493 5.23759 39.3493 8.01443Z" fill="#9339F2"/>
<path d="M40.9531 0.0195312H44.9693V2.91538H40.9531V0.0195312ZM41.0122 4.02611H44.9299V12.9715H41.0122V4.02611Z" fill="#9339F2"/>
<path d="M53.9595 3.76953C52.5223 3.76953 51.2821 4.30506 50.534 5.37613L49.7858 4.02738H46.7344V15.8686H50.6324V11.8819C51.4592 12.7744 52.4436 13.2505 53.8217 13.2505C56.4794 13.2505 58.2906 11.3662 58.2906 8.43065C58.2906 5.61415 56.5581 3.76953 53.9595 3.76953ZM52.4239 10.7711C51.282 10.7711 50.5536 9.93808 50.5536 8.64883V8.33148C50.5536 6.9629 51.2427 6.20918 52.4042 6.20918C53.5854 6.20918 54.2351 7.0224 54.2351 8.43065C54.2351 9.87858 53.5657 10.7711 52.4239 10.7711Z" fill="#9339F2"/>
<path d="M64.608 3.75C61.4777 3.75 59.3712 4.97974 59.1153 7.08221H63.0921C63.1708 6.388 63.7024 6.01114 64.5883 6.01114C65.4151 6.01114 65.9073 6.34833 65.9073 7.04254V7.37972L62.7574 7.67724C61.3202 7.83592 60.395 8.09377 59.7847 8.54996C59.1547 9.00616 58.8594 9.64086 58.8594 10.4937C58.8594 12.1995 60.2375 13.2508 62.5015 13.2508C64.1945 13.2508 65.5726 12.616 66.0648 11.6045V11.6243L66.8326 12.9929H69.8447V7.65741C69.8644 5.01941 68.2697 3.75 64.608 3.75ZM66.0057 9.60119C66.0057 10.4541 65.2379 11.0491 64.0961 11.0491C63.3283 11.0491 62.8558 10.7119 62.8558 10.1764C62.8558 9.6607 63.3086 9.34335 64.293 9.2045L66.0057 9.00616V9.60119Z" fill="#9339F2"/>
<path d="M76.6398 9.50075L75.2224 10.79V12.9916H71.3047V0H75.2224V7.16028L78.2345 4.02642H82.92L79.6716 7.16028L82.9987 12.9916H78.6873L76.6398 9.50075Z" fill="#9339F2"/>
<path d="M14.7652 0.0195312V12.9715H7.42196L0 0.0195312H4.40987L10.8081 11.2261V0.0195312H14.7652Z" fill="#9339F2"/>
<path d="M27.1312 8.56771C27.1312 5.57269 25.261 3.72808 21.8945 3.62891C21.7961 3.62891 21.6976 3.62891 21.5992 3.62891C21.2842 3.62891 20.9692 3.64874 20.6936 3.68841C17.7996 3.98593 15.9688 5.7512 15.9688 8.40904C15.9688 11.3644 18.6855 13.1098 21.7961 13.1098C23.1545 13.1098 24.4341 12.9511 25.9106 11.8007C26.0484 11.7016 26.1863 11.5826 26.3241 11.4636L24.9263 9.18258C24.8279 9.30159 24.7097 9.4206 24.5916 9.5396C24.0601 10.0751 23.2923 10.6107 22.1308 10.6107C20.8905 10.6107 19.788 9.85696 19.6305 8.9644H27.1115L27.1312 8.56771ZM19.6502 7.08012C19.7289 6.10823 20.3983 5.71153 21.5401 5.71153C22.6623 5.71153 23.3317 6.24707 23.3317 7.08012H19.6502Z" fill="#9339F2"/>
</g>
<defs>
<clipPath id="clip0_6846_2136">
<rect width="83" height="15.8676" fill="white"/>
</clipPath>
</defs>
</svg>
