<svg width="49" height="12" viewBox="0 0 49 12" fill="none" xmlns="http://www.w3.org/2000/svg">
<mask id="mask0_6662_5642" style="mask-type:luminance" maskUnits="userSpaceOnUse" x="0" y="0" width="49" height="12">
<path d="M49 0H0V12H49V0Z" fill="white"/>
</mask>
<g mask="url(#mask0_6662_5642)">
<path d="M19.1843 0.0348511C19.1177 0.055756 18.9988 0.07666 18.918 0.0818866C18.7658 0.0871115 18.2998 0.238669 18.0286 0.369322C17.9431 0.405904 17.8004 0.468618 17.71 0.510427C17.6197 0.547009 17.458 0.635851 17.3534 0.70902C17.2488 0.782184 17.1014 0.881478 17.0252 0.923287C16.9444 0.965096 16.6448 1.26298 16.3547 1.58178C15.8364 2.15142 15.8221 2.17232 15.4559 2.97716C15.2514 3.42658 15.0422 3.96489 14.9899 4.17391C14.9423 4.38296 14.8425 4.78016 14.7806 5.05191C14.714 5.32367 14.6189 5.67904 14.5714 5.83582C14.4382 6.25391 14.3336 6.74513 14.3336 6.92287C14.3336 7.00644 14.3003 7.10573 14.2623 7.14233C14.1196 7.27302 13.9769 7.0692 13.5442 6.1128C13.3159 5.60064 13.0734 5.08849 13.0068 4.97351C12.9402 4.85853 12.6549 4.26276 12.3743 3.64609C12.0937 3.0294 11.8322 2.49111 11.7989 2.44409C11.7656 2.39704 11.5991 2.05735 11.4327 1.6863C11.1854 1.14278 11.0713 0.949416 10.8335 0.688111C10.6718 0.510427 10.4245 0.301382 10.2819 0.228216C10.0488 0.10279 9.96797 0.0871115 9.50194 0.0871115C8.88377 0.0871115 8.71728 0.134147 8.37966 0.385C8.00397 0.667207 7.85176 0.876253 7.57593 1.48771C7.43802 1.79605 7.29539 2.08348 7.26211 2.13052C7.22882 2.17232 7.03384 2.57473 6.82934 3.01896C6.62487 3.46318 6.40609 3.91784 6.33952 4.03282C6.27295 4.14778 6.08269 4.54498 5.91626 4.92124C5.74982 5.29231 5.58814 5.63722 5.55486 5.67904C5.52155 5.72084 5.35987 6.05011 5.18868 6.41071C4.85579 7.11624 4.74165 7.22598 4.64178 6.94896C4.61324 6.8706 4.49436 6.38976 4.37546 5.88809C4.25658 5.38638 4.07587 4.60769 3.96648 4.16347C3.85712 3.71924 3.64311 2.82558 3.49094 2.17755C3.09148 0.494749 3.06294 0.385 2.98209 0.280478C2.91075 0.202086 2.78236 0.191634 1.59347 0.191634C0.480666 0.191634 0.261909 0.202086 0.171554 0.275251C-0.00440161 0.411131 -0.0376905 0.526104 0.0383985 0.776958C0.0764429 0.902382 0.152531 1.20027 0.209599 1.4459C0.266666 1.69153 0.352266 2.02077 0.39982 2.17755C0.490177 2.47544 0.561509 2.7472 0.761246 3.5886C0.82782 3.86036 0.922933 4.21573 0.970487 4.37251C1.01804 4.52929 1.09413 4.80104 1.13693 4.97351C1.17973 5.14598 1.25582 5.44387 1.30813 5.63722C1.72187 7.22598 1.78369 7.46633 1.8788 7.87398C1.93111 8.08824 2.03574 8.49067 2.11182 8.76247C2.18791 9.0342 2.29254 9.4314 2.34485 9.63522C2.59214 10.5811 2.65395 10.7693 2.81565 11.0254C2.91075 11.1716 3.00586 11.3232 3.0344 11.3546C3.13902 11.4695 3.5908 11.7883 3.69542 11.8197C3.7525 11.8406 3.87138 11.8928 3.96174 11.9347C4.08062 11.9921 4.22804 12.0079 4.53239 11.9921C4.87479 11.9713 4.9937 11.9399 5.26476 11.7935C5.68325 11.5741 6.03519 11.1821 6.24918 10.717C6.33475 10.5184 6.43461 10.3198 6.46793 10.278C6.50122 10.2362 6.58679 10.069 6.66287 9.91218C6.739 9.7554 6.85314 9.53064 6.9197 9.41569C6.98148 9.30071 7.08611 9.08647 7.15268 8.94533C7.21454 8.799 7.2906 8.64744 7.32389 8.60569C7.35724 8.56387 7.46659 8.3496 7.56644 8.13529C7.66629 7.92102 7.8042 7.64929 7.87077 7.53431C7.93261 7.41931 8.01825 7.25209 8.05626 7.16851C8.09431 7.07964 8.15139 6.97511 8.17989 6.93331C8.21317 6.89149 8.32258 6.672 8.42723 6.44731C8.53181 6.22253 8.64122 6.01351 8.66499 5.97693C8.69351 5.94558 8.77435 5.78356 8.85048 5.62678C8.92654 5.47 9.04068 5.24527 9.10725 5.13029C9.16909 5.01533 9.25467 4.84809 9.29274 4.76447C9.51622 4.24709 9.72548 4.33071 10.0536 5.07804C10.1439 5.27662 10.2724 5.53793 10.3342 5.65291C10.4008 5.76789 10.5767 6.13369 10.7289 6.46296C10.881 6.79218 11.0333 7.09531 11.0665 7.14233C11.0998 7.18416 11.1997 7.38276 11.2901 7.58658C11.3804 7.78518 11.5088 8.04649 11.5706 8.16144C11.6372 8.2764 11.8132 8.64222 11.9653 8.97151C12.1175 9.30071 12.2697 9.60384 12.303 9.65089C12.341 9.69271 12.5027 10.0271 12.6644 10.393C12.8308 10.7536 13.0306 11.1299 13.1115 11.2292C13.2969 11.4539 13.7344 11.7831 13.8961 11.8301C13.9627 11.8459 14.072 11.8928 14.1386 11.9294C14.3003 12.0235 14.9376 12.0235 15.0992 11.9294C15.1659 11.8928 15.2752 11.8459 15.3418 11.8301C15.4511 11.7988 15.9077 11.48 16.0266 11.3546C16.1692 11.1926 16.4308 10.7117 16.4736 10.5236C16.5021 10.4034 16.6068 10.0115 16.7114 9.65089C16.8112 9.29029 16.9397 8.82516 16.9919 8.61611C17.244 7.65971 17.2963 7.45069 17.4295 6.9594C17.5103 6.672 17.6245 6.25913 17.6862 6.04489C17.7481 5.8306 17.8194 5.54838 17.8527 5.41773C17.9574 4.9526 18.2284 4.44044 18.5518 4.08507C18.8847 3.71924 18.975 3.66176 19.5172 3.4684C20.2258 3.21231 20.1591 3.21753 24.4155 3.23322L28.4339 3.24889L28.6857 3.40047C28.976 3.57291 29.6512 4.29413 29.8558 4.64949C29.9937 4.88989 30.122 4.97351 30.122 4.82196C30.122 4.78538 30.1838 4.52929 30.2599 4.26276C30.4453 3.61996 30.6594 2.82036 30.7879 2.33433C30.8448 2.12006 30.9305 1.79082 30.9828 1.60268L31.0731 1.26821L30.9684 1.14801C30.8353 1.0069 29.7463 0.395451 29.3517 0.238669C29.1947 0.181182 28.9473 0.10279 28.8001 0.0714335C28.4767 0.00872081 19.365 -0.0330878 19.1843 0.0348511Z" fill="white"/>
<path d="M33.4419 0.0448229C33.1378 0.154408 32.7564 0.394451 32.5632 0.603187C32.3266 0.853662 32.0417 1.45377 31.9547 1.87645C31.9209 2.033 31.8291 2.3722 31.7567 2.62267C31.6795 2.87838 31.6168 3.12884 31.6168 3.18102C31.6168 3.23844 31.5974 3.33236 31.5733 3.4002C31.5153 3.55676 31.1725 4.76218 31.0372 5.26836C30.844 6.0198 30.5979 6.80778 30.4772 7.08431C30.2889 7.5018 29.6272 8.18538 29.1926 8.415C28.5022 8.78029 28.6229 8.76462 25.9913 8.76462H23.6009V6.62513V4.48562H21.9592H20.3174V8.2428V12H24.4171C26.8121 12 28.6181 11.9791 28.7534 11.953C28.8787 11.9217 29.1154 11.8748 29.2747 11.8382C29.5886 11.7704 30.0329 11.6295 30.2792 11.5095C30.3662 11.473 30.511 11.4103 30.6026 11.3686C30.6944 11.3321 30.8635 11.2381 30.9793 11.1547C31.0952 11.0764 31.2014 11.0085 31.216 11.0085C31.2303 11.0085 31.3705 10.9146 31.5298 10.7945C31.8823 10.5337 32.3701 10.0171 32.6019 9.65178C32.7901 9.35431 33.2102 8.44631 33.2102 8.33676C33.2102 8.295 33.2296 8.2428 33.2536 8.21671C33.302 8.15933 33.6399 7.08953 33.7655 6.59904C33.809 6.42684 33.9057 6.04069 33.9781 5.738C34.1326 5.10138 34.1952 4.95527 34.316 4.95527C34.4416 4.95527 34.5091 5.06484 34.8519 5.81629C35.021 6.18678 35.2141 6.5886 35.2818 6.70338C35.3494 6.81822 35.5714 7.27218 35.7791 7.71576C35.9868 8.15411 36.1751 8.54551 36.204 8.58198C36.2329 8.61851 36.4938 9.16122 36.7883 9.78222C37.503 11.3164 37.561 11.3894 38.2322 11.7547C38.6377 11.9687 38.6523 11.9739 39.1495 11.9739C39.6276 11.9739 39.676 11.9635 39.985 11.7965C40.328 11.6138 40.7623 11.1911 40.8879 10.925C40.9266 10.8415 40.9846 10.7372 41.0184 10.6902C41.057 10.6432 41.4046 9.91267 41.8006 9.07253C42.1917 8.22713 42.5636 7.44438 42.6312 7.3296C42.6939 7.21482 42.974 6.63036 43.2541 6.02502C43.5582 5.37273 43.7948 4.92396 43.8383 4.91351C43.9398 4.89264 43.9831 5.01789 44.1957 5.92067C44.2923 6.32244 44.4565 7.00087 44.5627 7.43393C44.6689 7.86187 44.8863 8.74373 45.0408 9.39084C45.1953 10.0379 45.3884 10.8363 45.4705 11.165C45.5526 11.4938 45.6202 11.8174 45.6202 11.88V12H47.3102C48.2421 12 49.0003 11.9896 49.0003 11.9739C49.0003 11.9635 48.9471 11.7808 48.8844 11.5721C48.8169 11.3633 48.7107 10.9668 48.643 10.6954C48.5803 10.424 48.4787 10.0275 48.4258 9.81876C48.3677 9.61524 48.2808 9.27084 48.2229 9.06211C48.1697 8.85858 48.0636 8.44111 47.9863 8.13847C47.9091 7.83576 47.8029 7.41311 47.7448 7.19916C47.6868 6.9852 47.5806 6.56249 47.5034 6.25987C47.4261 5.95718 47.32 5.53971 47.2668 5.33098C47.2089 5.12747 47.122 4.78307 47.0639 4.57433C46.9723 4.21949 46.8902 3.89073 46.5426 2.51309C46.2817 1.4903 46.2528 1.38071 46.1418 1.15111C45.9775 0.80148 45.5767 0.404887 45.2002 0.206591C44.9249 0.0604773 44.8042 0.0291673 44.4517 0.00829454C44.046 -0.0125784 44.0219 -0.00735989 43.6597 0.185718C43.1817 0.441416 42.7616 0.890189 42.5345 1.38593C42.4429 1.58423 42.3414 1.78252 42.3076 1.82427C42.2738 1.86602 42.182 2.03822 42.1048 2.20521C42.0275 2.36698 41.9359 2.53396 41.9116 2.57049C41.8827 2.60702 41.7766 2.81053 41.675 3.02449C41.5737 3.23844 41.4336 3.5098 41.366 3.6246C41.3033 3.7394 41.2164 3.90116 41.1777 3.98987C41.1391 4.07338 41.0811 4.18296 41.0522 4.22471C41.0184 4.26644 40.9074 4.4804 40.8058 4.69436C40.7045 4.90829 40.5644 5.17964 40.4968 5.29444C40.4341 5.40927 40.328 5.618 40.2602 5.76411C40.1975 5.905 40.1203 6.06156 40.0863 6.10331C40.0527 6.14502 39.9658 6.312 39.8885 6.4686C39.811 6.62513 39.6954 6.84953 39.6276 6.96431C39.5601 7.07909 39.4683 7.25651 39.4248 7.36091C39.3283 7.59576 39.1833 7.73664 39.0674 7.71053C39.0193 7.70009 38.9178 7.56445 38.8357 7.3818C38.7584 7.2096 38.6377 6.97476 38.575 6.85998C38.5075 6.74513 38.3722 6.47382 38.266 6.25987C38.1645 6.04589 38.0534 5.83193 38.0197 5.7902C37.9859 5.74844 37.8892 5.54493 37.7976 5.34664C37.7058 5.14313 37.5754 4.88742 37.5127 4.77262C37.4451 4.65782 37.2858 4.33949 37.1553 4.06816C37.0297 3.7968 36.8947 3.54109 36.8607 3.49413C36.8318 3.45238 36.7496 3.29584 36.687 3.15493C36.6194 3.00882 36.513 2.80009 36.4503 2.68529C36.3828 2.57049 36.2234 2.25218 36.093 1.98082C35.9674 1.70947 35.8323 1.45377 35.7986 1.40681C35.7694 1.36506 35.6873 1.21373 35.6246 1.07283C35.4604 0.712769 35.1563 0.404887 34.77 0.201372C34.485 0.05526 34.3835 0.0291673 34.007 0.013513C33.7704 0.00829454 33.5145 0.02395 33.4419 0.0448229Z" fill="white"/>
</g>
</svg>
